<?xml version="1.0" standalone="no"?>
<!DOCTYPE svg PUBLIC "-//W3C//DTD SVG 20010904//EN"
 "http://www.w3.org/TR/2001/REC-SVG-20010904/DTD/svg10.dtd">
<svg version="1.0" xmlns="http://www.w3.org/2000/svg"
 width="120.000000pt" height="120.000000pt" viewBox="0 0 120.000000 120.000000"
 preserveAspectRatio="xMidYMid meet">
<metadata>
Created by potrace 1.11, written by Peter Selinger 2001-2013
</metadata>
<g transform="translate(0.000000,120.000000) scale(0.100000,-0.100000)"
fill="#000000" stroke="none">
<path d="M341 733 l-341 -226 0 -142 c0 -129 2 -142 18 -140 9 0 22 4 28 8 40
25 63 26 90 4 16 -12 24 -15 19 -8 -6 11 -4 12 6 5 22 -13 43 -14 51 -1 8 12
1 84 -9 101 -4 5 -1 6 5 2 19 -12 22 11 6 44 l-16 31 -22 -20 c-27 -26 -46
-27 -46 -3 -1 15 -2 15 -11 -2 -9 -15 -13 -16 -20 -5 -13 21 -11 26 13 32 24
7 17 22 -9 22 -26 0 -24 35 2 45 18 7 22 14 18 31 -4 13 -2 20 3 16 6 -3 16
-2 24 4 12 7 12 9 -4 9 -15 0 -16 3 -7 14 12 14 52 15 84 1 15 -6 18 -4 15 11
-2 16 3 19 32 19 45 0 59 -19 61 -86 1 -29 8 -65 16 -79 10 -20 10 -26 0 -29
-6 -2 -16 -10 -20 -18 -5 -7 -13 -11 -18 -7 -13 8 -62 13 -72 7 -4 -2 -3 -12
3 -22 5 -10 6 -21 2 -25 -13 -14 -10 -95 4 -100 8 -3 14 -1 14 5 0 6 5 7 10 4
6 -3 10 -1 10 5 0 6 4 9 9 6 5 -3 15 2 22 12 13 15 12 16 -3 3 -16 -12 -18
-11 -18 8 0 11 8 29 18 39 21 19 47 28 37 12 -3 -5 3 -10 14 -10 12 0 21 6 21
13 0 6 8 0 18 -16 10 -15 22 -24 27 -20 4 5 5 -2 2 -14 -4 -17 -1 -23 13 -23
10 0 23 -7 30 -15 10 -12 16 -12 26 -4 21 17 83 20 113 5 22 -12 28 -12 40 1
8 9 21 12 35 8 11 -4 29 -7 39 -6 48 3 55 6 51 24 -2 13 1 17 10 14 8 -3 22 3
31 13 16 18 51 17 39 -1 -3 -5 0 -9 5 -9 6 0 11 4 11 9 0 16 34 18 63 3 35
-16 38 -14 41 33 2 24 -3 44 -15 58 -15 18 -18 19 -19 6 0 -10 -11 -19 -26
-22 -20 -3 -28 1 -37 20 -8 18 -13 20 -20 11 -6 -9 -7 -7 -2 7 3 11 9 32 12
48 3 15 9 27 14 27 5 0 4 11 -1 25 -8 20 -6 27 5 31 8 4 15 12 15 19 0 14 17
15 37 2 7 -4 21 2 33 15 15 16 23 19 28 11 6 -10 37 -19 77 -22 5 -1 4 -6 -3
-13 -17 -17 -15 -29 3 -22 10 4 15 0 15 -14 0 -11 6 -22 13 -25 15 -6 21 -57
7 -57 -6 0 -10 -9 -10 -20 0 -13 -5 -18 -15 -14 -8 4 -15 1 -15 -5 0 -17 -27
-13 -34 5 -9 23 -26 13 -42 -24 -11 -28 -11 -34 0 -38 10 -4 12 -14 7 -32 -4
-15 -6 -33 -5 -39 1 -7 2 -19 3 -25 1 -16 182 -19 193 -3 4 5 7 69 7 141 l-1
130 -62 39 c-33 22 -63 42 -66 45 -8 9 -149 100 -155 100 -12 0 -43 34 -39 42
9 14 58 34 92 37 13 1 17 50 5 52 -5 0 -16 2 -25 4 -10 2 -20 -5 -24 -17 -7
-23 -53 -67 -69 -68 -6 0 -55 30 -109 66 l-99 66 24 19 c13 10 32 21 42 25 9
3 17 9 17 14 0 8 -32 30 -43 30 -3 0 -158 -102 -346 -227z m293 33 c-11 -6
-22 -11 -26 -12 -5 -1 -10 -2 -13 -4 -5 -2 -55 -3 -76 -1 -8 1 -8 5 1 15 12
15 78 25 114 17 18 -4 18 -4 0 -15z m134 -52 c15 -15 16 -34 2 -34 -6 0 -23
-11 -38 -25 -15 -14 -34 -26 -42 -26 -25 -2 -45 2 -48 11 -2 4 -14 21 -28 37
-13 15 -24 33 -24 40 0 6 24 20 53 31 l52 20 30 -21 c17 -12 36 -27 43 -33z
m-258 26 c4 0 9 -8 12 -17 4 -18 -36 -66 -46 -55 -3 3 -14 -2 -24 -11 -10 -9
-33 -20 -51 -23 -32 -7 -33 -6 -19 17 22 40 90 101 105 95 8 -4 18 -6 23 -6z
m86 -65 c6 -6 17 -21 24 -34 11 -22 11 -23 -6 -17 -26 11 -66 19 -86 18 -25
-1 -31 14 -12 33 17 17 61 17 80 0z m183 -61 c-2 -33 -9 -62 -17 -71 -13 -12
-18 -10 -43 19 -16 17 -28 35 -27 40 3 6 79 67 86 68 2 0 2 -25 1 -56z m52 -6
c10 -37 7 -143 -4 -154 -2 -2 -11 -2 -20 1 -15 7 -17 21 -4 42 4 6 3 15 -3 18
-11 7 -7 96 6 116 4 8 3 9 -4 5 -13 -8 -17 6 -6 17 12 12 23 -3 35 -45z m-248
10 c-2 -5 7 -8 21 -8 14 0 25 -4 24 -8 -2 -5 8 -20 21 -34 14 -14 26 -34 27
-44 1 -11 5 -30 8 -43 9 -39 -28 -106 -71 -127 -21 -10 -41 -17 -45 -16 -5 1
-8 -2 -8 -6 0 -5 -18 -8 -40 -8 -52 2 -94 33 -98 74 -3 33 -11 39 -28 22 -14
-14 -36 58 -38 123 -2 54 4 62 56 72 l37 7 -20 -38 c-10 -22 -17 -44 -14 -51
2 -7 0 -13 -6 -13 -6 0 -9 -7 -5 -15 3 -8 0 -15 -7 -15 -9 0 -9 -2 0 -8 8 -5
9 -13 3 -22 -14 -22 -12 -34 4 -21 7 6 16 28 19 49 14 88 17 97 58 121 28 17
112 24 102 9z m136 -84 c26 -33 26 -55 1 -85 l-19 -24 -2 38 c-3 62 -4 71 -12
85 -15 23 12 12 32 -14z m66 -78 c8 -7 11 -16 8 -20 -4 -3 -1 -6 6 -6 30 0
-35 -76 -91 -106 -26 -14 -28 -13 -25 6 2 11 13 27 25 36 12 8 20 20 16 26 -7
11 26 78 39 78 5 0 15 -6 22 -14z m-120 -118 c-3 -13 -11 -28 -19 -33 -12 -10
-26 -10 -86 -5 -13 1 83 57 102 59 4 1 5 -9 3 -21z"/>
</g>
</svg>
