<svg width="15" height="21" viewBox="0 0 15 21" fill="none" xmlns="http://www.w3.org/2000/svg">
<path d="M5.16228 10.6442L13.6698 17.8918C14.0093 18.1834 14.222 18.6007 14.2613 19.0523C14.3006 19.5039 14.1632 19.953 13.8792 20.3012C13.5953 20.6495 13.1879 20.8685 12.7463 20.9104C12.3048 20.9522 11.865 20.8134 11.5233 20.5245L1.47135 11.9606C1.28287 11.7996 1.13126 11.5983 1.02722 11.3708C0.923186 11.1434 0.869264 10.8953 0.869264 10.6443C0.869265 10.3932 0.923186 10.1451 1.02722 9.91767C1.13126 9.69021 1.28287 9.48888 1.47135 9.32789L11.5233 0.764067C11.8648 0.473705 12.3052 0.333828 12.7475 0.375162C13.1899 0.416495 13.5981 0.635655 13.8826 0.984503C14.167 1.33335 14.3043 1.78335 14.2644 2.23566C14.2245 2.68797 14.0106 3.10559 13.6698 3.39679L5.16228 10.6442Z" fill="#112E49"/>
</svg>
