<svg width="15" height="21" viewBox="0 0 15 21" fill="none" xmlns="http://www.w3.org/2000/svg">
<path d="M9.83772 10.3558L1.33024 3.10822C0.990672 2.81662 0.777965 2.39933 0.738703 1.94773C0.699442 1.49614 0.836825 1.04703 1.12077 0.698774C1.40471 0.350515 1.81208 0.131482 2.25365 0.0896406C2.69523 0.0477988 3.13503 0.186558 3.47674 0.475533L13.5287 9.03939C13.7171 9.20038 13.8687 9.40171 13.9728 9.62917C14.0768 9.85662 14.1307 10.1047 14.1307 10.3557C14.1307 10.6068 14.0768 10.8549 13.9728 11.0823C13.8687 11.3098 13.7171 11.5111 13.5287 11.6721L3.47674 20.2359C3.13518 20.5263 2.69485 20.6662 2.25248 20.6248C1.81011 20.5835 1.40187 20.3643 1.11745 20.0155C0.83303 19.6667 0.695682 19.2166 0.735582 18.7643C0.775481 18.312 0.989365 17.8944 1.33025 17.6032L9.83772 10.3558Z" fill="#112E49"/>
</svg>
