<svg width="39" height="50" viewBox="0 0 39 50" fill="none" xmlns="http://www.w3.org/2000/svg">
<path d="M38 13.1836L27.7692 10.2539L24.8462 0H4.38462C1.96304 0 0 1.96748 0 4.39453V45.6055C0 48.0325 1.96304 50 4.38462 50H33.6154C36.037 50 38 48.0325 38 45.6055V13.1836Z" fill="#4086F4"/>
<path d="M38 13.1836V45.6055C38 48.0325 36.037 50 33.6154 50H19V0H24.8462L27.7692 10.2539L38 13.1836Z" fill="#4175DF"/>
<path d="M38.0015 13.1836H27.7707C26.163 13.1836 24.8477 11.8652 24.8477 10.2539V0C25.2277 0 25.6077 0.146484 25.8706 0.439551L37.5629 12.1583C37.8553 12.4219 38.0015 12.8027 38.0015 13.1836Z" fill="#80AEF8"/>
<path d="M27.7695 23.5352H10.2311C9.42323 23.5352 8.76953 22.88 8.76953 22.0703C8.76953 21.2606 9.42323 20.6055 10.2311 20.6055H27.7695C28.5774 20.6055 29.2311 21.2606 29.2311 22.0703C29.2311 22.88 28.5774 23.5352 27.7695 23.5352Z" fill="#FFF5F5"/>
<path d="M27.7695 29.3945H10.2311C9.42323 29.3945 8.76953 28.7394 8.76953 27.9297C8.76953 27.12 9.42323 26.4648 10.2311 26.4648H27.7695C28.5774 26.4648 29.2311 27.12 29.2311 27.9297C29.2311 28.7394 28.5774 29.3945 27.7695 29.3945Z" fill="#FFF5F5"/>
<path d="M27.7695 35.2539H10.2311C9.42323 35.2539 8.76953 34.5987 8.76953 33.7891C8.76953 32.9794 9.42323 32.3242 10.2311 32.3242H27.7695C28.5774 32.3242 29.2311 32.9794 29.2311 33.7891C29.2311 34.5987 28.5774 35.2539 27.7695 35.2539Z" fill="#FFF5F5"/>
<path d="M21.9234 41.1133H10.2311C9.42323 41.1133 8.76953 40.4581 8.76953 39.6484C8.76953 38.8388 9.42323 38.1836 10.2311 38.1836H21.9234C22.7312 38.1836 23.3849 38.8388 23.3849 39.6484C23.3849 40.4581 22.7312 41.1133 21.9234 41.1133Z" fill="#FFF5F5"/>
<path d="M19 41.1133H21.9231C22.7309 41.1133 23.3846 40.4581 23.3846 39.6484C23.3846 38.8388 22.7309 38.1836 21.9231 38.1836H19V41.1133Z" fill="#E3E7EA"/>
<path d="M19 35.2539H27.7692C28.5771 35.2539 29.2308 34.5987 29.2308 33.7891C29.2308 32.9794 28.5771 32.3242 27.7692 32.3242H19V35.2539Z" fill="#E3E7EA"/>
<path d="M19 29.3945H27.7692C28.5771 29.3945 29.2308 28.7394 29.2308 27.9297C29.2308 27.12 28.5771 26.4648 27.7692 26.4648H19V29.3945Z" fill="#E3E7EA"/>
<path d="M19 23.5352H27.7692C28.5771 23.5352 29.2308 22.88 29.2308 22.0703C29.2308 21.2606 28.5771 20.6055 27.7692 20.6055H19V23.5352Z" fill="#E3E7EA"/>
</svg>
