<svg width="24" height="22" viewBox="0 0 24 22" fill="none" xmlns="http://www.w3.org/2000/svg">
<path d="M23.5969 9.77415L21.5694 7.9925V1.0847C21.5694 0.708805 21.2534 0.404019 20.8636 0.404019H15.9832C15.5935 0.404019 15.2774 0.70876 15.2774 1.0847V2.46327L12.8289 0.311545C12.3562 -0.103863 11.6435 -0.103818 11.1711 0.311499L0.403024 9.7742C0.0244616 10.1069 -0.100648 10.6196 0.084321 11.0802C0.269337 11.5408 0.719805 11.8384 1.23201 11.8384H2.9518V21.3193C2.9518 21.6952 3.26779 22 3.6576 22H9.55977C9.94954 22 10.2656 21.6952 10.2656 21.3193V15.5628H13.7344V21.3193C13.7344 21.6952 14.0503 22 14.4402 22H20.3421C20.7319 22 21.0479 21.6953 21.0478 21.3193V11.8384H22.768C23.2802 11.8384 23.7307 11.5408 23.9157 11.0802C24.1006 10.6196 23.9756 10.1069 23.5969 9.77415ZM20.3421 10.4771C19.9523 10.4771 19.6363 10.7818 19.6363 11.1578V20.6386H15.146V14.8821C15.146 14.5062 14.83 14.2014 14.4402 14.2014H9.55977C9.17001 14.2014 8.85397 14.5062 8.85397 14.8821V20.6386H4.36335V11.1578C4.36335 10.7819 4.04737 10.4771 3.65755 10.4771H1.69898L12 1.42481L15.508 4.50753C15.7146 4.68908 16.0129 4.73587 16.2685 4.62706C16.5241 4.51811 16.6891 4.2739 16.6891 4.00437V1.76538H20.1579V8.29312C20.1579 8.48467 20.2415 8.66726 20.3884 8.79628L22.301 10.4771H20.3421Z" fill="#A8A8A8"/>
</svg>
