<svg width="13" height="13" viewBox="0 0 13 13" fill="none" xmlns="http://www.w3.org/2000/svg">
<path d="M9.18524 0.207031H3.53939C1.7019 0.207031 0.207031 1.7019 0.207031 3.53939V9.18533C0.207031 11.0227 1.7019 12.5176 3.53939 12.5176H9.18533C11.0227 12.5176 12.5176 11.0227 12.5176 9.18533V3.53939C12.5176 1.7019 11.0227 0.207031 9.18524 0.207031ZM6.36231 9.72839C4.50622 9.72839 2.99624 8.2184 2.99624 6.36231C2.99624 4.50622 4.50622 2.99624 6.36231 2.99624C8.2184 2.99624 9.72839 4.50622 9.72839 6.36231C9.72839 8.2184 8.2184 9.72839 6.36231 9.72839ZM9.80888 3.79007C9.26037 3.79007 8.81424 3.34394 8.81424 2.79543C8.81424 2.24693 9.26037 1.8007 9.80888 1.8007C10.3574 1.8007 10.8036 2.24693 10.8036 2.79543C10.8036 3.34394 10.3574 3.79007 9.80888 3.79007Z" fill="#8BA3C3"/>
</svg>
