<svg width="40" height="40" viewBox="0 0 40 40" fill="none" xmlns="http://www.w3.org/2000/svg">
<path d="M40 30.8672C40 35.9141 35.9141 40 30.8672 40H9.13281C4.08594 40 0 35.9141 0 30.8672V9.14062C0 4.09375 4.09375 0 9.14062 0H30.7266C35.8516 0 40 4.14844 40 9.27344V30.8672Z" fill="url(#paint0_radial)"/>
<path d="M25.5625 5.51562H14.4375C9.50781 5.51562 5.50781 9.51562 5.50781 14.4453V25.5625C5.50781 30.4922 9.5 34.4844 14.4375 34.4844H25.5547C30.4844 34.4844 34.4766 30.4922 34.4766 25.5625V14.4453C34.4844 9.50781 30.4922 5.51562 25.5625 5.51562ZM31.7031 24.4922C31.7031 28.4766 28.4766 31.7031 24.4922 31.7031H15.5078C11.5234 31.7031 8.29687 28.4766 8.29687 24.4922V15.5078C8.29687 11.5234 11.5234 8.29688 15.5078 8.29688H24.4922C28.4766 8.29688 31.7031 11.5312 31.7031 15.5078V24.4922Z" fill="white"/>
<path d="M20.3906 12.4219C16.1719 12.4219 12.7578 15.8359 12.7578 20.0547C12.7578 24.2656 16.1719 27.6875 20.3906 27.6875C24.6016 27.6875 28.0234 24.2734 28.0234 20.0547C28.0156 15.8359 24.6016 12.4219 20.3906 12.4219ZM20.3906 24.6406C17.8516 24.6406 15.7969 22.5859 15.7969 20.0469C15.7969 17.5078 17.8516 15.4531 20.3906 15.4531C22.9219 15.4531 24.9844 17.5078 24.9844 20.0469C24.9766 22.5859 22.9219 24.6406 20.3906 24.6406Z" fill="white"/>
<path d="M29.4297 12.3047C29.4297 13.375 28.5625 14.2422 27.4922 14.2422C26.4219 14.2422 25.5547 13.375 25.5547 12.3047C25.5547 11.2344 26.4219 10.3594 27.4922 10.3594C28.5625 10.3594 29.4297 11.2266 29.4297 12.3047Z" fill="white"/>
<defs>
<radialGradient id="paint0_radial" cx="0" cy="0" r="1" gradientUnits="userSpaceOnUse" gradientTransform="translate(11.7163 43.0968) scale(53.006 53.0045)">
<stop offset="0.0969388" stop-color="#FFD87A"/>
<stop offset="0.1426" stop-color="#FCCE78"/>
<stop offset="0.2263" stop-color="#F5B471"/>
<stop offset="0.3378" stop-color="#EB8D65"/>
<stop offset="0.449" stop-color="#E36058"/>
<stop offset="0.6786" stop-color="#CD3694"/>
<stop offset="1" stop-color="#6668B0"/>
</radialGradient>
</defs>
</svg>
