<svg width="18" height="17" viewBox="0 0 18 17" fill="none" xmlns="http://www.w3.org/2000/svg">
<path fill-rule="evenodd" clip-rule="evenodd" d="M12.0857 8.63498C13.198 7.74453 13.9091 6.383 13.9091 4.85714C13.9091 2.17462 11.7112 0 9 0C6.28878 0 4.09091 2.17462 4.09091 4.85714C4.09091 6.38301 4.80203 7.74453 5.91426 8.63498C4.69377 9.07575 3.57237 9.77696 2.63604 10.7034C0.948212 12.3733 0 14.6383 0 17H1.63636C1.63636 15.0677 2.41217 13.2146 3.79312 11.8482C5.17407 10.4819 7.04704 9.71429 9 9.71429C10.953 9.71429 12.8259 10.4819 14.2069 11.8482C15.5878 13.2146 16.3636 15.0677 16.3636 17H18C18 14.6383 17.0518 12.3734 15.364 10.7034C14.4276 9.77696 13.3062 9.07575 12.0857 8.63498ZM12.2727 4.85714C12.2727 6.64549 10.8075 8.09524 9 8.09524C7.19252 8.09524 5.72727 6.64549 5.72727 4.85714C5.72727 3.06879 7.19252 1.61905 9 1.61905C10.8075 1.61905 12.2727 3.06879 12.2727 4.85714Z" fill="white"/>
</svg>
