<svg width="559" height="559" viewBox="0 0 559 559" fill="none" xmlns="http://www.w3.org/2000/svg">
<circle opacity="0.05" cx="279.5" cy="279.5" r="279.5" fill="white"/>
<circle opacity="0.05" cx="280" cy="290" r="223" fill="white"/>
<path opacity="0.05" d="M434 300C434 385.052 365.052 454 280 454C194.948 454 126 385.052 126 300C126 214.948 194.948 146 280 146C365.052 146 434 214.948 434 300ZM203.426 300C203.426 342.29 237.71 376.574 280 376.574C322.29 376.574 356.574 342.29 356.574 300C356.574 257.71 322.29 223.426 280 223.426C237.71 223.426 203.426 257.71 203.426 300Z" fill="white"/>
</svg>
