<svg width="42" height="50" viewBox="0 0 42 50" fill="none" xmlns="http://www.w3.org/2000/svg">
<path d="M40.2718 5.91787L21.0948 0.0584961C20.9471 0 20.7997 0 20.6522 0C20.5047 0 20.3572 0 20.2095 0.0584961L1.03251 5.91787C0.413044 6.12295 0 6.67959 0 7.32422V22.168C0 43.5253 20.0032 49.8827 20.2095 49.9413C20.3572 49.9707 20.5047 50 20.6522 50C20.7997 50 20.9471 49.9707 21.0948 49.9413C21.3011 49.8827 41.3043 43.5253 41.3043 22.168V7.32422C41.3043 6.67959 40.8913 6.12295 40.2718 5.91787Z" fill="#4086F4"/>
<path d="M41.3045 7.32422V22.168C41.3045 43.5253 21.3013 49.8827 21.095 49.9413C20.9473 49.9707 20.7999 50 20.6523 50V0C20.7999 0 20.9473 0 21.095 0.0584961L40.272 5.91787C40.8915 6.12295 41.3045 6.67959 41.3045 7.32422Z" fill="#4175DF"/>
<path d="M28.893 34.7521C28.3657 34.5147 28.0258 33.9926 28.0258 33.4175V31.6608C28.0258 30.4392 24.0612 29.4922 20.65 29.4922C17.2387 29.4922 13.2742 30.4392 13.2742 31.6608V33.4175C13.2742 33.9926 12.9342 34.5147 12.407 34.7521C11.8798 34.9897 11.2603 34.8966 10.8238 34.5176C7.69341 31.7796 5.89844 27.8128 5.89844 23.6328C5.89844 15.5562 12.5165 8.98438 20.65 8.98438C28.7835 8.98438 35.4015 15.5562 35.4015 23.6328C35.4015 27.8128 33.6066 31.7796 30.4762 34.5176C30.0437 34.8932 29.4271 34.9918 28.893 34.7521Z" fill="#4175DF"/>
<path d="M28.0281 31.6608V33.4175C28.0281 33.9926 28.3681 34.5147 28.8953 34.7521C29.4294 34.9918 30.0459 34.8931 30.4785 34.5176C33.6089 31.7796 35.4039 27.8128 35.4039 23.6328C35.4039 15.5562 28.7859 8.98438 20.6523 8.98438V29.4922C24.0637 29.4922 28.0281 30.4392 28.0281 31.6608Z" fill="#4254B6"/>
<path d="M20.6545 26.5627C17.4002 26.5627 14.7539 23.9349 14.7539 20.7034C14.7539 17.4718 17.4002 14.844 20.6545 14.844C23.9088 14.844 26.5551 17.4718 26.5551 20.7034C26.5551 23.9349 23.9088 26.5627 20.6545 26.5627Z" fill="#FFF5F5"/>
<path d="M20.6503 38.2812C16.9754 38.2812 13.4791 36.9494 10.8054 34.5305C10.4986 34.2529 10.3242 33.8596 10.3242 33.4476V31.6608C10.3242 26.7056 19.5929 26.5625 20.6503 26.5625C21.7077 26.5625 30.9764 26.7056 30.9764 31.6608V33.4476C30.9764 33.8596 30.8021 34.2529 30.4952 34.5305C27.8215 36.9494 24.3252 38.2812 20.6503 38.2812ZM29.5012 33.4476H29.5301H29.5012Z" fill="#FFF5F5"/>
<path d="M30.4972 34.5305C30.8041 34.2529 30.9784 33.8596 30.9784 33.4476V31.6608C30.9784 26.7056 21.7097 26.5625 20.6523 26.5625V38.2812C24.3273 38.2812 27.8236 36.9494 30.4972 34.5305Z" fill="#E3E7EA"/>
<path d="M26.553 20.7034C26.553 17.4718 23.9066 14.844 20.6523 14.844V26.5627C23.9066 26.5627 26.553 23.9349 26.553 20.7034Z" fill="#E3E7EA"/>
</svg>
