<?xml version="1.0" encoding="utf-8"?><svg xmlns="http://www.w3.org/2000/svg" xmlns:xlink="http://www.w3.org/1999/xlink"><symbol viewBox="0 0 15 21" id="arr-next" xmlns="http://www.w3.org/2000/svg"><path d="M9.838 10.356L1.33 3.108a1.74 1.74 0 01-.21-2.41A1.652 1.652 0 013.477.476L13.53 9.04c.188.161.34.363.444.59a1.748 1.748 0 01-.444 2.043L3.477 20.236a1.651 1.651 0 01-2.36-.22 1.74 1.74 0 01.213-2.413l8.508-7.247z"/></symbol><symbol viewBox="0 0 15 21" id="arr-prev" xmlns="http://www.w3.org/2000/svg"><path d="M5.162 10.644l8.508 7.248a1.739 1.739 0 01.21 2.41 1.652 1.652 0 01-2.356.223L1.47 11.96a1.711 1.711 0 01-.444-.59 1.747 1.747 0 01.444-2.043L11.523.764a1.652 1.652 0 012.36.22 1.74 1.74 0 01-.213 2.413l-8.508 7.247z"/></symbol><symbol viewBox="0 0 515.556 515.556" id="checked" xmlns="http://www.w3.org/2000/svg"><path d="M0 274.226l176.549 176.886L515.556 112.44l-48.67-47.997-290.337 290L47.996 225.891z"/></symbol><symbol viewBox="0 0 13 13" id="inst" xmlns="http://www.w3.org/2000/svg"><path d="M9.185.207H3.54A3.336 3.336 0 00.207 3.539v5.646a3.336 3.336 0 003.332 3.333h5.646a3.336 3.336 0 003.333-3.333V3.54A3.336 3.336 0 009.185.207zM6.362 9.728a3.37 3.37 0 01-3.366-3.366 3.37 3.37 0 013.366-3.366 3.37 3.37 0 013.366 3.366 3.37 3.37 0 01-3.366 3.366zM9.81 3.79a.996.996 0 010-1.99.996.996 0 010 1.99z"/></symbol><symbol viewBox="0 0 18 17" id="man" xmlns="http://www.w3.org/2000/svg"><path fill-rule="evenodd" clip-rule="evenodd" d="M12.086 8.635a4.829 4.829 0 001.823-3.778C13.91 2.175 11.711 0 9 0S4.09 2.175 4.09 4.857a4.83 4.83 0 001.824 3.778 9.011 9.011 0 00-3.278 2.068A8.857 8.857 0 000 17h1.636c0-1.932.776-3.785 2.157-5.152A7.404 7.404 0 019 9.714c1.953 0 3.826.768 5.207 2.134A7.247 7.247 0 0116.364 17H18a8.857 8.857 0 00-2.636-6.297 9.012 9.012 0 00-3.278-2.068zm.187-3.778c0 1.788-1.466 3.238-3.273 3.238-1.807 0-3.273-1.45-3.273-3.238S7.193 1.62 9 1.62c1.807 0 3.273 1.45 3.273 3.238z"/></symbol><symbol viewBox="0 0 0 0" id="sprite" xmlns="http://www.w3.org/2000/svg"/><symbol viewBox="0 0 17 17" id="tel" xmlns="http://www.w3.org/2000/svg"><path d="M16.67 13.518l-1.885-1.257-1.676-1.116a.742.742 0 00-.996.161l-1.037 1.333a.738.738 0 01-.942.196c-.704-.392-1.536-.76-3.371-2.598C4.928 8.4 4.557 7.57 4.165 6.867a.738.738 0 01.196-.943l1.333-1.037a.742.742 0 00.161-.996L4.773 2.267 3.483.33a.742.742 0 00-1-.225L.994.999c-.402.237-.698.62-.826 1.069-.407 1.484-.489 4.758 4.759 10.006 5.247 5.247 8.52 5.165 10.005 4.757.45-.127.832-.423 1.07-.825l.892-1.49a.742.742 0 00-.225-.998z"/></symbol><symbol viewBox="0 0 16 14" id="tele" xmlns="http://www.w3.org/2000/svg"><path d="M6.278 8.788l-.265 3.722c.38 0 .543-.162.74-.358l1.775-1.696 3.679 2.694c.675.376 1.15.178 1.332-.621l2.415-11.315c.214-.998-.36-1.388-1.018-1.143L.743 5.505c-.969.376-.954.916-.165 1.16l3.629 1.13 8.428-5.275c.397-.262.758-.117.461.146L6.278 8.788z"/></symbol><symbol viewBox="0 0 18 10" id="vk" xmlns="http://www.w3.org/2000/svg"><path d="M.448 1.744c.194.505.432.991.678 1.471.584 1.142 1.185 2.25 1.992 3.254.815 1.013 1.777 1.996 2.91 2.651.316.183.647.337.992.454 1.332.45 2.793.408 3.244.107.451-.3-.086-2.277.322-2.514.409-.236 1.139.28 1.676.752.537.473.945.881 1.246 1.203.188.202.32.443.566.587.407.238.948.212 1.4.213.253 0 .506.001.759-.002.17-.002.341.004.512-.005.28-.013.646-.124.625-.475a.821.821 0 00-.056-.258 2.43 2.43 0 00-.278-.479c-.558-.746-.929-1.127-1.208-1.428-.28-.3-1.429-1.386-1.504-1.6-.075-.215-.1-.31.114-.6.214-.29.681-1.023 1.046-1.549.23-.33.438-.675.643-1.02.242-.407.47-.823.665-1.255.086-.194.165-.37.111-.586-.035-.145-.117-.273-.269-.308a1.145 1.145 0 00-.258-.022h-1.144l-.449-.002c-.153 0-.307 0-.46.012-.218.02-.351.187-.46.356-.134.207-.256.422-.386.632-.089.143-.175.287-.26.432-.134.227-.271.451-.409.676l-.17.28c-.161.268-1.558 2.105-1.837 2.18-.28.075-.376.054-.376-.516V.583s-.021-.25-.258-.25H6.576s-.532.003-.344.481c.188.478.744.623.744 1.42V5.36s-.094.701-.701.121c-.479-.457-.873-.997-1.22-1.558a12.114 12.114 0 01-.914-1.822c-.074-.18-.148-.363-.224-.543a28.15 28.15 0 01-.235-.567c-.089-.22-.184-.508-.423-.61-.12-.051-.253-.048-.381-.048H1.032C.702.333.293.324.215.735c-.045.237.045.49.12.712.034.101.075.198.113.297z"/></symbol><symbol viewBox="0 0 14 14" id="wa" xmlns="http://www.w3.org/2000/svg"><path d="M11.977 5.875c.017-1.974-1.664-3.783-3.748-4.033a3.05 3.05 0 01-.134-.02 1.949 1.949 0 00-.317-.035c-.427 0-.541.3-.571.478a.553.553 0 00.082.435c.142.192.39.226.59.253.059.008.114.016.16.026 1.872.419 2.502 1.076 2.81 2.932.008.045.011.101.015.16.013.222.041.684.537.684a.881.881 0 00.132-.01c.462-.071.448-.493.44-.696a1.027 1.027 0 01.004-.174z"/><path d="M7.656 1.117c.056.004.108.008.152.014 3.074.473 4.487 1.93 4.879 5.027.006.052.007.117.008.185.004.242.012.745.553.755h.017a.53.53 0 00.4-.151c.169-.177.157-.438.148-.648a1.817 1.817 0 01-.004-.143C13.848 2.988 11.106.116 7.94.01a.22.22 0 00-.039.002.264.264 0 01-.037.002c-.032 0-.07-.003-.112-.006A1.996 1.996 0 007.59 0c-.504 0-.6.358-.612.572-.029.493.449.528.678.545zm4.882 9.044a9.278 9.278 0 01-.197-.152c-.335-.27-.692-.52-1.037-.76l-.215-.15c-.442-.31-.84-.462-1.216-.462-.506 0-.947.28-1.31.831-.162.244-.358.363-.599.363a1.19 1.19 0 01-.482-.12c-1.427-.648-2.446-1.64-3.03-2.95-.281-.634-.19-1.048.306-1.385.282-.19.806-.547.769-1.228-.042-.774-1.75-3.102-2.469-3.366a1.401 1.401 0 00-.953-.003C1.278 1.057.685 1.545.39 2.19c-.286.623-.273 1.356.037 2.118.898 2.203 2.16 4.123 3.75 5.708 1.557 1.552 3.471 2.822 5.689 3.777.2.086.41.133.562.167.053.012.098.022.13.031a.215.215 0 00.056.008h.017c1.043 0 2.296-.953 2.68-2.04.337-.95-.278-1.421-.772-1.799zM8.116 3.633c-.179.005-.55.014-.68.392-.062.177-.054.33.021.457.11.185.323.241.516.272.7.113 1.059.5 1.13 1.218.034.335.26.569.55.569a.538.538 0 00.064-.004c.348-.042.517-.298.502-.76.006-.484-.247-1.033-.678-1.47-.431-.438-.952-.685-1.425-.674z"/></symbol></svg>