<svg width="228" height="228" viewBox="0 0 228 228" fill="none" xmlns="http://www.w3.org/2000/svg">
<circle cx="114" cy="114" r="113.5" stroke="#8BA3C3" stroke-dasharray="5 5"/>
<circle cx="114" cy="114" r="83.1" stroke="#8BA3C3" stroke-dasharray="5 5"/>
<path d="M151.868 56.8378C151.168 56.4383 150.307 56.445 149.613 56.8553L108.483 81.1767C107.416 81.8076 107.063 83.1839 107.694 84.2509C108.324 85.3177 109.701 85.6712 110.768 85.0405L140.278 67.5904L85.3108 124.624L57.9719 116.26L93.6504 95.1624C94.7174 94.5313 95.0709 93.155 94.44 92.088C93.8093 91.0212 92.4328 90.6673 91.3658 91.2984L51.3076 114.986C50.5422 115.439 50.116 116.3 50.2213 117.183C50.3265 118.067 50.9431 118.804 51.7933 119.064L84.4427 129.053L98.8467 155.271C98.8617 155.298 98.8772 155.321 98.8931 155.341C99.1335 155.742 99.4938 156.069 99.9431 156.258C100.224 156.377 100.52 156.434 100.813 156.434C101.389 156.434 101.955 156.213 102.383 155.795L118.945 139.608L150.099 149.139C150.314 149.205 150.536 149.238 150.755 149.238C151.23 149.238 151.699 149.087 152.09 148.797C152.663 148.374 153 147.705 153 146.993V58.7873C153 57.9813 152.568 57.2371 151.868 56.8378ZM98.969 130.436C98.7091 130.811 98.5697 131.257 98.5697 131.714V145.443L88.734 127.541L132.258 82.3806L98.969 130.436ZM103.059 148.858V134.748L114.054 138.112L103.059 148.858ZM148.511 143.959L104.409 130.467L148.511 66.8008V143.959Z" fill="#FD8F10"/>
<path d="M74.9891 134.554C74.1124 133.677 72.6917 133.677 71.8148 134.554L50.8627 155.506C49.9862 156.382 49.9862 157.804 50.8627 158.68C51.3012 159.118 51.8756 159.337 52.4499 159.337C53.0243 159.337 53.5986 159.118 54.0369 158.68L74.9891 137.728C75.8655 136.852 75.8655 135.43 74.9891 134.554Z" fill="#FD8F10"/>
<path d="M47.0793 162.464C46.2026 161.588 44.7819 161.588 43.9052 162.464L38.743 167.626C37.8666 168.502 37.8666 169.924 38.743 170.8C39.1814 171.238 39.7557 171.457 40.3301 171.457C40.9044 171.457 41.4788 171.238 41.9171 170.8L47.0793 165.638C47.9557 164.761 47.9557 163.34 47.0793 162.464Z" fill="#FD8F10"/>
<path d="M70.1021 167.494C69.6849 167.076 69.1058 166.836 68.5155 166.836C67.9228 166.836 67.3462 167.076 66.9287 167.494C66.5113 167.911 66.2711 168.488 66.2711 169.08C66.2711 169.671 66.511 170.25 66.9287 170.667C67.3462 171.085 67.9253 171.325 68.5155 171.325C69.1058 171.325 69.6849 171.085 70.1021 170.667C70.5196 170.25 70.76 169.671 70.76 169.08C70.76 168.488 70.5198 167.911 70.1021 167.494Z" fill="#FD8F10"/>
<path d="M86.8011 150.794C85.9251 149.918 84.5044 149.918 83.6271 150.794L72.5293 161.892C71.6528 162.768 71.6528 164.189 72.5293 165.066C72.9676 165.504 73.542 165.723 74.1163 165.723C74.6907 165.723 75.265 165.504 75.7033 165.066L86.8011 153.968C87.6776 153.092 87.6776 151.67 86.8011 150.794Z" fill="#FD8F10"/>
<path d="M125.103 149.942C124.226 149.066 122.805 149.066 121.929 149.942L110.801 161.07C109.924 161.946 109.924 163.368 110.801 164.244C111.239 164.682 111.814 164.902 112.388 164.902C112.962 164.902 113.537 164.682 113.975 164.244L125.103 153.116C125.979 152.24 125.979 150.819 125.103 149.942Z" fill="#FD8F10"/>
<path d="M101.715 87.1366C101.298 86.7192 100.718 86.479 100.128 86.479C99.5379 86.479 98.9589 86.7192 98.5414 87.1366C98.1242 87.5541 97.8838 88.1331 97.8838 88.7257C97.8838 89.316 98.1239 89.8928 98.5414 90.3102C98.9589 90.7299 99.5379 90.9678 100.128 90.9678C100.718 90.9678 101.298 90.7299 101.715 90.3102C102.132 89.8928 102.373 89.316 102.373 88.7257C102.373 88.1331 102.132 87.5541 101.715 87.1366Z" fill="#FD8F10"/>
</svg>
