<svg width="40" height="40" viewBox="0 0 40 40" fill="none" xmlns="http://www.w3.org/2000/svg">
<path d="M40 31.0234C40 35.9844 35.9766 40 31.0234 40H8.97656C4.02344 40 0 35.9766 0 31.0234V8.97656C0 4.02344 4.02344 0 8.97656 0H31.0234C35.9766 0 40 4.02344 40 8.97656V31.0234Z" fill="#5EBEE1"/>
<path d="M29.9314 10.4765L9.08762 18.5937C8.41575 18.8593 8.45481 19.8281 9.15012 20.0312L14.447 21.5937L16.4236 27.8672C16.6267 28.5234 17.4626 28.7187 17.9392 28.2265L20.6814 25.4297L26.0564 29.375C26.7126 29.8593 27.6501 29.5 27.8142 28.7031L31.3689 11.6875C31.5486 10.8593 30.7282 10.164 29.9314 10.4765ZM27.322 14.25L17.6423 22.8125C17.5486 22.8984 17.4861 23.0156 17.4704 23.1406L17.0954 26.4531C17.0798 26.5625 16.9314 26.5781 16.9001 26.4687L15.3689 21.5234C15.2986 21.2968 15.3923 21.0547 15.5954 20.9297L27.0251 13.8359C27.2829 13.6875 27.5564 14.0468 27.322 14.25Z" fill="white"/>
</svg>
