<svg width="40" height="40" viewBox="0 0 40 40" fill="none" xmlns="http://www.w3.org/2000/svg">
<path d="M40 31.0234C40 35.9844 35.9766 40 31.0234 40H8.97656C4.02344 40 0 35.9766 0 31.0234V8.97656C0 4.02344 4.02344 0 8.97656 0H31.0234C35.9766 0 40 4.02344 40 8.97656V31.0234Z" fill="#54205E"/>
<path fill-rule="evenodd" clip-rule="evenodd" d="M25.4926 30.1172C24.7348 30.1406 24.016 29.9687 23.2895 29.7656C18.4223 28.375 14.7816 25.3437 11.8441 21.3281C10.7348 19.8203 9.71134 18.2578 9.36759 16.375C8.96134 14.1328 9.60977 12.2187 11.2816 10.6719C11.8129 10.1719 13.4457 9.96093 14.0941 10.2812C14.3363 10.3984 14.4926 10.6094 14.5863 10.8437C15.2035 12.2969 15.8051 13.7422 16.4066 15.2031C16.5238 15.4766 16.4691 15.7578 16.3441 16.0391C16.0395 16.7109 15.5395 17.25 15.0395 17.7812C14.6566 18.1797 14.641 18.5391 14.9223 19C16.641 21.8516 19.016 23.9375 22.1176 25.1797C22.5785 25.3672 22.9301 25.3047 23.2426 24.9141C23.7582 24.2656 24.3129 23.6406 24.7973 22.9687C25.1332 22.5078 25.516 22.4375 25.9848 22.6484C27.016 23.125 28.0395 23.6094 29.0629 24.0937C29.2973 24.2031 29.5238 24.3203 29.7504 24.4219C30.7973 24.9375 30.7816 24.9453 30.6879 26.0937C30.516 28.3437 28.8285 29.4453 26.8363 30C26.4145 30.125 25.9535 30.1328 25.4926 30.1172Z" fill="white"/>
<path fill-rule="evenodd" clip-rule="evenodd" d="M27.4297 12.7813C28.25 13.5078 28.8281 14.4219 29.2969 15.4063C29.6719 16.1875 29.9062 17.0156 30.0547 17.8672C30.0859 18.0391 30.1641 18.2344 29.9922 18.3828C29.5234 18.4141 29.0625 18.4297 28.5937 18.4844C28.4141 18.5078 28.3594 18.4531 28.3359 18.2735C28.125 16.6641 27.4687 15.2578 26.3594 14.086C24.75 12.375 22.7578 11.5391 20.3984 11.6094C20.3359 11.6094 20.2812 11.6094 20.0937 11.6172C20.0781 11.086 20.0703 10.5625 20.0547 10.0313C20.1562 9.85158 20.3437 9.88283 20.5 9.88283C21.4687 9.85939 22.4297 9.9922 23.3594 10.2735C24.1172 10.5 24.8437 10.8047 25.5234 11.2266C25.7266 11.3594 25.9297 11.5 26.1094 11.6641C26.2656 11.7891 26.5703 12.0547 26.7266 12.1797C26.9062 12.3281 27.2578 12.625 27.4297 12.7813Z" fill="white"/>
<path fill-rule="evenodd" clip-rule="evenodd" d="M25.1555 14.1016C26.4368 15.211 27.2337 16.6172 27.4993 18.3203C27.5305 18.5235 27.4837 18.5938 27.2727 18.6016C26.8587 18.6172 26.4446 18.6563 26.0305 18.7032C25.9055 18.7188 25.8587 18.6953 25.8352 18.5469C25.6165 17.0703 24.8821 15.8985 23.6634 15.0469C22.7649 14.4141 21.7493 14.1016 20.6399 14.1407C20.4602 14.1485 20.4055 14.1094 20.3977 13.9219C20.3743 13.5 20.3352 13.0782 20.2884 12.6563C20.2727 12.5078 20.3118 12.4688 20.4602 12.4688C22.2259 12.4219 23.7805 12.9688 25.1555 14.1016Z" fill="white"/>
<path fill-rule="evenodd" clip-rule="evenodd" d="M23.4144 18.9141C23.2269 17.5391 22.1722 16.586 20.8128 16.5703C20.6878 16.5703 20.6331 16.5547 20.6175 16.4141C20.5863 15.9922 20.5472 15.5703 20.5081 15.1563C20.4925 15.0235 20.516 14.9922 20.6488 14.9844C22.6956 14.8438 24.7816 16.6016 24.9925 18.6485C25.0081 18.7735 24.9613 18.7891 24.8597 18.7969C24.3831 18.8281 23.9066 18.8672 23.4144 18.9141Z" fill="white"/>
</svg>
