<svg width="75" height="14" viewBox="0 0 75 14" fill="none" xmlns="http://www.w3.org/2000/svg">
<path d="M12.0401 3.31336L9.8312 10.5157C9.76898 10.7645 9.59787 10.889 9.31786 10.889H8.12007C7.99563 10.889 7.88155 10.8527 7.77785 10.7801C7.68451 10.6971 7.62748 10.5934 7.60673 10.469L6.36228 5.32005C6.33117 5.17486 6.28969 4.97264 6.23783 4.71338C6.18598 4.44374 6.1445 4.24671 6.11339 4.12226H5.92672L5.66227 5.32005L4.43337 10.469C4.36078 10.749 4.18448 10.889 3.90448 10.889H2.72225C2.44224 10.889 2.27113 10.7645 2.20891 10.5157L0 3.31336H1.3689L2.94003 8.89786C3.03336 9.21934 3.11632 9.59787 3.18892 10.0334H3.39114L3.67114 8.89786L4.93116 3.73337C4.98301 3.45337 5.14894 3.31336 5.42894 3.31336H6.62673C6.88599 3.31336 7.05192 3.45855 7.12451 3.74892L8.36897 8.89786C8.38971 9.01193 8.43119 9.1986 8.49341 9.45786C8.55563 9.70676 8.6023 9.89861 8.63341 10.0334H8.83564C8.84601 9.98157 8.87712 9.82083 8.92897 9.5512C8.99119 9.2712 9.04823 9.05342 9.10008 8.89786L10.6712 3.31336H12.0401Z" fill="white"/>
<path d="M18.158 7.74674H14.6269C14.6994 8.61786 14.912 9.20379 15.2646 9.50453C15.6172 9.80527 16.2032 9.95565 17.0224 9.95565C17.8832 9.95565 18.7595 9.89342 19.6513 9.76898L19.7913 10.6557C19.1173 10.9357 18.1373 11.0757 16.8513 11.0757C15.5446 11.0757 14.6113 10.7749 14.0513 10.1734C13.5017 9.56157 13.2268 8.52971 13.2268 7.07784C13.2268 5.61561 13.4965 4.59412 14.0357 4.01337C14.575 3.42225 15.4669 3.1267 16.7113 3.1267C17.8417 3.1267 18.6661 3.3341 19.1847 3.74892C19.7032 4.15337 19.9625 4.77041 19.9625 5.60005C19.9832 7.03118 19.3817 7.74674 18.158 7.74674ZM14.6113 6.72006H17.8158C18.3654 6.72006 18.6402 6.34672 18.6402 5.60005C18.6298 5.11264 18.4847 4.76523 18.2047 4.55782C17.9247 4.35041 17.4476 4.24671 16.7735 4.24671C15.975 4.24671 15.4202 4.423 15.1091 4.7756C14.798 5.11782 14.632 5.76598 14.6113 6.72006Z" fill="white"/>
<path d="M23.2464 0V2.83114C23.2464 3.55707 23.1997 4.11707 23.1064 4.51115C24.0086 3.58818 24.9835 3.1267 26.0309 3.1267C26.9746 3.1267 27.6642 3.43781 28.0998 4.06004C28.5457 4.67189 28.7687 5.67783 28.7687 7.07784C28.7687 8.44674 28.5198 9.45786 28.022 10.1112C27.5242 10.7542 26.6531 11.0757 25.4086 11.0757C24.1123 11.0757 22.9508 10.8942 21.9242 10.5312V0H23.2464ZM23.2464 5.39783V9.6912C23.9412 9.88824 24.6516 9.97639 25.3775 9.95565C26.1138 9.94528 26.6324 9.73268 26.9331 9.31786C27.2339 8.89267 27.3894 8.146 27.3998 7.07784C27.3894 6.00968 27.2598 5.27857 27.0109 4.88449C26.762 4.48004 26.2798 4.27782 25.5642 4.27782C25.2012 4.27782 24.8486 4.36597 24.5064 4.54226C24.1746 4.71856 23.7546 5.00375 23.2464 5.39783Z" fill="white"/>
<path d="M43.5793 9.78472L43.7193 10.6714C42.9726 10.9307 42.1067 11.0603 41.1215 11.0603C39.8148 11.0603 38.8867 10.7647 38.337 10.1736C37.7978 9.57213 37.5281 8.54027 37.5281 7.07803C37.5281 5.6158 37.7978 4.58912 38.337 3.998C38.8867 3.40689 39.82 3.11133 41.1371 3.11133C42.1326 3.11133 42.9467 3.23059 43.5793 3.46911L43.4082 4.32467C42.7237 4.26245 42.0393 4.23134 41.3548 4.23134C40.4422 4.23134 39.8096 4.43356 39.457 4.83801C39.1044 5.24246 38.9281 5.98913 38.9281 7.07803C38.9281 8.1773 39.1044 8.92916 39.457 9.33361C39.8096 9.73806 40.4422 9.94028 41.3548 9.94028C42.1845 9.94028 42.926 9.88843 43.5793 9.78472Z" fill="#FFBA00"/>
<path d="M48.5952 3.11133C49.9018 3.11133 50.8196 3.41207 51.3485 4.01356C51.8878 4.61505 52.1574 5.64172 52.1574 7.09359C52.1574 8.54545 51.8878 9.57213 51.3485 10.1736C50.8196 10.7751 49.9018 11.0758 48.5952 11.0758C47.2989 11.0758 46.3811 10.7751 45.8418 10.1736C45.3025 9.57213 45.0329 8.54545 45.0329 7.09359C45.0329 5.64172 45.3025 4.61505 45.8418 4.01356C46.3811 3.41207 47.2989 3.11133 48.5952 3.11133ZM50.3063 4.83801C49.9952 4.43356 49.4248 4.23134 48.5952 4.23134C47.7655 4.23134 47.1951 4.43356 46.884 4.83801C46.5729 5.24246 46.4174 5.99432 46.4174 7.09359C46.4174 8.19286 46.5729 8.94471 46.884 9.34916C47.1951 9.75361 47.7655 9.95583 48.5952 9.95583C49.4248 9.95583 49.9952 9.75361 50.3063 9.34916C50.6278 8.94471 50.7885 8.19286 50.7885 7.09359C50.7885 5.99432 50.6278 5.24246 50.3063 4.83801Z" fill="#FFBA00"/>
<path d="M55.3208 3.298L55.3986 4.49578C56.4668 3.57281 57.4986 3.11133 58.4942 3.11133C59.552 3.11133 60.1897 3.55726 60.4075 4.44912C61.4342 3.55726 62.4505 3.11133 63.4564 3.11133C64.1098 3.11133 64.6076 3.28763 64.9498 3.64022C65.3024 3.99282 65.4787 4.51134 65.4787 5.19579V10.8736H64.172V5.56913C64.1616 5.10246 64.0631 4.76542 63.8764 4.55801C63.7001 4.34023 63.4046 4.23134 62.9898 4.23134C62.6268 4.23134 62.2742 4.3143 61.932 4.48023C61.6001 4.64616 61.1231 4.95727 60.5009 5.41357V10.8736H59.2253V5.56913C59.2253 5.09209 59.1268 4.74986 58.9297 4.54245C58.7431 4.33504 58.4475 4.23134 58.0431 4.23134C57.6801 4.23134 57.3275 4.3143 56.9853 4.48023C56.6534 4.64616 56.1764 4.95209 55.5541 5.39802V10.8736H54.2319V3.298H55.3208Z" fill="#FFBA00"/>
<path d="M68.9472 3.298L69.0561 4.51134C69.4606 4.07578 69.948 3.73356 70.5184 3.48466C71.0887 3.23577 71.6488 3.11133 72.1984 3.11133C73.1006 3.11133 73.7591 3.44318 74.174 4.10689C74.5888 4.7706 74.7962 5.77654 74.7962 7.1247C74.7962 8.55582 74.568 9.57213 74.1117 10.1736C73.6554 10.7647 72.9295 11.0603 71.9339 11.0603C70.9384 11.0603 70.005 10.801 69.1339 10.2825C69.165 10.6351 69.1806 11.1433 69.1806 11.807V14.0003H67.8583V3.298H68.9472ZM69.1806 5.42913V9.4425C70.2384 9.75361 71.0473 9.90917 71.6073 9.90917C72.2917 9.90917 72.7688 9.71731 73.0384 9.33361C73.308 8.9499 73.4428 8.2136 73.4428 7.1247C73.4428 6.06691 73.3132 5.32542 73.0539 4.90023C72.8051 4.47504 72.3747 4.26245 71.7628 4.26245C71.3687 4.26245 70.9747 4.35578 70.5806 4.54245C70.1969 4.71875 69.7302 5.01431 69.1806 5.42913Z" fill="#FFBA00"/>
<path d="M31.9446 11.1387H34.3613V13.5554H31.9446V11.1387Z" stroke="white" stroke-width="0.5"/>
</svg>
