<svg width="18" height="10" viewBox="0 0 18 10" fill="none" xmlns="http://www.w3.org/2000/svg">
<path d="M0.448433 1.74435C0.641649 2.2487 0.879806 2.73502 1.12562 3.21535C1.70971 4.35658 2.31121 5.46552 3.11767 6.46858C3.93267 7.48224 4.89488 8.46458 6.02836 9.12031C6.3436 9.30268 6.675 9.45655 7.02021 9.57351C8.35211 10.0247 9.81293 9.9817 10.264 9.68093C10.7152 9.38017 10.1781 7.40375 10.5863 7.16745C10.9945 6.93112 11.7249 7.44673 12.2619 7.91936C12.799 8.39196 13.2072 8.80012 13.5079 9.12236C13.6963 9.32416 13.8289 9.56501 14.0744 9.70894C14.4806 9.94697 15.0217 9.9206 15.4748 9.92185C15.7274 9.92258 15.98 9.92343 16.2326 9.92027C16.4033 9.91816 16.574 9.92368 16.7446 9.91543C17.0249 9.90183 17.3915 9.79117 17.3705 9.44049C17.3655 9.35759 17.3471 9.25842 17.3142 9.18188C17.2434 9.0174 17.1436 8.84672 17.0364 8.70344C16.4779 7.95692 16.1073 7.57561 15.8281 7.27482C15.5488 6.9741 14.3994 5.88919 14.3243 5.67439C14.2491 5.45954 14.2249 5.36424 14.4384 5.07422C14.6519 4.78417 15.1191 4.05243 15.4844 3.52613C15.7134 3.19603 15.9215 2.85088 16.127 2.50587C16.3694 2.09912 16.5974 1.6825 16.7916 1.2505C16.8785 1.05733 16.9573 0.881354 16.9035 0.664902C16.8675 0.51989 16.7859 0.392493 16.6341 0.356711C16.5512 0.337188 16.4607 0.335205 16.3759 0.335205C16.059 0.335205 15.2319 0.335205 15.2319 0.335205C15.0824 0.335205 14.9329 0.333023 14.7833 0.333299C14.63 0.333575 14.4755 0.33237 14.3226 0.345468C14.1052 0.364087 13.9719 0.531784 13.8625 0.700861C13.7287 0.907753 13.6069 1.123 13.4771 1.3325C13.3883 1.47566 13.3015 1.61994 13.2162 1.76518C13.0829 1.99202 12.9456 2.21643 12.8083 2.44086C12.7513 2.53395 12.6941 2.62695 12.6379 2.72054C12.4768 2.98901 11.0804 4.8258 10.8012 4.90102C10.5219 4.97625 10.4252 4.95477 10.4252 4.38544C10.4252 3.81615 10.4252 0.583024 10.4252 0.583024C10.4252 0.583024 10.4038 0.333725 10.1675 0.333725C9.93116 0.333725 8.83508 0.333725 8.83508 0.333725H6.57445C6.57445 0.333725 6.04278 0.335933 6.23076 0.813955C6.41873 1.29195 6.97461 1.43696 6.97461 2.23449C6.97461 3.032 6.97461 5.3602 6.97461 5.3602C6.97461 5.3602 6.88064 6.06107 6.27374 5.48102C5.79549 5.02395 5.40146 4.48355 5.05329 3.92323C4.6913 3.34069 4.39967 2.7355 4.13991 2.10143C4.06561 1.92008 3.99204 1.73843 3.91573 1.55794C3.83608 1.36951 3.75717 1.18076 3.68078 0.991011C3.59208 0.770594 3.49718 0.482502 3.25799 0.381026C3.13775 0.330012 3.00475 0.332521 2.87658 0.332546C2.40124 0.332671 1.92593 0.334001 1.45062 0.333098C1.31115 0.332847 1.17169 0.332696 1.03222 0.333048C0.702926 0.333825 0.293359 0.324114 0.215244 0.735489C0.170228 0.972442 0.259709 1.22538 0.334612 1.4473C0.368563 1.5482 0.410443 1.64516 0.448433 1.74435Z" fill="#8BA3C3"/>
</svg>
