<svg width="40" height="40" viewBox="0 0 40 40" fill="none" xmlns="http://www.w3.org/2000/svg">
<path d="M40 31.0234C40 35.9844 35.9766 40 31.0234 40H8.97656C4.02344 40 0 35.9766 0 31.0234V8.97656C0 4.02344 4.02344 0 8.97656 0H31.0234C35.9766 0 40 4.02344 40 8.97656V31.0234Z" fill="#678AAF"/>
<path d="M19.7287 27.2968H21.2677C21.2677 27.2968 21.7365 27.2421 21.9708 26.9921C22.1896 26.7578 22.1818 26.3125 22.1818 26.3125C22.1818 26.3125 22.1505 24.2421 23.1115 23.9375C24.0568 23.6328 25.2755 25.9375 26.5646 26.8203C27.5412 27.4921 28.2833 27.3437 28.2833 27.3437L31.7287 27.2968C31.7287 27.2968 33.5333 27.1875 32.674 25.7656C32.6037 25.6484 32.174 24.7187 30.1115 22.8046C27.9552 20.8046 28.2443 21.125 30.8458 17.6562C32.4318 15.5468 33.0646 14.2578 32.8693 13.7031C32.6818 13.1796 31.5177 13.3203 31.5177 13.3203L27.6349 13.3437C27.6349 13.3437 27.3458 13.3046 27.1349 13.4296C26.924 13.5546 26.7912 13.8437 26.7912 13.8437C26.7912 13.8437 26.174 15.4765 25.3537 16.8671C23.6271 19.8046 22.9396 19.9531 22.6505 19.7734C21.9943 19.3437 22.1583 18.0703 22.1583 17.1562C22.1583 14.3125 22.588 13.1328 21.3146 12.8203C20.8927 12.7187 20.5802 12.6484 19.5021 12.6406C18.1193 12.625 16.9474 12.6484 16.2833 12.9687C15.8458 13.1875 15.5021 13.664 15.7052 13.6953C15.963 13.7265 16.5412 13.8515 16.8537 14.2734C17.2521 14.8125 17.2365 16.0312 17.2365 16.0312C17.2365 16.0312 17.463 19.375 16.7052 19.7968C16.1818 20.0859 15.463 19.5 13.924 16.8359C13.1349 15.4765 12.5412 13.9687 12.5412 13.9687C12.5412 13.9687 12.424 13.6875 12.2208 13.539C11.9708 13.3593 11.6271 13.2968 11.6271 13.2968L7.93959 13.3203C7.93959 13.3203 7.3849 13.3359 7.18178 13.5781C7.00209 13.789 7.16615 14.2343 7.16615 14.2343C7.16615 14.2343 10.049 20.9843 13.3224 24.3906C16.3224 27.5 19.7287 27.2968 19.7287 27.2968Z" fill="white"/>
</svg>
