<svg width="14" height="14" viewBox="0 0 14 14" fill="none" xmlns="http://www.w3.org/2000/svg">
<path d="M11.9769 5.8751C11.9937 3.90127 10.3126 2.09179 8.22941 1.84158C8.18798 1.83666 8.14285 1.82919 8.09506 1.82127C7.99193 1.80419 7.88528 1.78662 7.77767 1.78662C7.35072 1.78662 7.23659 2.08653 7.20654 2.2654C7.17733 2.43932 7.20519 2.58536 7.28924 2.69966C7.43063 2.89192 7.67941 2.92606 7.87924 2.9534C7.9378 2.96149 7.99306 2.96901 8.03933 2.9794C9.91098 3.39762 10.5412 4.05514 10.8492 5.91088C10.8567 5.95623 10.8601 6.0121 10.8637 6.07136C10.8772 6.29318 10.9052 6.75471 11.4013 6.75471H11.4014C11.4427 6.75471 11.4871 6.75114 11.5333 6.7441C11.9953 6.67388 11.9808 6.25201 11.9739 6.04931C11.9719 5.99223 11.9701 5.93823 11.9749 5.90231C11.9762 5.89327 11.9768 5.88418 11.9769 5.8751Z" fill="#8BA3C3"/>
<path d="M7.65646 1.11687C7.7119 1.12087 7.76437 1.1247 7.80807 1.13139C10.8815 1.60404 12.2949 3.06022 12.6866 6.1577C12.6933 6.21035 12.6943 6.27457 12.6954 6.34257C12.6993 6.58457 12.7074 7.088 13.248 7.09844L13.2648 7.09861C13.4344 7.09861 13.5693 7.04748 13.6657 6.94652C13.834 6.77048 13.8223 6.50896 13.8128 6.29878C13.8105 6.24722 13.8083 6.19865 13.8089 6.15613C13.8479 2.98822 11.1058 0.115565 7.94068 0.00873913C7.92755 0.00830435 7.91503 0.009 7.90237 0.0107826C7.89616 0.0116957 7.88464 0.0128261 7.8649 0.0128261C7.83333 0.0128261 7.7945 0.010087 7.75333 0.00730435C7.70355 0.00391304 7.64711 0 7.5899 0C7.08585 0 6.99002 0.358261 6.97776 0.571826C6.9495 1.06539 7.42698 1.10013 7.65646 1.11687Z" fill="#8BA3C3"/>
<path d="M12.5376 10.161C12.4722 10.1111 12.4046 10.0595 12.3414 10.0085C12.0058 9.73846 11.6488 9.48954 11.3036 9.24881C11.2319 9.19889 11.1603 9.14894 11.0889 9.09885C10.6466 8.7882 10.249 8.63724 9.87334 8.63724C9.36738 8.63724 8.92625 8.9168 8.56216 9.46807C8.40086 9.71246 8.20516 9.83128 7.96399 9.83128C7.82138 9.83128 7.65934 9.79059 7.48243 9.71028C6.0549 9.06293 5.03556 8.07041 4.45264 6.76028C4.17086 6.12707 4.26221 5.71315 4.75812 5.37628C5.03973 5.18515 5.5639 4.82933 5.52677 4.14794C5.48473 3.37415 3.77743 1.04594 3.05808 0.7815C2.75351 0.6695 2.43351 0.668457 2.10525 0.778892C1.2783 1.05689 0.68486 1.54511 0.388947 2.19067C0.102991 2.81446 0.115904 3.54689 0.426295 4.3088C1.3236 6.51167 2.58516 8.43228 4.17608 10.0172C5.7333 11.5687 7.64725 12.8395 9.86473 13.7944C10.0646 13.8804 10.2743 13.9273 10.4273 13.9615C10.4795 13.9732 10.5246 13.9832 10.5574 13.9922C10.5754 13.9972 10.594 13.9998 10.6127 14L10.6302 14.0001C10.6303 14.0001 10.6302 14.0001 10.6303 14.0001C11.6733 14.0001 12.9256 13.047 13.3102 11.9605C13.6471 11.0091 13.0319 10.5388 12.5376 10.161Z" fill="#8BA3C3"/>
<path d="M8.11597 3.63319C7.9374 3.63771 7.5658 3.64693 7.4354 4.02541C7.3744 4.20228 7.38171 4.35584 7.45714 4.48184C7.56784 4.66671 7.77993 4.72337 7.97284 4.75445C8.67245 4.86671 9.03175 5.25358 9.10362 5.97184C9.13701 6.30676 9.36254 6.54063 9.6521 6.54063H9.65214C9.67354 6.54063 9.6954 6.53937 9.71719 6.53671C10.0654 6.49528 10.2343 6.23941 10.219 5.77628C10.2246 5.29293 9.97162 4.74419 9.5414 4.30711C9.10971 3.86867 8.58932 3.62176 8.11597 3.63319Z" fill="#8BA3C3"/>
</svg>
