<svg width="18" height="18" viewBox="0 0 18 18" fill="none" xmlns="http://www.w3.org/2000/svg">
<path d="M15.3982 17.5332H12.1982V15.3999H15.3982V12.1999H17.5315V15.3999C17.5315 15.9657 17.3067 16.5083 16.9066 16.9084C16.5066 17.3085 15.964 17.5332 15.3982 17.5332ZM15.3982 2.59989H12.1982V0.466553H15.3982C15.964 0.466553 16.5066 0.691312 16.9066 1.09139C17.3067 1.49147 17.5315 2.03409 17.5315 2.59989V5.79989H15.3982V2.59989ZM13.2648 5.79989V12.1999C13.2648 12.4828 13.1524 12.7541 12.9524 12.9541C12.7524 13.1542 12.4811 13.2666 12.1982 13.2666H5.79818C5.51528 13.2666 5.24398 13.1542 5.04395 12.9541C4.84391 12.7541 4.73151 12.4828 4.73151 12.1999V5.79989C4.73151 5.51699 4.84391 5.24568 5.04395 5.04564C5.24398 4.8456 5.51528 4.73322 5.79818 4.73322H12.1982C12.4811 4.73322 12.7524 4.8456 12.9524 5.04564C13.1524 5.24568 13.2648 5.51699 13.2648 5.79989ZM11.1315 6.86655H6.86484V11.1332H11.1315V6.86655ZM2.59818 5.79989H0.464844V2.59989C0.464844 2.03409 0.689636 1.49147 1.08971 1.09139C1.48979 0.691312 2.03238 0.466553 2.59818 0.466553H5.79818V2.59989H2.59818V5.79989ZM2.59818 15.3999H5.79818V17.5332H2.59818C2.03238 17.5332 1.48979 17.3085 1.08971 16.9084C0.689636 16.5083 0.464844 15.9657 0.464844 15.3999V12.1999H2.59818V15.3999Z" fill="white"/>
</svg>
