<svg xmlns="http://www.w3.org/2000/svg" width="92" height="92" viewBox="0 0 92 92">
    <defs>
        <clipPath id="n72ea">
            <path fill="#fff" d="M11.99 14.023a1.763 1.763 0 1 1 3.52-.152l4.15 48.017a3.842 3.842 0 0 1-7.67.33z"/>
        </clipPath>
        <clipPath id="n72eb">
            <path fill="#fff" d="M80.245 14.028a1.763 1.763 0 1 0-3.52-.152l-4.149 48.016a3.842 3.842 0 0 0 7.67.33z"/>
        </clipPath>
    </defs>
    <g>
        <g>
            <path fill="#fff" d="M92 46c0 25.405-20.595 46-46 46S0 71.405 0 46 20.595 0 46 0s46 20.595 46 46z"/>
        </g>
        <g>
            <g>
                <g>
                    <path fill="#5ca2e3"
                          d="M11.99 14.023a1.763 1.763 0 1 1 3.52-.152l4.15 48.017a3.842 3.842 0 0 1-7.67.33z"/>
                    <path fill="none" stroke="#155a9a" stroke-miterlimit="20" stroke-width="3"
                          d="M11.99 14.023c0-.973.79-1.763 1.763-1.763v0c.915 0 1.678.7 1.757 1.612l4.15 48.016a3.842 3.842 0 0 1-3.828 4.172v0a3.842 3.842 0 0 1-3.842-3.842z"
                          clip-path="url(&quot;#n72ea&quot;)"/>
                </g>
                <g>
                    <path fill="#5ca2e3"
                          d="M80.245 14.028a1.763 1.763 0 1 0-3.52-.152l-4.149 48.016a3.842 3.842 0 0 0 7.67.33z"/>
                    <path fill="none" stroke="#155a9a" stroke-miterlimit="20" stroke-width="3"
                          d="M80.245 14.028c0-.974-.79-1.764-1.763-1.764v0c-.915 0-1.678.7-1.757 1.612l-4.149 48.016a3.842 3.842 0 0 0 3.828 4.173v0a3.842 3.842 0 0 0 3.841-3.842z"
                          clip-path="url(&quot;#n72eb&quot;)"/>
                </g>
                <g>
                    <g>
                        <path fill="#5ca2e3"
                              d="M77.345 68.118v8.431c0 1.16-.892 2.108-1.982 2.108h-58.48c-1.09 0-1.983-.948-1.983-2.108v-8.431c0-.938.585-1.75 1.398-2.013.178-.063.376-.095.584-.095h58.48c1.09 0 1.983.949 1.983 2.108z"/>
                    </g>
                    <g>
                        <path fill="#d7e9ff"
                              d="M16.882 76.55v-8.432c0-.938.585-1.75 1.398-2.013.178-.063.377-.095.585-.095h-1.983c-.208 0-.406.032-.584.095-.813.263-1.398 1.075-1.398 2.013v8.431c0 1.16.893 2.108 1.982 2.108h1.983c-1.09 0-1.983-.948-1.983-2.108z"/>
                    </g>
                    <g>
                        <path fill="#4487c6"
                              d="M75.362 68.118v8.431c0 .939-.584 1.75-1.397 2.013a1.738 1.738 0 0 1-.585.095h1.982c.209 0 .407-.03.585-.095.813-.263 1.398-1.074 1.398-2.013v-8.431c0-1.16-.893-2.108-1.983-2.108H73.38c1.09 0 1.982.949 1.982 2.108z"/>
                    </g>
                    <g>
                        <g>
                            <path fill="#fff"
                                  d="M57.521 71.28c.545 0 .991.474.991 1.054 0 .58-.446 1.054-.99 1.054-.546 0-.992-.475-.992-1.054 0-.58.446-1.054.991-1.054z"/>
                        </g>
                        <g>
                            <path fill="#fff"
                                  d="M51.571 71.28c.545 0 .991.474.991 1.054 0 .58-.446 1.054-.99 1.054-.546 0-.992-.475-.992-1.054 0-.58.446-1.054.991-1.054z"/>
                        </g>
                    </g>
                    <g>
                        <g>
                            <path fill="#94c1ff"
                                  d="M45.621 71.28c.545 0 .991.474.991 1.054 0 .58-.446 1.054-.99 1.054-.546 0-.992-.475-.992-1.054 0-.58.446-1.054.991-1.054z"/>
                        </g>
                        <g>
                            <path fill="#94c1ff"
                                  d="M39.681 71.28c.545 0 .991.474.991 1.054 0 .58-.446 1.054-.99 1.054-.546 0-.992-.475-.992-1.054 0-.58.446-1.054.991-1.054z"/>
                        </g>
                        <g>
                            <path fill="#94c1ff"
                                  d="M33.731 71.28c.545 0 .991.474.991 1.054 0 .58-.446 1.054-.99 1.054-.546 0-.992-.475-.992-1.054 0-.58.446-1.054.991-1.054z"/>
                        </g>
                    </g>
                    <g>
                        <path fill="#d7e9ff"
                              d="M20.842 70.22c1.09 0 1.983.949 1.983 2.108 0 1.16-.893 2.108-1.983 2.108-1.1 0-1.982-.948-1.982-2.108 0-1.16.882-2.108 1.982-2.108z"/>
                    </g>
                    <g>
                        <path fill="#fff"
                              d="M19.851 72.328c0-.977.63-1.797 1.485-2.033a1.829 1.829 0 0 0-.494-.075c-1.1 0-1.982.949-1.982 2.108 0 1.16.882 2.108 1.982 2.108.172 0 .335-.031.494-.074-.856-.237-1.485-1.056-1.485-2.034z"/>
                    </g>
                    <g>
                        <path fill="#94c1ff"
                              d="M21.835 72.328c0 .978-.63 1.797-1.485 2.034.159.043.322.074.494.074 1.1 0 1.982-.948 1.982-2.108 0-1.16-.882-2.108-1.982-2.108-.172 0-.335.03-.494.075.856.236 1.485 1.056 1.485 2.033z"/>
                    </g>
                    <g>
                        <path fill="#5ca2e3" d="M73.377 70.22v4.216H67.43V70.22z"/>
                    </g>
                    <g>
                        <path fill="#4487c6"
                              d="M17.096 66.01l7.079-9.486c.634-1.054 1.566-1.054 2.616-1.054h-1.982c-1.05 0-1.983 0-2.617 1.054l-6.304 8.431-.538 1.83c.178-.064 1.321-.776 1.53-.776z"/>
                    </g>
                    <g>
                        <path fill="#4487c6"
                              d="M75.145 66.01l-7.079-9.486c-.634-1.054-1.566-1.054-2.616-1.054h1.982c1.05 0 1.983 0 2.617 1.054l6.304 8.431.538 1.83c-.178-.064-1.321-.776-1.53-.776z"/>
                    </g>
                    <g>
                        <g>
                            <path fill="#155a9a"
                                  d="M16.878 79.181c-1.367 0-2.478-1.182-2.478-2.635v-8.431c0-1.149.72-2.183 1.749-2.518.215-.076.465-.117.729-.117h58.48c1.367 0 2.478 1.183 2.478 2.635v8.431c0 1.453-1.111 2.635-2.478 2.635zm0-12.647c-.158 0-.301.023-.428.068-.628.204-1.059.824-1.059 1.513v8.431c0 .872.667 1.581 1.487 1.581h58.48c.82 0 1.487-.71 1.487-1.58v-8.432c0-.872-.667-1.581-1.487-1.581z"/>
                        </g>
                        <g>
                            <path fill="#155a9a"
                                  d="M15.886 65.484a.477.477 0 0 1-.309-.114.55.55 0 0 1-.08-.74l6.305-8.431a.478.478 0 0 1 .697-.086.55.55 0 0 1 .08.742l-6.305 8.43a.485.485 0 0 1-.388.2z"/>
                        </g>
                        <g>
                            <path fill="#155a9a"
                                  d="M76.35 65.485a.485.485 0 0 1-.388-.2l-6.304-8.43a.55.55 0 0 1 .08-.742.478.478 0 0 1 .696.086l6.304 8.431a.55.55 0 0 1-.08.74.476.476 0 0 1-.308.115z"/>
                        </g>
                        <g>
                            <path fill="#155a9a"
                                  d="M67.427 55.994H24.806c-.274 0-.496-.236-.496-.527 0-.291.222-.527.496-.527h42.62c.274 0 .496.236.496.527 0 .291-.221.527-.495.527z"/>
                        </g>
                        <g>
                            <path fill="#155a9a"
                                  d="M22.196 57.048a.478.478 0 0 1-.267-.082.548.548 0 0 1-.15-.73c.78-1.296 1.925-1.296 3.033-1.296.274 0 .496.236.496.527 0 .291-.222.527-.496.527-1.093 0-1.734.038-2.2.811a.487.487 0 0 1-.416.243z"/>
                        </g>
                        <g>
                            <path fill="#155a9a"
                                  d="M70.042 57.048a.487.487 0 0 1-.417-.243c-.466-.773-1.107-.811-2.2-.811-.273 0-.495-.236-.495-.527 0-.291.222-.527.496-.527 1.108 0 2.253 0 3.033 1.297a.548.548 0 0 1-.15.729.478.478 0 0 1-.267.082z"/>
                        </g>
                        <g>
                            <path fill="#155a9a"
                                  d="M20.848 74.97c-1.367 0-2.478-1.182-2.478-2.635 0-1.452 1.111-2.635 2.478-2.635 1.367 0 2.478 1.183 2.478 2.635 0 1.453-1.111 2.635-2.478 2.635zm0-4.216c-.82 0-1.487.709-1.487 1.58 0 .873.667 1.582 1.487 1.582.82 0 1.487-.71 1.487-1.581 0-.872-.667-1.581-1.487-1.581z"/>
                        </g>
                        <g>
                            <path fill="#155a9a"
                                  d="M67.426 74.97c-.274 0-.496-.236-.496-.527v-4.216c0-.291.222-.527.496-.527h5.947c.274 0 .495.236.495.527v4.216c0 .291-.221.527-.495.527zm.495-1.054h4.956v-3.162h-4.956z"/>
                        </g>
                        <g>
                            <path fill="#155a9a"
                                  d="M33.727 73.912c-.82 0-1.487-.71-1.487-1.581 0-.872.667-1.581 1.487-1.581.82 0 1.487.71 1.487 1.58 0 .873-.667 1.582-1.487 1.582zm0-2.108c-.273 0-.496.237-.496.527 0 .291.223.527.496.527s.495-.236.495-.527c0-.29-.222-.527-.495-.527z"/>
                        </g>
                        <g>
                            <path fill="#155a9a"
                                  d="M39.677 73.912c-.82 0-1.487-.71-1.487-1.581 0-.872.667-1.581 1.487-1.581.82 0 1.487.71 1.487 1.58 0 .873-.667 1.582-1.487 1.582zm0-2.108c-.273 0-.496.237-.496.527 0 .291.223.527.496.527s.495-.236.495-.527c0-.29-.222-.527-.495-.527z"/>
                        </g>
                        <g>
                            <path fill="#155a9a"
                                  d="M45.627 73.912c-.82 0-1.487-.71-1.487-1.581 0-.872.667-1.581 1.487-1.581.82 0 1.487.71 1.487 1.58 0 .873-.667 1.582-1.487 1.582zm0-2.108c-.273 0-.496.237-.496.527 0 .291.223.527.496.527s.495-.236.495-.527c0-.29-.222-.527-.495-.527z"/>
                        </g>
                        <g>
                            <path fill="#155a9a"
                                  d="M51.567 73.912c-.82 0-1.487-.71-1.487-1.581 0-.872.667-1.581 1.487-1.581.82 0 1.487.71 1.487 1.58 0 .873-.667 1.582-1.487 1.582zm0-2.108c-.273 0-.496.237-.496.527 0 .291.223.527.496.527s.495-.236.495-.527c0-.29-.222-.527-.495-.527z"/>
                        </g>
                        <g>
                            <path fill="#155a9a"
                                  d="M57.517 73.912c-.82 0-1.487-.71-1.487-1.581 0-.872.667-1.581 1.487-1.581.82 0 1.487.71 1.487 1.58 0 .873-.667 1.582-1.487 1.582zm0-2.108c-.273 0-.496.237-.496.527 0 .291.223.527.496.527s.495-.236.495-.527c0-.29-.222-.527-.495-.527z"/>
                        </g>
                    </g>
                    <g>
                        <path fill="#bbdeff" d="M24.47 55.88h43.307l7.624 9.729H17.15z"/>
                    </g>
                </g>
                <g>
                    <g>
                        <path fill="#bbdeff"
                              d="M41.496 39.169a2.238 2.238 0 1 0 3.164 3.165 2.223 2.223 0 0 1 1.574-.658c.796 0 1.328.412 1.573.658a2.238 2.238 0 1 0 3.165-3.165c-.735-.735-2.328-1.969-4.738-1.969-2.41 0-4.003 1.234-4.738 1.969z"/>
                    </g>
                    <g>
                        <path fill="#bbdeff"
                              d="M63.646 29.684c.875-.873.875-2.29.002-3.165-4.65-4.655-10.832-7.219-17.407-7.219-6.574 0-12.756 2.564-17.406 7.22A2.238 2.238 0 0 0 32 29.682a19.997 19.997 0 0 1 14.24-5.907 19.997 19.997 0 0 1 14.24 5.907c.873.874 2.29.876 3.165.002z"/>
                    </g>
                    <g>
                        <path fill="#bbdeff"
                              d="M57.312 36.008a2.238 2.238 0 0 0 0-3.165 15.56 15.56 0 0 0-11.073-4.593 15.56 15.56 0 0 0-11.073 4.593 2.238 2.238 0 1 0 3.164 3.165 11.114 11.114 0 0 1 7.909-3.282c2.983 0 5.792 1.166 7.908 3.282a2.238 2.238 0 0 0 3.165 0z"/>
                    </g>
                </g>
            </g>
        </g>
    </g>
</svg>