<svg xmlns="http://www.w3.org/2000/svg" width="92" height="92" viewBox="0 0 92 92"><g><g><path fill="#fff" d="M92 46c0 25.405-20.595 46-46 46S0 71.405 0 46 20.595 0 46 0s46 20.595 46 46z"/></g><g><g><g><path fill="#5ca2e3" d="M10.246 65.79H5.98v2.844h4.266z"/></g><g><path fill="#5ca2e3" d="M87.026 65.79H82.76v2.844h4.266z"/></g></g><g><path fill="#bbdeff" d="M85.604 43.036c0-.783.64-1.422 1.422-1.422.781 0 1.421.639 1.421 1.422 0 .795-.64 1.421-1.421 1.421a1.417 1.417 0 0 1-1.422-1.421zm1.422-4.266a4.269 4.269 0 0 0-4.266 4.266v22.75h4.266V47.3a4.26 4.26 0 0 0 4.265-4.265c0-1.65-.938-3.087-2.317-3.798a4.28 4.28 0 0 0-1.948-.468z"/></g><g><g><path fill="#5ca2e3" d="M87.022 41.62c.782 0 1.422.639 1.422 1.422 0 .796-.64 1.422-1.422 1.422a1.417 1.417 0 0 1-1.422-1.422c0-.783.64-1.422 1.422-1.422z"/></g><g><path fill="#5ca2e3" d="M5.972 41.62c.782 0 1.422.639 1.422 1.422 0 .796-.64 1.422-1.422 1.422a1.417 1.417 0 0 1-1.422-1.422c0-.783.64-1.422 1.422-1.422z"/></g></g><g><path fill="#bbdeff" d="M4.027 39.238a4.269 4.269 0 0 1 6.214 3.798v22.75H5.976V47.3a4.26 4.26 0 0 1-4.266-4.265c0-1.65.939-3.087 2.317-3.798zm3.37 3.798c0-.783-.64-1.422-1.421-1.422-.782 0-1.422.639-1.422 1.422 0 .795.64 1.421 1.422 1.421.781 0 1.421-.626 1.421-1.421z"/></g><g><path fill="#d7e9ff" d="M3.132 43.036c0-1.65.938-3.087 2.317-3.798.397-.203.84-.32 1.299-.39a4.28 4.28 0 0 0-.772-.078 4.28 4.28 0 0 0-1.949.468 4.272 4.272 0 0 0-2.317 3.798A4.26 4.26 0 0 0 5.976 47.3V68.63h1.421V47.301a4.26 4.26 0 0 1-4.265-4.265z"/></g><g><path fill="#5ca2e3" d="M89.866 43.036c0-1.65-.939-3.087-2.318-3.798-.397-.203-.84-.32-1.298-.39a4.29 4.29 0 0 1 .772-.078c.697 0 1.365.17 1.948.468a4.272 4.272 0 0 1 2.317 3.798 4.26 4.26 0 0 1-4.265 4.265V68.63H85.6V47.301a4.26 4.26 0 0 0 4.266-4.265z"/></g><g><g><path fill="#965353" d="M5.978 38.774c-.697 0-1.365.17-1.948.468l4.593-2.8c.085-.058.185-.115.284-.172a3.009 3.009 0 0 1 1.337-.34 2.851 2.851 0 0 1 2.844 2.844v5.687l-2.56 2.573-.284.27V43.04a4.269 4.269 0 0 0-4.266-4.265z"/></g><g><path fill="#965353" d="M79.91 44.461v-5.687a2.852 2.852 0 0 1 2.844-2.844 3.003 3.003 0 0 1 1.622.511l4.591 2.8a4.269 4.269 0 0 0-6.214 3.798v4.266l-.284-.27z"/></g></g><g><g><path fill="#5ca2e3" d="M5.978 38.774c-.697 0-1.365.17-1.948.468l4.593-2.8c.085-.058.185-.115.284-.172a3.009 3.009 0 0 1 1.337-.34 2.851 2.851 0 0 1 2.844 2.844v5.687l-2.56 2.573-.284.27V43.04a4.269 4.269 0 0 0-4.266-4.265z"/></g><g><path fill="#5ca2e3" d="M79.91 44.461v-5.687a2.852 2.852 0 0 1 2.844-2.844 3.003 3.003 0 0 1 1.622.511l4.591 2.8a4.269 4.269 0 0 0-6.214 3.798v4.266l-.284-.27z"/></g></g><g><g><path fill="#ed5565" d="M79.914 44.46l2.559 2.573-3.98-1.151s-4.266-1.422-14.93-1.422-14.93 1.422-14.93 1.422l-2.133.568V21.71h36.258c.781 0 1.422.639 1.422 1.422v12.797h-1.422a2.852 2.852 0 0 0-2.844 2.843z"/></g><g><path fill="#ed5565" d="M46.498 21.71v24.74l-2.133-.568s-4.266-1.422-14.93-1.422-14.93 1.422-14.93 1.422l-3.98 1.151 2.559-2.573v-5.688a2.851 2.851 0 0 0-2.844-2.843V23.132c0-.783.64-1.422 1.422-1.422z"/></g></g><g><g><path fill="#bbdeff" d="M79.914 44.46l2.559 2.573-3.98-1.151s-4.266-1.422-14.93-1.422-14.93 1.422-14.93 1.422l-2.133.568V21.71h36.258c.781 0 1.422.639 1.422 1.422v12.797h-1.422a2.852 2.852 0 0 0-2.844 2.843z"/></g><g><path fill="#bbdeff" d="M46.498 21.71v24.74l-2.133-.568s-4.266-1.422-14.93-1.422-14.93 1.422-14.93 1.422l-3.98 1.151 2.559-2.573v-5.688a2.851 2.851 0 0 0-2.844-2.843V23.132c0-.783.64-1.422 1.422-1.422z"/></g></g><g><g><path fill="#d7e9ff" d="M82.755 21.71H11.663c-.782 0-1.422.639-1.422 1.422v1.422c0-.783.64-1.422 1.422-1.422h71.094c.781 0 1.421.639 1.421 1.422v-1.422c0-.783-.64-1.422-1.422-1.422z"/></g><g><path fill="#d7e9ff" d="M46.498 47.304v1.422H10.24v-1.422l.285-.27 3.98-1.152s4.266-1.422 14.93-1.422 14.93 1.422 14.93 1.422l2.133.568v.854z"/></g></g><g><path fill="#fff" d="M44.365 45.882s-4.266-1.422-14.93-1.422-14.93 1.422-14.93 1.422l-3.98 1.151-.285.27v1.423l.285-.27 3.98-1.152s4.266-1.422 14.93-1.422 14.93 1.422 14.93 1.422l2.133.568V46.45z"/></g><g><path fill="#d7e9ff" d="M82.473 47.033l.285.27v1.423H46.5V46.45l2.133-.568s4.265-1.422 14.93-1.422c10.663 0 14.929 1.422 14.929 1.422z"/></g><g><path fill="#d7e9ff" d="M82.473 47.033l-3.98-1.15s-4.266-1.423-14.93-1.423-14.93 1.422-14.93 1.422l-2.133.568v1.422l2.133-.568s4.265-1.422 14.93-1.422c10.663 0 14.929 1.422 14.929 1.422l3.981 1.151.285.27v-1.421z"/></g><g><g><path fill="#d7e9ff" d="M82.758 48.73v7.11H46.5V48.73z"/></g><g><path fill="#d7e9ff" d="M46.498 50.152v5.687H10.24V48.73h36.258z"/></g><g><path fill="#d7e9ff" d="M82.755 55.84v9.953H10.24V55.84h36.258z"/></g></g><g opacity=".2"><g opacity=".04"><path fill="#fff" d="M82.756 48.73H10.24v1.422h72.516z"/></g></g><g opacity=".2"><g opacity=".04"><path fill="#fff" d="M82.756 55.84H10.24v1.422h72.516z"/></g></g><g><path fill="#5ca2e3" d="M87.022 65.79H85.6v2.844h1.422z"/></g><g><path fill="#bbdeff" d="M7.402 65.79H5.98v2.844h1.422z"/></g><g><g><path fill="#155a9a" d="M17.398 32.372a.717.717 0 0 1-.718-.711c0-.393.311-.711.704-.711h.014a.71.71 0 1 1 0 1.422z"/></g><g><path fill="#155a9a" d="M28.768 32.372a.717.717 0 0 1-.718-.711c0-.393.311-.711.704-.711h.014a.71.71 0 1 1 0 1.422z"/></g><g><path fill="#155a9a" d="M40.148 32.372a.717.717 0 0 1-.718-.711c0-.393.311-.711.704-.711h.014a.71.71 0 1 1 0 1.422z"/></g><g><path fill="#155a9a" d="M23.078 38.062a.717.717 0 0 1-.718-.711c0-.393.311-.711.704-.711h.014a.71.71 0 1 1 0 1.422z"/></g><g><path fill="#155a9a" d="M34.458 38.062a.717.717 0 0 1-.718-.711c0-.393.311-.711.704-.711h.014a.71.71 0 1 1 0 1.422z"/></g><g><path fill="#155a9a" d="M54.366 32.372a.716.716 0 0 1-.716-.711c0-.393.31-.711.703-.711h.013a.71.71 0 1 1 0 1.422z"/></g><g><path fill="#155a9a" d="M65.736 32.372a.716.716 0 0 1-.716-.711c0-.393.31-.711.703-.711h.013a.71.71 0 0 1 .711.711.71.71 0 0 1-.71.71z"/></g><g><path fill="#155a9a" d="M77.117 32.372a.716.716 0 0 1-.717-.711c0-.393.311-.711.703-.711h.014a.71.71 0 0 1 .71.711.71.71 0 0 1-.71.71z"/></g><g><path fill="#155a9a" d="M60.047 38.062a.716.716 0 0 1-.717-.711c0-.393.311-.711.703-.711h.014a.71.71 0 0 1 .71.71.71.71 0 0 1-.71.712z"/></g><g><path fill="#155a9a" d="M71.427 38.062a.716.716 0 0 1-.717-.711c0-.393.311-.711.703-.711h.014a.71.71 0 0 1 .71.71.71.71 0 0 1-.71.712z"/></g><g><path fill="#155a9a" d="M5.977 48.013A4.983 4.983 0 0 1 1 43.037a4.983 4.983 0 0 1 4.977-4.977 4.983 4.983 0 0 1 4.976 4.977.71.71 0 1 1-1.422 0 3.558 3.558 0 0 0-3.554-3.555 3.558 3.558 0 0 0-3.555 3.555 3.558 3.558 0 0 0 3.555 3.554.71.71 0 1 1 0 1.422z"/></g><g><path fill="#155a9a" d="M10.24 69.346a.71.71 0 0 1-.71-.711V43.04a.71.71 0 1 1 1.422 0v25.594a.71.71 0 0 1-.711.71z"/></g><g><path fill="#155a9a" d="M5.981 69.348a.71.71 0 0 1-.711-.71V48.73a.71.71 0 1 1 1.422 0v19.906a.71.71 0 0 1-.711.711z"/></g><g><path fill="#155a9a" d="M10.247 69.342H5.98a.71.71 0 1 1 0-1.422h4.266a.71.71 0 1 1 0 1.422z"/></g><g><path fill="#155a9a" d="M10.247 66.502H5.98a.71.71 0 1 1 0-1.422h4.266a.71.71 0 1 1 0 1.422z"/></g><g><path fill="#155a9a" d="M5.973 45.176a2.135 2.135 0 0 1-2.133-2.133c0-1.176.957-2.133 2.133-2.133 1.176 0 2.133.957 2.133 2.133a2.135 2.135 0 0 1-2.133 2.133zm0-2.844a.712.712 0 0 0 0 1.422.712.712 0 0 0 0-1.422z"/></g><g><path fill="#155a9a" d="M87.027 48.013a.71.71 0 1 1 0-1.422 3.558 3.558 0 0 0 3.554-3.554 3.558 3.558 0 0 0-3.554-3.555 3.558 3.558 0 0 0-3.555 3.555.71.71 0 1 1-1.422 0 4.983 4.983 0 0 1 4.977-4.977 4.983 4.983 0 0 1 4.976 4.977 4.983 4.983 0 0 1-4.976 4.976z"/></g><g><path fill="#155a9a" d="M82.761 69.346a.71.71 0 0 1-.711-.711V43.04a.71.71 0 1 1 1.422 0v25.594a.71.71 0 0 1-.711.71z"/></g><g><path fill="#155a9a" d="M87.021 69.348a.71.71 0 0 1-.711-.71V48.73a.71.71 0 1 1 1.422 0v19.906a.71.71 0 0 1-.711.711z"/></g><g><path fill="#155a9a" d="M87.027 69.342H82.76a.71.71 0 1 1 0-1.422h4.266a.71.71 0 1 1 0 1.422z"/></g><g><path fill="#155a9a" d="M87.027 66.502H82.76a.71.71 0 1 1 0-1.422h4.266a.71.71 0 1 1 0 1.422z"/></g><g><path fill="#155a9a" d="M87.023 45.176a2.135 2.135 0 0 1-2.133-2.133c0-1.176.957-2.133 2.133-2.133 1.176 0 2.133.957 2.133 2.133a2.135 2.135 0 0 1-2.133 2.133zm0-2.844a.712.712 0 0 0-.711.71c0 .392.32.712.71.712.392 0 .712-.32.712-.711a.712.712 0 0 0-.711-.711z"/></g><g><path fill="#155a9a" d="M81.333 66.502H11.66a.71.71 0 1 1 0-1.422h69.672a.71.71 0 1 1 0 1.422z"/></g><g><path fill="#155a9a" d="M81.333 56.542H11.66a.71.71 0 1 1 0-1.422h69.672a.71.71 0 1 1 0 1.422z"/></g><g><path fill="#155a9a" d="M11.661 46.594a.71.71 0 0 1-.503-1.213l1.422-1.423a.71.71 0 1 1 1.005 1.005l-1.422 1.422a.708.708 0 0 1-.502.209z"/></g><g><path fill="#155a9a" d="M3.612 40.199a.71.71 0 0 1-.37-1.318l5.298-3.227a.71.71 0 1 1 .74 1.214l-5.299 3.226a.707.707 0 0 1-.369.105z"/></g><g><path fill="#155a9a" d="M13.081 45.17a.71.71 0 0 1-.711-.712v-5.687a.71.71 0 1 1 1.422 0v5.687a.71.71 0 0 1-.711.711z"/></g><g><path fill="#155a9a" d="M13.082 39.486a.71.71 0 0 1-.71-.711 2.135 2.135 0 0 0-3.346-1.754.711.711 0 0 1-.81-1.17 3.555 3.555 0 0 1 5.577 2.924.71.71 0 0 1-.71.71z"/></g><g><path fill="#155a9a" d="M81.333 46.594a.709.709 0 0 1-.503-.209l-1.422-1.422a.71.71 0 1 1 1.006-1.005l1.421 1.422a.71.71 0 0 1-.502 1.214z"/></g><g><path fill="#155a9a" d="M89.39 40.2a.703.703 0 0 1-.37-.105l-5.298-3.227a.711.711 0 1 1 .738-1.213l5.3 3.226a.711.711 0 0 1-.37 1.318z"/></g><g><path fill="#155a9a" d="M79.91 45.17a.71.71 0 0 1-.71-.712v-5.687a.71.71 0 1 1 1.422 0v5.687a.71.71 0 0 1-.711.711z"/></g><g><path fill="#155a9a" d="M79.91 39.486a.71.71 0 0 1-.71-.711 3.552 3.552 0 1 1 5.576-2.923.71.71 0 1 1-.808 1.17 2.135 2.135 0 0 0-3.346 1.754.71.71 0 0 1-.711.71z"/></g><g><path fill="#155a9a" d="M79.909 49.442H13.08a.71.71 0 1 1 0-1.422h66.828a.71.71 0 1 1 0 1.422z"/></g><g><path fill="#155a9a" d="M46.501 55.128a.71.71 0 0 1-.711-.711V50.15a.71.71 0 1 1 1.422 0v4.266a.71.71 0 0 1-.711.71z"/></g><g><path fill="#155a9a" d="M10.24 35.217a.71.71 0 0 1-.71-.711V23.13a.71.71 0 1 1 1.422 0v11.375a.71.71 0 0 1-.711.71z"/></g><g><path fill="#155a9a" d="M10.24 23.844a.71.71 0 0 1-.71-.711c0-1.176.957-2.133 2.133-2.133a.71.71 0 1 1 0 1.422c-.393 0-.711.32-.711.71a.71.71 0 0 1-.711.712z"/></g><g><path fill="#155a9a" d="M84.18 35.217a.71.71 0 0 1-.71-.711V23.13a.71.71 0 1 1 1.422 0v11.375a.71.71 0 0 1-.711.71z"/></g><g><path fill="#155a9a" d="M84.183 23.844a.71.71 0 0 1-.711-.711c0-.392-.32-.711-.711-.711a.71.71 0 1 1 0-1.422c1.176 0 2.133.957 2.133 2.133a.71.71 0 0 1-.711.71z"/></g><g><path fill="#155a9a" d="M82.754 22.422H11.661a.71.71 0 1 1 0-1.422h71.093a.71.71 0 1 1 0 1.422z"/></g><g><path fill="#155a9a" d="M44.37 46.593a.689.689 0 0 1-.224-.036c-.042-.013-4.329-1.385-14.706-1.385-10.377 0-14.664 1.372-14.706 1.385a.71.71 0 0 1-.449-1.349c.179-.06 4.498-1.458 15.155-1.458s14.976 1.398 15.155 1.458a.71.71 0 0 1-.226 1.385z"/></g><g><path fill="#155a9a" d="M78.49 46.593a.69.69 0 0 1-.223-.036c-.043-.013-4.328-1.385-14.706-1.385s-14.663 1.372-14.706 1.385a.711.711 0 0 1-.45-1.349c.179-.06 4.498-1.458 15.156-1.458 10.657 0 14.976 1.398 15.154 1.458a.712.712 0 0 1-.225 1.385z"/></g><g><path fill="#155a9a" d="M46.501 48.014a.71.71 0 0 1-.711-.711V23.13a.71.71 0 1 1 1.422 0v24.172a.71.71 0 0 1-.711.71z"/></g></g></g></g></svg>