<svg xmlns="http://www.w3.org/2000/svg" width="92" height="92" viewBox="0 0 92 92"><defs><clipPath id="z415a"><path fill="#fff" d="M55 51.114C55 48.842 56.89 47 59.222 47h10.556C72.11 47 74 48.842 74 51.114v27.772C74 81.158 72.11 83 69.778 83H59.222C56.89 83 55 81.158 55 78.886z"/></clipPath><clipPath id="z415b"><path fill="#fff" d="M70 71.5a5.5 5.5 0 1 1-11 0 5.5 5.5 0 0 1 11 0z"/></clipPath></defs><g><g><path fill="#fff" d="M92 46c0 25.405-20.595 46-46 46S0 71.405 0 46 20.595 0 46 0s46 20.595 46 46z"/></g><g><g><g><path fill="#fff" d="M11.266 63.392v-.02.001-3.923H7.61v3.943c0 1.618 1.645 2.941 3.656 2.941h3.657c-2.011 0-3.657-1.323-3.657-2.942z"/></g></g><g><g><path fill="#d7e9ff" d="M84.394 63.39v1.942c0 1.657-1.597 2.943-3.657 2.943H11.266c-2.06 0-3.656-1.286-3.656-2.943V63.39c0 1.619 1.645 2.942 3.656 2.942h69.471c2.012 0 3.657-1.323 3.657-2.942z"/></g><g><path fill="#d7e9ff" d="M53.908 68.27l2.437 8.827H35.65l2.438-8.827h15.82z"/></g></g><g><path fill="#fff" d="M8.86 65.584c-.76-.54-1.25-1.32-1.25-2.194v1.942c0 1.657 1.597 2.943 3.656 2.943h1.22c-1.953 0-3.47-1.16-3.627-2.69z"/></g><g><path fill="#3d7bb6" d="M83.135 65.584c-.154 1.532-1.673 2.69-3.625 2.69h1.219c2.06 0 3.656-1.285 3.656-2.942V63.39c0 .875-.49 1.654-1.25 2.194z"/></g><g><path fill="#78b0e5" d="M84 66H7V24.463C7 22.56 8.65 21 10.667 21h69.666C82.351 21 84 22.56 84 24.463zm-3.667-3.463V24.44H10.667v38.096z"/></g><g><path fill="#d7e9ff" d="M12.248 21.19h-1.082c-1.785 0-3.246 1.52-3.246 3.377v40.5h1.082v-40.5c0-1.857 1.46-3.377 3.246-3.377z"/></g><g><path fill="#78b0e5" d="M80.729 21.21H79.51c2.012 0 3.656 1.325 3.656 2.942V59.44h1.22V24.152c0-1.617-1.645-2.942-3.657-2.942z"/></g><g><g><path fill="#78b0e5" d="M54.182 69.25l-.27-.98H38.09l-.271.98h16.363z"/></g><g><path fill="#78b0e5" d="M52.96 69.25l2.167 7.846h1.22l-2.168-7.846H52.96z"/></g></g><g><path fill="#fff" d="M39.036 69.25l-2.167 7.846H35.65l2.167-7.846h1.22z"/></g><g><g><path fill="#d7e9ff" d="M9.999 64h72V24h-72z"/></g><g><path fill="#fff" d="M33.881 62.977H44.99l7.934-38.306H41.815z"/></g><g><path fill="#fff" d="M47.73 62.977h3.214l8.037-38.306h-3.214z"/></g><g><path fill="#155a9a" d="M35.65 77.587a.776.776 0 0 1-.133-.012c-.328-.06-.535-.32-.462-.585l2.437-8.827c.073-.264.403-.428.727-.372.329.058.536.32.463.585l-2.437 8.826c-.063.229-.316.385-.595.385z"/></g><g><path fill="#155a9a" d="M56.347 77.587c-.28 0-.532-.156-.595-.384l-2.437-8.827c-.073-.264.134-.527.463-.585.327-.056.654.108.727.373l2.437 8.826c.073.265-.134.526-.463.585a.773.773 0 0 1-.132.012z"/></g><g><path fill="#155a9a" d="M58.185 77.59H33.81c-.337 0-.609-.219-.609-.49 0-.27.272-.49.61-.49h24.375c.337 0 .61.22.61.49 0 .271-.273.49-.61.49z"/></g><g><path fill="#155a9a" d="M9.638 65A.628.628 0 0 1 9 64.382V23.618c0-.342.285-.618.638-.618h72.724c.353 0 .638.276.638.618v40.765a.628.628 0 0 1-.638.617zm.638-1.235h71.448v-39.53H10.276z"/></g><g><path fill="#155a9a" d="M11.266 66.815C8.914 66.815 7 65.275 7 63.382v-.01-39.219c0-1.893 1.914-3.433 4.266-3.433h69.47c2.353 0 4.266 1.54 4.266 3.433v39.23c0 1.892-1.913 3.432-4.265 3.432zm-3.047-3.442v.01c0 1.352 1.367 2.451 3.047 2.451h69.47c1.681 0 3.048-1.1 3.048-2.452v-39.23c0-1.35-1.367-2.451-3.047-2.451H11.266c-1.68 0-3.047 1.1-3.047 2.452v39.22z"/></g><g><path fill="#155a9a" d="M80.737 68.765H11.266C8.874 68.765 7 67.256 7 65.332V63.39c0-.271.273-.5.61-.5.336 0 .609.21.609.48v1.962c0 1.398 1.31 2.452 3.047 2.452h69.47c1.738 0 3.048-1.054 3.048-2.452V63.39c0-.271.272-.49.609-.49.337 0 .61.219.61.49v1.942c0 1.924-1.874 3.433-4.266 3.433z"/></g></g><g><g><path fill="#155a9a" d="M57.75 40.006a.75.75 0 0 0 .504-.195l.177-.162a9.268 9.268 0 0 1 11.854-.022l.201.183a.75.75 0 0 0 1.01-1.109l-.225-.205a10.78 10.78 0 0 0-13.824.022l-.202.184a.75.75 0 0 0 .505 1.304z"/></g><g><path fill="#155a9a" d="M61.316 43.1a.75.75 0 0 0 .96 1.151 3.279 3.279 0 0 1 4.2 0 .75.75 0 1 0 .96-1.152 4.775 4.775 0 0 0-6.12 0z"/></g><g><path fill="#155a9a" d="M68.868 42.133a.75.75 0 0 0 .531-1.28 7.783 7.783 0 0 0-10.059 0 .75.75 0 0 0 1.012 1.106 6.257 6.257 0 0 1 8.037 0 .75.75 0 0 0 .48.174z"/></g><g><path fill="#fff" d="M55 51.114C55 48.842 56.89 47 59.222 47h10.556C72.11 47 74 48.842 74 51.114v27.772C74 81.158 72.11 83 69.778 83H59.222C56.89 83 55 81.158 55 78.886z"/><path fill="none" stroke="#155a9a" stroke-miterlimit="20" stroke-width="2.5" d="M55 51.114C55 48.842 56.89 47 59.222 47h10.556C72.11 47 74 48.842 74 51.114v27.772C74 81.158 72.11 83 69.778 83H59.222C56.89 83 55 81.158 55 78.886z" clip-path="url(&quot;#z415a&quot;)"/></g><g><path fill="#155a9a" d="M58 51a1 1 0 0 1 1-1h3a1 1 0 0 1 0 2h-3a1 1 0 0 1-1-1z"/></g><g><path fill="#155a9a" d="M58 57a1 1 0 0 1 1-1h1a1 1 0 0 1 0 2h-1a1 1 0 0 1-1-1z"/></g><g><path fill="#155a9a" d="M58 79a1 1 0 0 1 1-1h1a1 1 0 0 1 0 2h-1a1 1 0 0 1-1-1z"/></g><g><path fill="#155a9a" d="M68 79a1 1 0 0 1 1-1h1a1 1 0 0 1 0 2h-1a1 1 0 0 1-1-1z"/></g><g><path fill="#155a9a" d="M58 60a1 1 0 0 1 1-1h1a1 1 0 0 1 0 2h-1a1 1 0 0 1-1-1z"/></g><g><path fill="#155a9a" d="M58 63a1 1 0 0 1 1-1h1a1 1 0 0 1 0 2h-1a1 1 0 0 1-1-1z"/></g><g><path fill="#155a9a" d="M63 57a1 1 0 0 1 1-1h1a1 1 0 0 1 0 2h-1a1 1 0 0 1-1-1z"/></g><g><path fill="#155a9a" d="M63 60a1 1 0 0 1 1-1h1a1 1 0 0 1 0 2h-1a1 1 0 0 1-1-1z"/></g><g><path fill="#155a9a" d="M63 63a1 1 0 0 1 1-1h1a1 1 0 0 1 0 2h-1a1 1 0 0 1-1-1z"/></g><g><path fill="#155a9a" d="M68 57a1 1 0 0 1 1-1h1a1 1 0 0 1 0 2h-1a1 1 0 0 1-1-1z"/></g><g><path fill="#155a9a" d="M68 60a1 1 0 0 1 1-1h1a1 1 0 0 1 0 2h-1a1 1 0 0 1-1-1z"/></g><g><path fill="#155a9a" d="M68 63a1 1 0 0 1 1-1h1a1 1 0 0 1 0 2h-1a1 1 0 0 1-1-1z"/></g><g><path fill="#155a9a" d="M69 51a1 1 0 0 1 2 0 1 1 0 0 1-2 0z"/></g><g><path fill="#78b0e5" d="M70 71.5a5.5 5.5 0 1 1-11 0 5.5 5.5 0 0 1 11 0z"/><path fill="none" stroke="#155a9a" stroke-miterlimit="20" stroke-width="2" d="M70 71.5a5.5 5.5 0 1 1-11 0 5.5 5.5 0 0 1 11 0z" clip-path="url(&quot;#z415b&quot;)"/></g><g><path fill="#6c9dcb" d="M43.171 39H34v2.35h3.2V53h2.772V41.35h3.2zm6.15 14h1.664L57 39h-3.029l-3.796 9.403L46.379 39h-3.03z"/></g></g></g></g></svg>