<svg xmlns="http://www.w3.org/2000/svg" width="92" height="92" viewBox="0 0 92 92"><g><g><path fill="#fff" d="M92 46c0 25.405-20.595 46-46 46S0 71.405 0 46 20.595 0 46 0s46 20.595 46 46z"/></g><g><g/><g><path fill="#fff" d="M82.435 17.25H11.56V69h70.875z"/></g><g><g><path fill="#d7e9ff" d="M52.065 57.75H17.19V60h34.875z"/></g></g><g><path fill="#5ca2e3" d="M76.81 57.75H52.06V60h24.75z"/></g><g><path fill="#bbdeff" d="M79.065 20.63H14.94v37.125h64.125z"/></g><g><path fill="#5ca2e3" d="M62.19 37.505L79.065 20.63v37.125H35.19l23.61-23.64z"/></g><g><g><path fill="#d7e9ff" d="M64.435 37.505L79.06 22.88v-2.25L63.31 36.38z"/></g><g><path fill="#d7e9ff" d="M58.8 34.11L35.19 57.75h2.25l22.486-22.514z"/></g></g><g><path fill="#fff" d="M55.435 39.188a8.437 8.437 0 0 1-8.438 8.437 8.438 8.438 0 1 1 8.438-8.438z"/></g><g><path fill="#bbdeff" d="M44.75 35.81l5.625 3.375-5.625 3.375z"/></g><g><g><path fill="#fff" d="M54.31 25.13h4.5c.618 0 1.125.507 1.125 1.125s-.507 1.125-1.125 1.125h-6.75a2.257 2.257 0 0 1-2.25-2.25 2.257 2.257 0 0 1 2.25-2.25 2.25 2.25 0 0 1 2.25 2.25z"/></g><g><path fill="#fff" d="M14.94 20.63v4.75a3.352 3.352 0 0 0 2.25.875 3.374 3.374 0 0 0 3.375-3.375c0-.869-.337-1.652-.876-2.25z"/></g><g><path fill="#fff" d="M53.19 58.875a1.124 1.124 0 1 1-2.249.001 1.124 1.124 0 0 1 2.249-.001z"/></g></g><g><g><path fill="#bbdeff" d="M17.19 57.75h-2.25V60h2.25z"/></g><g><path fill="#5ca2e3" d="M79.06 57.75h-2.25V60h2.25z"/></g><g><path fill="#bbdeff" d="M30.69 63.38c.619 0 1.125.507 1.125 1.125s-.506 1.125-1.125 1.125H16.065a1.129 1.129 0 0 1-1.125-1.125c0-.618.507-1.125 1.125-1.125z"/></g></g><g><g><path fill="#155a9a" d="M11.563 69.565a.562.562 0 0 1-.563-.563v-51.75c0-.31.252-.562.563-.562h70.874c.311 0 .563.252.563.562v51.75c0 .311-.252.563-.563.563zm.562-1.125h69.75V17.815h-69.75z"/></g><g><path fill="#155a9a" d="M14.943 60.56a.562.562 0 0 1-.563-.563V20.623c0-.311.252-.563.563-.563h64.124c.311 0 .563.252.563.563v39.374c0 .311-.252.563-.563.563zm.562-1.125h63v-38.25h-63z"/></g><g><path fill="#155a9a" d="M79.067 58.315H14.944a.562.562 0 1 1 0-1.125h64.124a.562.562 0 1 1 0 1.125z"/></g><g><path fill="#155a9a" d="M17.192 60.565a.562.562 0 0 1-.562-.563v-2.25a.562.562 0 1 1 1.125 0v2.25c0 .311-.252.563-.563.563z"/></g><g><path fill="#155a9a" d="M76.813 60.565a.562.562 0 0 1-.563-.563v-2.25a.562.562 0 1 1 1.125 0v2.25c0 .311-.252.563-.563.563z"/></g><g><path fill="#155a9a" d="M52.068 60.565a1.69 1.69 0 0 1-1.688-1.688c0-.93.757-1.687 1.688-1.687.93 0 1.687.757 1.687 1.688a1.69 1.69 0 0 1-1.688 1.687zm0-2.25a.564.564 0 0 0 0 1.125.564.564 0 0 0 0-1.125z"/></g><g><path fill="#155a9a" d="M47 48.19c-4.963 0-9-4.037-9-9s4.037-9 9-9 9 4.037 9 9-4.037 9-9 9zm0-16.875c-4.342 0-7.875 3.533-7.875 7.875 0 4.342 3.533 7.875 7.875 7.875 4.342 0 7.875-3.533 7.875-7.875 0-4.342-3.533-7.875-7.875-7.875z"/></g><g><path fill="#155a9a" d="M44.752 43.125a.562.562 0 0 1-.562-.563v-6.75a.562.562 0 0 1 .852-.482l5.625 3.375a.562.562 0 0 1 0 .965l-5.625 3.375a.565.565 0 0 1-.29.08zm.563-6.32v4.763l3.97-2.38z"/></g><g><path fill="#155a9a" d="M17.192 26.81a.562.562 0 1 1 0-1.125 2.816 2.816 0 0 0 2.813-2.813.562.562 0 1 1 1.125 0 3.942 3.942 0 0 1-3.938 3.938z"/></g><g><path fill="#155a9a" d="M17.192 34.69a.562.562 0 0 1-.562-.563v-5.625a.562.562 0 1 1 1.125 0v5.625c0 .311-.252.563-.563.563z"/></g><g><path fill="#155a9a" d="M22.816 33.177a.562.562 0 0 1-.488-.28l-2.813-4.872a.563.563 0 1 1 .975-.563l2.813 4.872a.563.563 0 0 1-.487.843z"/></g><g><path fill="#155a9a" d="M26.934 29.058a.56.56 0 0 1-.281-.075L21.78 26.17a.563.563 0 1 1 .563-.974l4.871 2.812a.563.563 0 0 1-.281 1.05z"/></g><g><path fill="#155a9a" d="M28.438 23.435h-5.625a.562.562 0 1 1 0-1.125h5.625a.562.562 0 1 1 0 1.125z"/></g><g><path fill="#155a9a" d="M62.192 38.06a.561.561 0 0 1-.397-.96L76.42 22.475a.562.562 0 1 1 .795.795L62.59 37.895a.561.561 0 0 1-.398.165z"/></g><g><path fill="#155a9a" d="M62.183 38.064a.56.56 0 0 1-.398-.165l-3.39-3.389a.562.562 0 1 1 .795-.795l3.39 3.39a.562.562 0 0 1-.397.96z"/></g><g><path fill="#155a9a" d="M37.412 56.065a.56.56 0 0 1-.397-.96l6.63-6.63a.562.562 0 1 1 .795.795l-6.63 6.63a.56.56 0 0 1-.398.165z"/></g><g><path fill="#155a9a" d="M56.682 36.789a.56.56 0 0 1-.397-.96l2.115-2.114a.562.562 0 1 1 .795.795l-2.115 2.114a.561.561 0 0 1-.398.165z"/></g><g><path fill="#155a9a" d="M20.563 56.065a.562.562 0 0 1-.563-.563v-6.75a.562.562 0 1 1 1.125 0v6.75c0 .311-.252.563-.563.563z"/></g><g><path fill="#155a9a" d="M21.687 50.44a.56.56 0 0 1-.397-.165l-1.125-1.125a.562.562 0 1 1 .795-.795l1.125 1.125a.562.562 0 0 1-.398.96z"/></g><g><path fill="#155a9a" d="M19.432 50.44a.56.56 0 0 1-.397-.96l1.125-1.125a.562.562 0 1 1 .795.795l-1.125 1.125a.56.56 0 0 1-.398.165z"/></g><g><path fill="#155a9a" d="M21.687 52.69a.56.56 0 0 1-.397-.165L20.165 51.4a.562.562 0 1 1 .795-.795l1.125 1.125a.562.562 0 0 1-.398.96z"/></g><g><path fill="#155a9a" d="M19.432 52.69a.56.56 0 0 1-.397-.96l1.125-1.125a.562.562 0 1 1 .795.795l-1.125 1.125a.56.56 0 0 1-.398.165z"/></g><g><path fill="#155a9a" d="M29.563 56.065a.562.562 0 0 1-.563-.563v-6.75a.562.562 0 1 1 1.125 0v6.75c0 .311-.252.563-.563.563z"/></g><g><path fill="#155a9a" d="M30.687 50.44a.56.56 0 0 1-.397-.165l-1.125-1.125a.562.562 0 1 1 .795-.795l1.125 1.125a.562.562 0 0 1-.398.96z"/></g><g><path fill="#155a9a" d="M28.432 50.44a.56.56 0 0 1-.397-.96l1.125-1.125a.562.562 0 1 1 .795.795l-1.125 1.125a.56.56 0 0 1-.398.165z"/></g><g><path fill="#155a9a" d="M30.687 52.69a.56.56 0 0 1-.397-.165L29.165 51.4a.562.562 0 1 1 .795-.795l1.125 1.125a.562.562 0 0 1-.398.96z"/></g><g><path fill="#155a9a" d="M28.432 52.69a.56.56 0 0 1-.397-.96l1.125-1.125a.562.562 0 1 1 .795.795l-1.125 1.125a.56.56 0 0 1-.398.165z"/></g><g><path fill="#155a9a" d="M25.063 56.065a.562.562 0 0 1-.563-.563v-9a.562.562 0 1 1 1.125 0v9c0 .311-.252.563-.563.563z"/></g><g><path fill="#155a9a" d="M26.187 48.19a.56.56 0 0 1-.397-.165L24.665 46.9a.562.562 0 1 1 .795-.795l1.125 1.125a.562.562 0 0 1-.398.96z"/></g><g><path fill="#155a9a" d="M23.932 48.19a.56.56 0 0 1-.397-.96l1.125-1.125a.562.562 0 1 1 .795.795l-1.125 1.125a.56.56 0 0 1-.398.165z"/></g><g><path fill="#155a9a" d="M26.187 50.44a.56.56 0 0 1-.397-.165l-1.125-1.125a.562.562 0 1 1 .795-.795l1.125 1.125a.562.562 0 0 1-.398.96z"/></g><g><path fill="#155a9a" d="M23.932 50.44a.56.56 0 0 1-.397-.96l1.125-1.125a.562.562 0 1 1 .795.795l-1.125 1.125a.56.56 0 0 1-.398.165z"/></g><g><path fill="#155a9a" d="M26.187 52.69a.56.56 0 0 1-.397-.165L24.665 51.4a.562.562 0 1 1 .795-.795l1.125 1.125a.562.562 0 0 1-.398.96z"/></g><g><path fill="#155a9a" d="M23.932 52.69a.56.56 0 0 1-.397-.96l1.125-1.125a.562.562 0 1 1 .795.795l-1.125 1.125a.56.56 0 0 1-.398.165z"/></g><g><path fill="#155a9a" d="M58.813 27.935a.562.562 0 1 1 0-1.125.563.563 0 0 0 0-1.125.562.562 0 1 1 0-1.125c.93 0 1.687.757 1.687 1.688a1.69 1.69 0 0 1-1.688 1.687z"/></g><g><path fill="#155a9a" d="M58.813 27.935h-6.75a.562.562 0 1 1 0-1.125h6.75a.562.562 0 1 1 0 1.125z"/></g><g><path fill="#155a9a" d="M58.813 25.685h-4.5a.562.562 0 1 1 0-1.125h4.5a.562.562 0 1 1 0 1.125z"/></g><g><path fill="#155a9a" d="M52.063 27.935a2.816 2.816 0 0 1-2.813-2.813 2.816 2.816 0 0 1 2.813-2.812 2.816 2.816 0 0 1 2.812 2.813.562.562 0 1 1-1.125 0 1.69 1.69 0 0 0-1.688-1.688 1.69 1.69 0 0 0-1.687 1.688c0 .93.757 1.687 1.688 1.687a.562.562 0 1 1 0 1.125z"/></g><g><path fill="#155a9a" d="M16.067 66.185a1.69 1.69 0 0 1-1.687-1.688c0-.93.757-1.687 1.687-1.687a.562.562 0 1 1 0 1.125.563.563 0 0 0 0 1.125.562.562 0 1 1 0 1.125z"/></g><g><path fill="#155a9a" d="M30.692 66.185a.562.562 0 1 1 0-1.125.563.563 0 0 0 0-1.125.562.562 0 1 1 0-1.125c.931 0 1.688.757 1.688 1.688a1.69 1.69 0 0 1-1.688 1.687z"/></g><g><path fill="#155a9a" d="M30.688 63.935H16.063a.562.562 0 1 1 0-1.125h14.625a.562.562 0 1 1 0 1.125z"/></g><g><path fill="#155a9a" d="M30.688 66.185H16.063a.562.562 0 1 1 0-1.125h14.625a.562.562 0 1 1 0 1.125z"/></g><g><path fill="#155a9a" d="M67.012 65.856a.56.56 0 0 1-.397-.96l1.59-1.591a.562.562 0 1 1 .796.795l-1.59 1.59a.56.56 0 0 1-.399.166z"/></g><g><path fill="#155a9a" d="M68.603 65.856a.56.56 0 0 1-.397-.165l-1.591-1.59a.562.562 0 1 1 .795-.796l1.59 1.59a.562.562 0 0 1-.397.96z"/></g><g><path fill="#155a9a" d="M63.642 65.856a.56.56 0 0 1-.397-.96l1.59-1.591a.562.562 0 1 1 .796.795l-1.59 1.59a.56.56 0 0 1-.399.166z"/></g><g><path fill="#155a9a" d="M65.233 65.856a.56.56 0 0 1-.398-.165l-1.59-1.59a.562.562 0 1 1 .795-.796l1.59 1.59a.562.562 0 0 1-.397.96z"/></g><g><path fill="#155a9a" d="M70.392 65.856a.56.56 0 0 1-.397-.96l1.59-1.591a.562.562 0 1 1 .796.795l-1.59 1.59a.56.56 0 0 1-.399.166z"/></g><g><path fill="#155a9a" d="M71.983 65.856a.56.56 0 0 1-.398-.165l-1.59-1.59a.562.562 0 1 1 .795-.796l1.59 1.59a.562.562 0 0 1-.397.96z"/></g><g><path fill="#155a9a" d="M73.762 65.856a.56.56 0 0 1-.397-.96l1.59-1.591a.562.562 0 1 1 .796.795l-1.59 1.59a.56.56 0 0 1-.399.166z"/></g><g><path fill="#155a9a" d="M75.353 65.856a.56.56 0 0 1-.397-.165l-1.591-1.59a.562.562 0 1 1 .795-.796l1.59 1.59a.562.562 0 0 1-.397.96z"/></g><g><path fill="#155a9a" d="M77.142 65.856a.56.56 0 0 1-.397-.96l1.59-1.591a.562.562 0 1 1 .796.795l-1.59 1.59a.56.56 0 0 1-.399.166z"/></g><g><path fill="#155a9a" d="M78.733 65.856a.56.56 0 0 1-.398-.165l-1.59-1.59a.562.562 0 1 1 .795-.796l1.59 1.59a.562.562 0 0 1-.397.96z"/></g></g></g></g></svg>