<svg xmlns="http://www.w3.org/2000/svg" width="97" height="110" viewBox="0 0 97 110"><g><g><path fill="#fff" d="M92 64c0 25.405-20.595 46-46 46S0 89.405 0 64s20.595-46 46-46 46 20.595 46 46z"/></g><g><g><path fill="#94c8f9" d="M63.921 32.49H9.635L4.7 57.165h64.157z"/></g><g><g><path fill="#d7e9ff" d="M63.921 80.19V57.16H9.635v23.03H7.99v3.29h57.576v-3.29z"/></g><g><path fill="#d7e9ff" d="M88.247 83.87H7.53v7.019h80.717z"/></g></g><g><path fill="#d7e9ff" d="M86.93 77.051c.002-.05.015-.096.015-.146a4.936 4.936 0 0 0-4.935-4.935 4.9 4.9 0 0 0-3.29 1.28 4.9 4.9 0 0 0-3.29-1.28 4.934 4.934 0 0 0-4.935 4.935c0 .05.013.096.013.146a2.459 2.459 0 0 0-1.658 2.321v4.113h19.74v-4.113a2.462 2.462 0 0 0-1.66-2.32z"/></g><g><path fill="#fff" d="M86.93 77.051c.004-.05.017-.096.017-.146a4.936 4.936 0 0 0-4.935-4.935c-.29 0-.569.034-.842.082 2.342.385 4.132 2.403 4.132 4.853 0 .05-.013.096-.016.146a2.462 2.462 0 0 1 1.661 2.321v4.113h1.645v-4.113a2.462 2.462 0 0 0-1.661-2.32z"/></g><g><path fill="#94c8f9" d="M72.153 77.051c0-.05-.013-.096-.013-.146 0-2.45 1.79-4.468 4.132-4.853a4.857 4.857 0 0 0-.842-.082 4.934 4.934 0 0 0-4.935 4.935c0 .05.013.096.013.146a2.459 2.459 0 0 0-1.658 2.321v4.113h1.645v-4.113a2.46 2.46 0 0 1 1.658-2.32z"/></g><g><path fill="#fff" d="M42.53 35.78c0 3.356 3.29 4.935 3.29 4.935s-3.29 1.58-3.29 4.935c0-3.356-3.29-4.935-3.29-4.935s3.29-1.579 3.29-4.935z"/></g><g><g><path fill="#94c8f9" d="M34.31 63.74H17.86v11.515h16.45z"/></g><g><path fill="#94c8f9" d="M54.045 63.74H42.53v19.74h11.515z"/></g><g><path fill="#94c8f9" d="M63.917 57.16H9.63v1.645h54.287z"/></g></g><g><g><path fill="#d7e9ff" d="M21.99 75.255h3.406l3.086-11.515h-3.407z"/></g><g><path fill="#d7e9ff" d="M26.24 75.255h.852l3.085-11.515h-.852z"/></g></g><g><path fill="#94c8f9" d="M11.275 58.81H9.63v21.386h1.645z"/></g><g><path fill="#fff" d="M63.915 58.81H62.27v21.386h1.645z"/></g><g><path fill="#94c1ff" d="M9.635 80.19H7.99v3.29h1.645z"/></g><g><path fill="#fff" d="M65.565 80.19H63.92v3.29h1.645z"/></g><g><g><path fill="#d7e9ff" d="M26.35 57.165h5.109l6.61-24.675H32.96z"/></g><g><path fill="#d7e9ff" d="M33.16 57.165h.852l6.613-24.675h-.854z"/></g></g><g><g><path fill="#155a9a" d="M44.23 74.435a.829.829 0 0 1-.83-.822c0-.455.36-.823.813-.823h.018a.823.823 0 0 1 0 1.645z"/></g><g><path fill="#155a9a" d="M68.853 84.3a.822.822 0 0 1-.823-.822v-1.645a.822.822 0 1 1 1.645 0v1.645a.822.822 0 0 1-.822.822z"/></g><g><path fill="#155a9a" d="M72.143 84.3a.822.822 0 0 1-.823-.822v-1.645a.822.822 0 1 1 1.645 0v1.645a.822.822 0 0 1-.822.822z"/></g><g><path fill="#155a9a" d="M75.433 84.3a.822.822 0 0 1-.823-.822v-1.645a.822.822 0 1 1 1.645 0v1.645a.822.822 0 0 1-.822.822z"/></g><g><path fill="#155a9a" d="M78.723 84.3a.822.822 0 0 1-.823-.822v-1.645a.822.822 0 1 1 1.645 0v1.645a.822.822 0 0 1-.822.822z"/></g><g><path fill="#155a9a" d="M82.013 84.3a.822.822 0 0 1-.823-.822v-1.645a.822.822 0 1 1 1.645 0v1.645a.822.822 0 0 1-.822.822z"/></g><g><path fill="#155a9a" d="M85.303 84.3a.822.822 0 0 1-.823-.822v-1.645a.822.822 0 1 1 1.645 0v1.645a.822.822 0 0 1-.822.822z"/></g><g><path fill="#155a9a" d="M88.593 84.3a.822.822 0 0 1-.823-.822v-1.645a.822.822 0 1 1 1.645 0v1.645a.822.822 0 0 1-.822.822z"/></g><g><path fill="#155a9a" d="M88.593 80.188a.822.822 0 0 1-.823-.823c0-.692-.445-1.314-1.107-1.544a.825.825 0 0 1-.552-.804l.828-.042-.81-.129c-.004-2.217-1.848-4.06-4.117-4.06-1 0-1.974.378-2.739 1.067a.821.821 0 0 1-1.102 0 4.094 4.094 0 0 0-2.739-1.068 4.116 4.116 0 0 0-4.112 4.113c.011.36-.198.805-.538.923a1.641 1.641 0 0 0-1.107 1.544.822.822 0 1 1-1.645 0c0-1.187.646-2.268 1.658-2.846a5.764 5.764 0 0 1 5.745-5.379c1.176 0 2.322.37 3.29 1.052a5.706 5.706 0 0 1 3.29-1.052c3.047 0 5.55 2.38 5.745 5.379a3.284 3.284 0 0 1 1.658 2.846.823.823 0 0 1-.823.823z"/></g><g><path fill="#155a9a" d="M65.569 84.305H7.993a.822.822 0 1 1 0-1.645h57.576a.822.822 0 1 1 0 1.645z"/></g><g><path fill="#155a9a" d="M7.993 84.305a.822.822 0 0 1-.823-.822v-3.29a.822.822 0 1 1 1.645 0v3.29a.822.822 0 0 1-.822.822z"/></g><g><path fill="#155a9a" d="M11.283 81.015h-3.29a.822.822 0 1 1 0-1.645h3.29a.822.822 0 1 1 0 1.645z"/></g><g><path fill="#155a9a" d="M65.563 84.305a.822.822 0 0 1-.823-.822v-3.29a.822.822 0 1 1 1.645 0v3.29a.822.822 0 0 1-.822.822z"/></g><g><path fill="#155a9a" d="M65.563 81.015h-3.29a.822.822 0 1 1 0-1.645h3.29a.822.822 0 1 1 0 1.645z"/></g><g><path fill="#155a9a" d="M9.633 81.01a.822.822 0 0 1-.823-.822V58.803a.822.822 0 1 1 1.645 0v21.385a.822.822 0 0 1-.822.823z"/></g><g><path fill="#155a9a" d="M63.923 81.01a.822.822 0 0 1-.823-.822V58.803a.822.822 0 1 1 1.645 0v21.385a.822.822 0 0 1-.822.823z"/></g><g><path fill="#155a9a" d="M68.86 57.985H4.702a.822.822 0 1 1 0-1.645h64.156a.822.822 0 1 1 0 1.645z"/></g><g><path fill="#155a9a" d="M4.703 57.982A.821.821 0 0 1 3.896 57l4.935-24.676a.814.814 0 0 1 .968-.645c.445.089.734.522.645.968L5.51 57.32a.822.822 0 0 1-.806.661z"/></g><g><path fill="#155a9a" d="M68.856 57.982a.822.822 0 0 1-.804-.662l-4.936-24.675a.821.821 0 1 1 1.613-.323L69.665 57a.82.82 0 0 1-.809.983z"/></g><g><path fill="#155a9a" d="M63.919 33.305H9.633a.822.822 0 1 1 0-1.645h54.286a.822.822 0 1 1 0 1.645z"/></g><g><path fill="#155a9a" d="M35.953 41.535H9.633a.822.822 0 1 1 0-1.645h26.32a.822.822 0 1 1 0 1.645z"/></g><g><path fill="#155a9a" d="M55.172 49.755H7.992a.822.822 0 1 1 0-1.645h47.18a.822.822 0 1 1 0 1.645z"/></g><g><path fill="#155a9a" d="M17.863 76.08a.822.822 0 0 1-.823-.822V63.743c0-.455.368-.823.823-.823h16.45c.454 0 .823.368.823.823v11.515a.822.822 0 0 1-.823.822zm.822-1.645H33.49v-9.87H18.685z"/></g><g><path fill="#155a9a" d="M26.083 76.08a.822.822 0 0 1-.823-.822V63.743a.822.822 0 1 1 1.645 0v11.515a.822.822 0 0 1-.822.822z"/></g><g><path fill="#155a9a" d="M34.306 70.325H17.993a.822.822 0 1 1 0-1.645h16.313a.822.822 0 1 1 0 1.645z"/></g><g><path fill="#155a9a" d="M42.533 82.66a.822.822 0 0 1-.823-.822V63.743a.822.822 0 1 1 1.645 0v18.095a.822.822 0 0 1-.822.822z"/></g><g><path fill="#155a9a" d="M54.048 64.565H42.533a.822.822 0 1 1 0-1.645h11.515a.822.822 0 1 1 0 1.645z"/></g><g><path fill="#155a9a" d="M54.053 82.66a.822.822 0 0 1-.823-.822V63.743a.822.822 0 1 1 1.645 0v18.095a.822.822 0 0 1-.822.822z"/></g><g><path fill="#155a9a" d="M17.533 56.342a.821.821 0 0 1-.815-.935l2.958-21.385a.812.812 0 0 1 .927-.702c.45.062.765.477.702.927l-2.958 21.385a.823.823 0 0 1-.814.71z"/></g><g><path fill="#155a9a" d="M30.363 56.341c-.012 0-.025 0-.038-.002a.822.822 0 0 1-.784-.86l.984-21.384a.832.832 0 0 1 .86-.784.823.823 0 0 1 .783.86l-.984 21.386a.822.822 0 0 1-.82.784z"/></g><g><path fill="#155a9a" d="M43.189 56.338a.821.821 0 0 1-.821-.784l-.307-6.58a.82.82 0 0 1 .782-.86c.44-.048.84.33.86.783l.307 6.58a.82.82 0 0 1-.782.86h-.04z"/></g><g><path fill="#155a9a" d="M56.02 56.342a.82.82 0 0 1-.813-.71l-2.97-21.384a.823.823 0 0 1 .703-.928c.424-.071.865.25.927.701l2.969 21.387a.822.822 0 0 1-.816.934z"/></g><g><g><path fill="#155a9a" d="M83.194 20.618a6.612 6.612 0 0 1-6.604-6.604 6.612 6.612 0 0 1 6.604-6.604 6.612 6.612 0 0 1 6.604 6.604 6.612 6.612 0 0 1-6.604 6.604zm0-12.007a5.41 5.41 0 0 0-5.403 5.403 5.41 5.41 0 0 0 5.403 5.403 5.41 5.41 0 0 0 5.403-5.403 5.41 5.41 0 0 0-5.403-5.403z"/></g><g><path fill="#155a9a" d="M83.19 27.824a.6.6 0 0 1-.6-.6V22.42a.6.6 0 1 1 1.2 0v4.803a.6.6 0 0 1-.6.6z"/></g><g><path fill="#155a9a" d="M83.19 6.204a.6.6 0 0 1-.6-.6V.8a.6.6 0 1 1 1.2 0v4.803a.6.6 0 0 1-.6.6z"/></g><g><path fill="#155a9a" d="M89.792 26.05a.598.598 0 0 1-.52-.3l-2.401-4.159a.6.6 0 1 1 1.039-.6l2.401 4.159a.6.6 0 0 1-.52.9z"/></g><g><path fill="#155a9a" d="M78.992 7.329a.598.598 0 0 1-.52-.3L76.072 2.87a.6.6 0 1 1 1.039-.6l2.401 4.157a.6.6 0 0 1-.519.9z"/></g><g><path fill="#155a9a" d="M94.63 21.212a.601.601 0 0 1-.3-.08l-4.16-2.402a.6.6 0 1 1 .6-1.04l4.16 2.402a.6.6 0 0 1-.3 1.12z"/></g><g><path fill="#155a9a" d="M75.91 10.411a.6.6 0 0 1-.3-.08l-4.16-2.402a.6.6 0 1 1 .6-1.04l4.161 2.402a.6.6 0 0 1-.3 1.12z"/></g><g><path fill="#155a9a" d="M96.402 14.61H91.6a.6.6 0 1 1 0-1.2h4.802a.6.6 0 1 1 0 1.2z"/></g><g><path fill="#155a9a" d="M74.785 14.61H69.98a.6.6 0 1 1 0-1.2h4.805a.6.6 0 1 1 0 1.2z"/></g><g><path fill="#155a9a" d="M90.47 10.412a.6.6 0 0 1-.3-1.12l4.158-2.401a.6.6 0 1 1 .6 1.04l-4.158 2.401a.6.6 0 0 1-.3.08z"/></g><g><path fill="#155a9a" d="M71.75 21.213a.6.6 0 0 1-.3-1.12l4.162-2.402a.6.6 0 1 1 .6 1.04l-4.161 2.401a.603.603 0 0 1-.3.08z"/></g><g><path fill="#155a9a" d="M87.39 7.328a.6.6 0 0 1-.519-.901l2.4-4.158a.6.6 0 1 1 1.039.6l-2.4 4.158a.599.599 0 0 1-.52.3z"/></g><g><path fill="#155a9a" d="M76.59 26.052a.601.601 0 0 1-.519-.9l2.403-4.162a.6.6 0 1 1 1.039.6l-2.403 4.162a.598.598 0 0 1-.52.3z"/></g></g><g><path fill="#155a9a" d="M42.533 46.47a.822.822 0 0 1-.823-.822c0-3.82 3.602-5.602 3.756-5.675a.821.821 0 0 1 .716 1.48c-.115.057-2.827 1.42-2.827 4.195a.822.822 0 0 1-.822.823z"/></g><g><path fill="#155a9a" d="M45.823 41.54a.805.805 0 0 1-.357-.082c-.154-.074-3.756-1.855-3.756-5.675a.822.822 0 1 1 1.645 0c0 2.798 2.797 4.18 2.824 4.194a.821.821 0 0 1-.356 1.563z"/></g><g><path fill="#155a9a" d="M39.243 41.54a.824.824 0 0 1-.362-1.561c.116-.058 2.828-1.42 2.828-4.196a.822.822 0 1 1 1.645 0c0 3.82-3.602 5.601-3.756 5.675a.8.8 0 0 1-.355.082z"/></g><g><path fill="#155a9a" d="M42.533 46.471a.822.822 0 0 1-.823-.822c0-2.799-2.797-4.18-2.824-4.195a.821.821 0 0 1-.384-1.097.82.82 0 0 1 1.097-.384c.154.074 3.756 1.856 3.756 5.676a.822.822 0 0 1-.822.822z"/></g><g><path fill="#155a9a" d="M53.966 41.535h-4.853a.822.822 0 1 1 0-1.645h4.853a.822.822 0 1 1 0 1.645z"/></g></g></g></g></svg>