<svg xmlns="http://www.w3.org/2000/svg" width="92" height="92" viewBox="0 0 92 92"><g><g><path fill="#fff" d="M92 46c0 25.405-20.595 46-46 46S0 71.405 0 46 20.595 0 46 0s46 20.595 46 46z"/></g><g><g/><g><path fill="#94c8f9" d="M66.723 30.574a1.885 1.885 0 0 0 0-2.65l-1.775-1.775a1.887 1.887 0 0 0-2.65 0 1.88 1.88 0 0 0 0 2.663l1.763 1.762a1.878 1.878 0 0 0 2.662 0zM64.51 4.5l23.862 23.861-29.405 29.53-.157-3.093L57.124 22c-.075-2.062-1.825-3.75-3.888-3.75H50.77zm3.975 21.65a1.863 1.863 0 0 0 2.65 0 1.863 1.863 0 0 0 0-2.65l-1.763-1.763a1.864 1.864 0 0 0-2.65 0 1.864 1.864 0 0 0 0 2.65z"/></g><g><path fill="#d7e9ff" d="M58.79 54.392l-4.44-36.143 7.79-7.853 4.133-.596 16.799 16.8-.79 4.327z"/></g><g><path fill="#5296d6" d="M59.622 21.906c-.123-3.386-2.972-6.14-6.357-6.156l-2.495 2.497h2.466c.397 0 .775.08 1.139.194l4.415 35.946.02.409.158 3.092 2.377-2.387z"/></g><g><path fill="#78b0e5" d="M59.622 21.91c-.087-2.366-1.516-4.4-3.517-5.43l-1.755 1.77.024.194L58.79 54.39v.003l2.376-2.373z"/></g><g><g><path fill="#d7e9ff" d="M69.373 21.743l1.763 1.763a1.863 1.863 0 0 1 0 2.649 1.863 1.863 0 0 1-2.65 0l-1.763-1.762a1.864 1.864 0 0 1 0-2.65 1.864 1.864 0 0 1 2.65 0z"/></g><g><path fill="#d7e9ff" d="M64.953 26.153l1.775 1.776a1.885 1.885 0 0 1 0 2.65 1.877 1.877 0 0 1-2.662 0l-1.763-1.763a1.88 1.88 0 0 1 0-2.663 1.887 1.887 0 0 1 2.65 0z"/></g></g><g><path fill="#78b0e5" d="M74 79.5c-4.15 0-7.5-3.363-7.5-7.5v-2.5c0 4.137 3.35 7.5 7.5 7.5 4.136 0 7.5-3.363 7.5-7.5V72c0 4.137-3.364 7.5-7.5 7.5z"/></g><g><path fill="#94c8f9" d="M70.102 75.899A7.487 7.487 0 0 1 66.5 69.5V72c0 4.137 3.35 7.5 7.5 7.5.426 0 .84-.044 1.248-.113a7.484 7.484 0 0 1-5.146-3.488z"/></g><g><path fill="#78b0e5" d="M86.5 52v2.5c0 2.762-2.238 5-5 5s-5-2.238-5-5V52c0 2.762 2.238 5 5 5s5-2.238 5-5z"/></g><g><g><path fill="#94c8f9" d="M79.449 56.55A4.992 4.992 0 0 1 76.5 52v2.5c0 2.762 2.238 5 5 5 .434 0 .848-.074 1.25-.177a4.986 4.986 0 0 1-3.301-2.772z"/></g><g><path fill="#78b0e5" d="M81.5 47c2.762 0 5 2.237 5 5 0 2.762-2.238 5-5 5s-5-2.238-5-5c0-2.763 2.238-5 5-5z"/></g></g><g><path fill="#d7e9ff" d="M79 52c0-2.328 1.596-4.266 3.75-4.823A4.972 4.972 0 0 0 81.5 47c-2.762 0-5 2.237-5 5 0 2.762 2.238 5 5 5 .434 0 .848-.074 1.25-.177C80.596 56.266 79 54.327 79 52z"/></g><g><path fill="#78b0e5" d="M81.5 69.5c0 4.136-3.364 7.5-7.5 7.5-4.15 0-7.5-3.364-7.5-7.5 0-4.137 3.35-7.5 7.5-7.5 4.136 0 7.5 3.363 7.5 7.5z"/></g><g><path fill="#d7e9ff" d="M69 69.5c0-3.711 2.697-6.79 6.248-7.388A7.527 7.527 0 0 0 74 62c-4.15 0-7.5 3.363-7.5 7.5 0 4.136 3.35 7.5 7.5 7.5a7.52 7.52 0 0 0 1.248-.113A7.493 7.493 0 0 1 69 69.5z"/></g><g><g><path fill="#78b0e5" d="M52.837 23.25l.2 7.812H16.35l.238-7.812z"/></g><g><path fill="#78b0e5" d="M13.244 74.502H56.02a3.602 3.602 0 0 0 3.611-3.512v3.512a3.6 3.6 0 0 1-3.612 3.75H13.245a3.6 3.6 0 0 1-3.612-3.75V70.99a3.594 3.594 0 0 0 3.612 3.512z"/></g></g><g><g><path fill="#fff" d="M43.578 53.25l.05 6.25H36.19v-6.25z"/></g><g><path fill="#fff" d="M43.64 62l.05 6.25h-7.5V62z"/></g></g><g><g><path fill="#78b0e5" d="M53.667 44.5l.65 23.75h-8.125L46.03 44.5z"/></g><g><path fill="#78b0e5" d="M53.422 35.75L53.61 42h-7.6l-.05-6.25z"/></g></g><g><path fill="#fff" d="M43.527 44.5l.038 6.25H36.19V44.5z"/></g><g><g><path fill="#78b0e5" d="M43.465 35.79l.05 6.25H36.19v-6.25z"/></g><g><path fill="#78b0e5" d="M33.69 35.79v6.25h-7.25l.225-6.25z"/></g><g><path fill="#78b0e5" d="M24.164 35.75L23.94 42h-7.6l.362-6.25z"/></g></g><g><g><path fill="#fff" d="M33.688 44.5v6.25H26.15l.226-6.25z"/></g><g><path fill="#fff" d="M23.88 44.5l-.226 6.25H15.88l.362-6.25z"/></g><g><path fill="#fff" d="M33.687 53.25v6.25H25.85l.225-6.25z"/></g><g><path fill="#fff" d="M23.575 53.25l-.225 6.25H15.4l.363-6.25z"/></g><g><path fill="#fff" d="M23.29 62l-.225 6.212c0 .013-8.125.038-8.125.038l.363-6.25z"/></g><g><path fill="#fff" d="M33.685 62v6.25H25.56l.225-6.25z"/></g></g><g><path fill="#d7e9ff" d="M46.191 68.248h8.125l-.65-23.75H46.03zM53.616 42l-.188-6.25h-7.461l.05 6.25zm-38.674 26.25s8.125-.025 8.125-.039l.225-6.212h-7.987zm8.413-8.75l.225-6.25h-7.812l-.363 6.25zm.3-8.75l.225-6.25h-7.638l-.362 6.25zm.287-8.75l.225-6.25h-7.462L16.342 42zm9.75 0v-6.25h-7.025L26.442 42zm0 8.75v-6.25H26.38l-.226 6.25zm0 8.75v-6.25H26.08l-.225 6.25zm0 8.75v-6.25h-7.9l-.225 6.25zm9.825-26.25l-.05-6.25h-7.275V42zm.05 8.75l-.038-6.25h-7.337v6.25zm.062 8.75l-.05-6.25h-7.387v6.25zm.012 2.5h-7.45v6.25h7.5zm15.987 8.75v.237a3.601 3.601 0 0 1-3.612 3.512H13.242a3.593 3.593 0 0 1-3.612-3.512v-.238L12.13 22c.074-2.063 1.825-3.75 3.888-3.75H53.24c2.063 0 3.814 1.688 3.888 3.75l1.687 32.8zM53.04 31.061l-.2-7.812H16.593l-.238 7.812z"/></g><g><g><path fill="#5296d6" d="M23.985 40.75h-7.573l-.072 1.252h7.6z"/></g><g><path fill="#5296d6" d="M33.69 40.75h-7.205l-.045 1.252h7.25z"/></g></g><g><path fill="#94c8f9" d="M24.165 35.75h-7.462l-.073 1.252h7.49z"/></g><g><g><path fill="#d7e9ff" d="M23.7 49.5h-7.748l-.072 1.252h7.774z"/></g><g><path fill="#d7e9ff" d="M23.395 58.25h-7.923l-.072 1.252h7.95z"/></g><g><path fill="#d7e9ff" d="M23.109 67h-8.096l-.073 1.252 8.125-.037z"/></g><g><path fill="#d7e9ff" d="M33.685 67h-8.08l-.045 1.252 8.125-.037z"/></g><g><path fill="#d7e9ff" d="M43.68 67h-7.49v1.252h7.5z"/></g><g><path fill="#d7e9ff" d="M33.687 58.25h-7.792l-.045 1.252h7.837z"/></g><g><path fill="#d7e9ff" d="M43.618 58.25H36.19v1.252h7.438z"/></g><g><path fill="#d7e9ff" d="M33.688 49.5h-7.493l-.045 1.252h7.538z"/></g><g><path fill="#d7e9ff" d="M43.564 49.5h-7.376l-.018 1.252h7.394z"/></g></g><g><path fill="#94c8f9" d="M33.69 35.75h-7.025l-.045 1.29h7.07z"/></g><g><path fill="#5296d6" d="M43.502 40.75H36.19v1.252h7.325z"/></g><g><path fill="#94c8f9" d="M43.465 35.75H36.19v1.29h7.285z"/></g><g><path fill="#5296d6" d="M53.572 40.75H45.96l.05 1.252h7.6z"/></g><g><g><path fill="#94c8f9" d="M53.422 35.75H45.96l.01 1.29h7.49z"/></g><g><path fill="#94c8f9" d="M53.667 44.5H46.03l.008 1.292h7.665z"/></g></g><g><path fill="#5296d6" d="M54.279 67H46.18l.009 1.252h8.163z"/></g><g><g><path fill="#155a9a" d="M61.011 22.8a.63.63 0 0 1-.631-.625.62.62 0 0 1 .618-.625h.013a.625.625 0 0 1 0 1.25z"/></g><g><path fill="#155a9a" d="M62.781 21.04a.63.63 0 0 1-.631-.625.62.62 0 0 1 .618-.625h.013a.625.625 0 0 1 0 1.25z"/></g><g><path fill="#155a9a" d="M64.551 19.27a.63.63 0 0 1-.631-.625.62.62 0 0 1 .618-.625h.013a.625.625 0 0 1 0 1.25z"/></g><g><path fill="#155a9a" d="M62.13 51.715a.624.624 0 0 1-.442-1.067L82.24 30.095a3.15 3.15 0 0 1-.001-3.446L66.235 10.644a3.15 3.15 0 0 1-3.446-.002l-5.542 5.554a.625.625 0 1 1-.884-.883l5.937-5.95a.625.625 0 0 1 .882-.003 1.89 1.89 0 0 0 2.656.003.624.624 0 0 1 .884 0l16.798 16.8a.624.624 0 0 1 0 .883 1.89 1.89 0 0 0 .003 2.656.624.624 0 0 1-.003.881L62.571 51.532a.624.624 0 0 1-.442.183z"/></g><g><path fill="#155a9a" d="M62.127 55.253a.624.624 0 0 1-.442-1.067l25.807-25.82L64.515 5.39 53.707 16.196a.624.624 0 1 1-.884-.883l11.25-11.25a.625.625 0 0 1 .884 0l23.86 23.861a.624.624 0 0 1 0 .884L62.57 55.07a.623.623 0 0 1-.442.184z"/></g><g><path fill="#155a9a" d="M64.515 38.712a.625.625 0 0 1-.442-1.067l10.6-10.612a.626.626 0 0 1 .883.884l-10.6 10.612a.623.623 0 0 1-.441.183z"/></g><g><path fill="#155a9a" d="M62.735 35.18a.623.623 0 0 1-.442-.183l-2.55-2.55a.624.624 0 1 1 .884-.884l2.55 2.55a.625.625 0 0 1-.442 1.067z"/></g><g><path fill="#155a9a" d="M65.4 31.75a2.493 2.493 0 0 1-1.774-.737l-1.763-1.762a2.51 2.51 0 0 1 0-3.547c.958-.941 2.598-.936 3.534 0l1.775 1.776c.967.965.968 2.548.004 3.529a2.495 2.495 0 0 1-1.776.74zm-1.764-5.522c-.337 0-.653.13-.892.364a1.26 1.26 0 0 0 .003 1.775l1.763 1.762a1.285 1.285 0 0 0 1.778 0 1.258 1.258 0 0 0 0-1.766l-1.775-1.775a1.233 1.233 0 0 0-.877-.36z"/></g><g><path fill="#155a9a" d="M69.82 27.333a2.49 2.49 0 0 1-1.771-.736l-1.763-1.762a2.493 2.493 0 0 1-.736-1.783 2.46 2.46 0 0 1 .74-1.755c.92-.94 2.579-.948 3.53.004l1.762 1.763a2.491 2.491 0 0 1-.003 3.537 2.451 2.451 0 0 1-1.76.732zm-1.771-5.518c-.332 0-.644.13-.876.366a1.225 1.225 0 0 0-.373.877c-.001.336.13.653.37.893l1.762 1.762c.479.476 1.3.478 1.763.004.242-.238.372-.547.374-.877a1.246 1.246 0 0 0-.37-.893l-1.763-1.762a1.247 1.247 0 0 0-.887-.37z"/></g><g><path fill="#155a9a" d="M61.865 36.065A.625.625 0 0 1 61.42 35l1.766-1.778a.625.625 0 1 1 .884.884l-1.76 1.772a.627.627 0 0 1-.445.186z"/></g><g><path fill="#155a9a" d="M13.237 75.128A4.21 4.21 0 0 1 9 71.007v-.254l2.501-48.78c.086-2.39 2.11-4.343 4.512-4.343h37.222c2.401 0 4.427 1.952 4.513 4.352l2.5 49.009a4.214 4.214 0 0 1-4.237 4.137zm2.776-56.248c-1.737 0-3.2 1.412-3.263 3.148l-2.501 48.757.001.206a2.964 2.964 0 0 0 2.987 2.887H56.01a2.967 2.967 0 0 0 2.987-2.903v-.222l-2.499-48.716c-.063-1.745-1.527-3.157-3.264-3.157H16.013z"/></g><g><path fill="#155a9a" d="M56.014 78.87H13.24a4.207 4.207 0 0 1-3.056-1.29 4.217 4.217 0 0 1-1.181-3.107c.012-.346.318-.576.647-.603a.626.626 0 0 1 .603.647 2.974 2.974 0 0 0 2.987 3.103h42.774A2.974 2.974 0 0 0 59 74.517a.626.626 0 0 1 .603-.647c.344.004.633.257.647.603a4.216 4.216 0 0 1-1.182 3.106 4.204 4.204 0 0 1-3.055 1.29z"/></g><g><path fill="#155a9a" d="M9.625 75.122A.625.625 0 0 1 9 74.497v-3.512a.625.625 0 1 1 1.25 0v3.512c0 .345-.28.625-.625.625z"/></g><g><path fill="#155a9a" d="M59.625 75.122a.625.625 0 0 1-.625-.625v-3.512a.625.625 0 1 1 1.25 0v3.512c0 .345-.28.625-.625.625z"/></g><g><path fill="#155a9a" d="M36.185 42.63a.625.625 0 0 1-.625-.625v-6.25c0-.345.28-.625.625-.625h7.275c.343 0 .623.277.625.62l.05 6.25a.625.625 0 0 1-.625.63zm6.695-1.25l-.04-5h-6.03v5z"/></g><g><path fill="#155a9a" d="M46.015 42.63a.625.625 0 0 1-.625-.62l-.05-6.25a.621.621 0 0 1 .182-.445.622.622 0 0 1 .443-.185h7.462c.338 0 .614.269.625.606l.188 6.25a.624.624 0 0 1-.625.644zm.62-1.25h6.335l-.15-5h-6.225z"/></g><g><path fill="#155a9a" d="M16.345 42.63a.622.622 0 0 1-.624-.661l.362-6.25a.625.625 0 0 1 .624-.589h7.462a.623.623 0 0 1 .625.648l-.225 6.25a.625.625 0 0 1-.624.602zm.662-1.25h6.334l.18-5h-6.224z"/></g><g><path fill="#155a9a" d="M26.435 42.63a.623.623 0 0 1-.625-.648l.225-6.25a.625.625 0 0 1 .625-.602h7.025c.346 0 .625.28.625.625v6.25c0 .345-.28.625-.625.625zm.649-1.25h5.976v-5h-5.797z"/></g><g><path fill="#155a9a" d="M15.405 60.12a.623.623 0 0 1-.624-.662l.363-6.25a.626.626 0 0 1 .623-.588h7.812c.17 0 .332.068.45.192a.62.62 0 0 1 .175.455l-.224 6.25a.625.625 0 0 1-.625.603zm.663-1.25h6.684l.18-5h-6.575z"/></g><g><path fill="#155a9a" d="M36.185 60.12a.625.625 0 0 1-.625-.625v-6.25c0-.345.28-.625.625-.625h7.387c.343 0 .623.277.625.62l.05 6.25a.624.624 0 0 1-.624.63zm6.808-1.25l-.04-5H36.81v5z"/></g><g><path fill="#155a9a" d="M25.855 60.12a.619.619 0 0 1-.449-.192.62.62 0 0 1-.176-.455l.225-6.25a.625.625 0 0 1 .625-.603h7.612c.346 0 .625.28.625.625v6.25c0 .345-.28.625-.625.625zm.649-1.25h6.563v-5h-6.384z"/></g><g><path fill="#155a9a" d="M14.945 68.87a.626.626 0 0 1-.624-.662l.363-6.25a.626.626 0 0 1 .623-.588h7.987a.628.628 0 0 1 .625.648l-.225 6.212c0 .613 0 .613-8.747.64h-.002zm.952-6.25l-.29 4.997c2.465-.007 5.59-.02 6.86-.028l.179-4.969z"/></g><g><path fill="#155a9a" d="M46.187 68.87a.625.625 0 0 1-.625-.62L45.4 44.5a.627.627 0 0 1 .625-.63h7.638c.338 0 .615.27.625.608l.649 23.75a.627.627 0 0 1-.625.641zm.622-1.25h6.86l-.614-22.5h-6.4z"/></g><g><path fill="#155a9a" d="M36.185 68.87a.625.625 0 0 1-.625-.625v-6.25c0-.346.28-.625.625-.625h7.45c.343 0 .622.277.625.62l.05 6.25a.623.623 0 0 1-.625.63zm6.87-1.25l-.04-5H36.81v5z"/></g><g><path fill="#155a9a" d="M25.565 68.87a.618.618 0 0 1-.449-.192.62.62 0 0 1-.176-.455l.225-6.25a.625.625 0 0 1 .625-.603h7.9c.346 0 .625.28.625.625v6.25c0 .345-.28.625-.625.625zm.649-1.25h6.851v-5h-6.672z"/></g><g><path fill="#155a9a" d="M36.185 51.38a.625.625 0 0 1-.625-.625v-6.25c0-.346.28-.625.625-.625h7.337c.345 0 .623.277.625.621l.038 6.25a.626.626 0 0 1-.625.629zm6.746-1.25l-.03-5H36.81v5z"/></g><g><path fill="#155a9a" d="M15.875 51.37a.623.623 0 0 1-.624-.662l.363-6.25a.626.626 0 0 1 .623-.588h7.638a.628.628 0 0 1 .625.647l-.226 6.25a.626.626 0 0 1-.625.603zm.662-1.25h6.51l.18-5h-6.4z"/></g><g><path fill="#155a9a" d="M26.155 51.38a.628.628 0 0 1-.625-.647l.226-6.25a.625.625 0 0 1 .625-.603h7.312c.346 0 .625.28.625.625v6.25c0 .345-.28.625-.625.625zm.649-1.25h6.264v-5h-6.084z"/></g><g><path fill="#155a9a" d="M16.355 31.692a.628.628 0 0 1-.625-.644l.238-7.812a.626.626 0 0 1 .625-.606h36.249c.339 0 .616.27.625.61l.2 7.811a.63.63 0 0 1-.177.453.629.629 0 0 1-.448.188zm.645-1.25H52.4l-.168-6.562H17.2z"/></g><g><path fill="#155a9a" d="M81.505 57.62a5.631 5.631 0 0 1-5.625-5.625 5.631 5.631 0 0 1 5.625-5.625 5.631 5.631 0 0 1 5.625 5.625 5.63 5.63 0 0 1-5.625 5.625zm0-10a4.38 4.38 0 0 0-4.375 4.375 4.38 4.38 0 0 0 4.375 4.375 4.38 4.38 0 0 0 4.375-4.375 4.38 4.38 0 0 0-4.375-4.375z"/></g><g><path fill="#155a9a" d="M81.505 60.12a5.631 5.631 0 0 1-5.625-5.625.625.625 0 1 1 1.25 0 4.38 4.38 0 0 0 4.375 4.375 4.38 4.38 0 0 0 4.375-4.375.625.625 0 1 1 1.25 0 5.631 5.631 0 0 1-5.625 5.625z"/></g><g><path fill="#155a9a" d="M76.505 55.12a.625.625 0 0 1-.625-.625v-2.5a.625.625 0 1 1 1.25 0v2.5c0 .345-.28.625-.625.625z"/></g><g><path fill="#155a9a" d="M86.505 55.12a.625.625 0 0 1-.625-.625v-2.5a.625.625 0 1 1 1.25 0v2.5c0 .345-.28.625-.625.625z"/></g><g><path fill="#155a9a" d="M81.505 53.87a.625.625 0 0 1-.625-.625v-2.5a.625.625 0 1 1 1.25 0v2.5c0 .345-.28.625-.625.625z"/></g><g><path fill="#155a9a" d="M74.005 77.62c-4.48 0-8.125-3.646-8.125-8.125 0-4.48 3.645-8.125 8.125-8.125s8.124 3.645 8.124 8.125-3.645 8.124-8.124 8.124zm0-15a6.883 6.883 0 0 0-6.875 6.875 6.883 6.883 0 0 0 6.875 6.874 6.883 6.883 0 0 0 6.874-6.874 6.883 6.883 0 0 0-6.874-6.875z"/></g><g><path fill="#155a9a" d="M74.005 80.12c-4.48 0-8.125-3.645-8.125-8.125a.625.625 0 1 1 1.25 0 6.883 6.883 0 0 0 6.875 6.875 6.883 6.883 0 0 0 6.874-6.875.625.625 0 1 1 1.25 0c0 4.48-3.645 8.125-8.124 8.125z"/></g><g><path fill="#155a9a" d="M74.005 72.62a.625.625 0 0 1-.625-.625v-5a.625.625 0 1 1 1.25 0v5c0 .345-.28.625-.625.625z"/></g><g><path fill="#155a9a" d="M81.505 72.62a.625.625 0 0 1-.625-.625v-2.5a.625.625 0 1 1 1.25 0v2.5c0 .345-.28.625-.625.625z"/></g><g><path fill="#155a9a" d="M66.505 72.62a.625.625 0 0 1-.625-.625v-2.5a.625.625 0 1 1 1.25 0v2.5c0 .345-.28.625-.625.625z"/></g></g></g></g></svg>