<svg width="74" height="73" viewBox="0 0 74 73" fill="none" xmlns="http://www.w3.org/2000/svg">
<path d="M0.932129 1.93962C0.932129 1.30149 1.44944 0.78418 2.08758 0.78418C2.68716 0.78418 3.18712 1.2428 3.23873 1.84015L7.72202 53.724C7.89368 55.7106 6.32739 57.418 4.33339 57.418C2.45492 57.418 0.932129 55.8952 0.932129 54.0168V1.93962Z" fill="#5CA2E3" stroke="#155A9A" stroke-width="1.5"/>
<path d="M73.1841 1.93962C73.1841 1.30149 72.6668 0.78418 72.0286 0.78418C71.4291 0.78418 70.9291 1.2428 70.8775 1.84015L66.3942 53.724C66.2225 55.7106 67.7888 57.418 69.7828 57.418C71.6613 57.418 73.1841 55.8952 73.1841 54.0168V1.93962Z" fill="#5CA2E3" stroke="#155A9A" stroke-width="1.5"/>
<path d="M70.7964 60.3847V69.4951C70.7964 70.7485 69.832 71.7727 68.6543 71.7727H5.46346C4.28573 71.7727 3.32129 70.7485 3.32129 69.4951V60.3847C3.32129 59.3714 3.953 58.494 4.83161 58.2093C5.02415 58.1415 5.23852 58.1071 5.46346 58.1071H37.0589H68.6543C69.832 58.1071 70.7964 59.1323 70.7964 60.3847Z" fill="#5CA2E3"/>
<path d="M5.46346 69.4951V60.3847C5.46346 59.3714 6.09517 58.494 6.97365 58.2093C7.16619 58.1415 7.38056 58.1071 7.6055 58.1071H5.46346C5.23852 58.1071 5.02415 58.1415 4.83161 58.2093C3.953 58.494 3.32129 59.3714 3.32129 60.3847V69.4951C3.32129 70.7485 4.28573 71.7727 5.46346 71.7727H7.6055C6.42777 71.7727 5.46346 70.7485 5.46346 69.4951Z" fill="#D7E9FF"/>
<path d="M68.6533 60.3847V69.4951C68.6533 70.5093 68.0216 71.3856 67.1431 71.6704C66.9505 71.7393 66.7362 71.7727 66.5112 71.7727H68.6533C68.8782 71.7727 69.0926 71.7394 69.2851 71.6704C70.1637 71.3856 70.7954 70.5093 70.7954 69.4951V60.3847C70.7954 59.1323 69.831 58.1071 68.6533 58.1071H66.5112C67.689 58.1071 68.6533 59.1323 68.6533 60.3847Z" fill="#4487C6"/>
<path d="M49.3752 63.8007C49.9641 63.8007 50.4462 64.3133 50.4462 64.9395C50.4462 65.5655 49.9641 66.0783 49.3752 66.0783C48.7865 66.0783 48.3042 65.5655 48.3042 64.9395C48.3042 64.3133 48.7865 63.8007 49.3752 63.8007Z" fill="white"/>
<path d="M42.9494 63.8013C43.5382 63.8013 44.0205 64.3139 44.0205 64.9401C44.0205 65.5661 43.5382 66.0789 42.9494 66.0789C42.3606 66.0789 41.8784 65.5661 41.8784 64.9401C41.8784 64.3139 42.3606 63.8013 42.9494 63.8013Z" fill="white"/>
<path d="M36.5222 63.8007C37.1111 63.8007 37.5932 64.3133 37.5932 64.9395C37.5932 65.5655 37.1111 66.0783 36.5222 66.0783C35.9333 66.0783 35.4512 65.5655 35.4512 64.9395C35.4512 64.3133 35.9335 63.8007 36.5222 63.8007Z" fill="#94C1FF"/>
<path d="M30.0959 63.8007C30.6848 63.8007 31.1669 64.3133 31.1669 64.9395C31.1669 65.5655 30.6848 66.0783 30.0959 66.0783C29.5071 66.0783 29.0249 65.5655 29.0249 64.9395C29.0249 64.3133 29.5071 63.8007 30.0959 63.8007Z" fill="#94C1FF"/>
<path d="M23.6706 63.8013C24.2594 63.8013 24.7416 64.3139 24.7416 64.9401C24.7416 65.5661 24.2594 66.0789 23.6706 66.0789C23.0818 66.0789 22.5996 65.5661 22.5996 64.9401C22.5996 64.3139 23.0816 63.8013 23.6706 63.8013Z" fill="#94C1FF"/>
<path d="M9.74751 62.6622C10.9252 62.6622 11.8895 63.6876 11.8895 64.9398C11.8895 66.1933 10.9252 67.2175 9.74751 67.2175C8.55826 67.2175 7.60547 66.1933 7.60547 64.9398C7.60547 63.6876 8.55839 62.6622 9.74751 62.6622Z" fill="#D7E9FF"/>
<path d="M8.67649 64.9398C8.67649 63.8845 9.35627 62.9981 10.2809 62.7434C10.1094 62.6955 9.93268 62.6622 9.74751 62.6622C8.55826 62.6622 7.60547 63.6876 7.60547 64.9398C7.60547 66.1933 8.55826 67.2175 9.74751 67.2175C9.93268 67.2175 10.1094 67.1841 10.2809 67.1374C9.3564 66.8816 8.67649 65.9964 8.67649 64.9398Z" fill="white"/>
<path d="M10.8183 64.9398C10.8183 65.9964 10.1384 66.8816 9.21387 67.1374C9.38539 67.1841 9.56226 67.2175 9.7473 67.2175C10.9366 67.2175 11.8893 66.1933 11.8893 64.9398C11.8893 63.6876 10.9366 62.6622 9.7473 62.6622C9.56213 62.6622 9.38539 62.6955 9.21387 62.7434C10.1385 62.9981 10.8183 63.8845 10.8183 64.9398Z" fill="#94C1FF"/>
<path d="M66.5117 62.6622V67.2175H64.3697H62.2276H60.0854V62.6622H66.5117Z" fill="#5CA2E3"/>
<path d="M5.69774 58.1069L13.3466 47.8576C14.0316 46.7188 15.0389 46.7188 16.1736 46.7188H14.0317C12.8968 46.7188 11.8897 46.7188 11.2047 47.8576L4.39254 56.968L3.81104 58.9444C4.00357 58.8754 5.23875 58.1069 5.46369 58.1069H5.69774Z" fill="#4487C6"/>
<path d="M68.4199 58.1069L60.7709 47.8576C60.0859 46.7188 59.0786 46.7188 57.9438 46.7188H60.0859C61.2208 46.7188 62.2279 46.7188 62.9129 47.8576L69.7251 56.968L70.3067 58.9444C70.1141 58.8754 68.879 58.1069 68.654 58.1069H68.4199Z" fill="#4487C6"/>
<path d="M68.654 72.3418H5.46326C3.98641 72.3418 2.78564 71.0651 2.78564 69.4948V60.3843C2.78564 59.143 3.56277 58.0256 4.67556 57.6641C4.90773 57.5818 5.17766 57.5372 5.46326 57.5372H68.6539C70.1308 57.5372 71.3315 58.8151 71.3315 60.3843V69.4948C71.3317 71.0651 70.1309 72.3418 68.654 72.3418ZM5.46326 58.676C5.29281 58.676 5.1379 58.7005 5.00092 58.7495C4.32221 58.9697 3.85666 59.6403 3.85666 60.3843V69.4948C3.85666 70.4367 4.57728 71.203 5.46326 71.203H68.6539C69.5397 71.203 70.2605 70.4367 70.2605 69.4948V60.3843C70.2605 59.4423 69.5397 58.676 68.6539 58.676H5.46326Z" fill="#155A9A"/>
<path d="M4.39275 57.5373C4.27559 57.5373 4.15844 57.4973 4.05909 57.4139C3.82785 57.2181 3.78916 56.8599 3.97326 56.6144L10.7854 47.5038C10.9706 47.2558 11.3073 47.219 11.5384 47.4115C11.7696 47.6073 11.8083 47.9665 11.6242 48.2124L4.81211 57.3226C4.70646 57.4639 4.54967 57.5373 4.39275 57.5373Z" fill="#155A9A"/>
<path d="M69.7243 57.5374C69.5674 57.5374 69.4106 57.4639 69.3049 57.3227L62.4928 48.2122C62.3087 47.9664 62.3474 47.6072 62.5786 47.4114C62.8117 47.2189 63.1475 47.2557 63.3316 47.5037L70.1438 56.6142C70.3279 56.86 70.2892 57.218 70.0579 57.4138C69.9586 57.4973 69.8414 57.5374 69.7243 57.5374Z" fill="#155A9A"/>
<path d="M60.0859 47.2879H14.0317C13.7358 47.2879 13.4961 47.0332 13.4961 46.7185C13.4961 46.4037 13.7356 46.149 14.0317 46.149H60.0859C60.3818 46.149 60.6213 46.4037 60.6213 46.7185C60.6213 47.0332 60.3818 47.2879 60.0859 47.2879Z" fill="#155A9A"/>
<path d="M11.2046 48.4268C11.1052 48.4268 11.0059 48.3979 10.9159 48.3378C10.667 48.1677 10.5937 47.8162 10.7538 47.5504C11.5967 46.1491 12.8341 46.149 14.0316 46.149C14.3277 46.149 14.5672 46.4037 14.5672 46.7185C14.5672 47.0332 14.3277 47.2879 14.0316 47.2879C12.8508 47.2879 12.1584 47.329 11.6553 48.1643C11.5539 48.3344 11.3802 48.4268 11.2046 48.4268Z" fill="#155A9A"/>
<path d="M62.9129 48.4268C62.7372 48.4268 62.5637 48.3345 62.4622 48.1643C61.9591 47.329 61.2667 47.2879 60.0859 47.2879C59.7898 47.2879 59.5503 47.0332 59.5503 46.7185C59.5503 46.4037 59.7898 46.149 60.0859 46.149C61.2834 46.149 62.5209 46.1491 63.3637 47.5504C63.5237 47.8162 63.4505 48.1677 63.2016 48.3378C63.1116 48.3979 63.0123 48.4268 62.9129 48.4268Z" fill="#155A9A"/>
<path d="M9.74695 67.7869C8.2701 67.7869 7.06934 66.51 7.06934 64.9399C7.06934 63.3707 8.2701 62.0928 9.74695 62.0928C11.2238 62.0928 12.4246 63.3707 12.4246 64.9399C12.4246 66.51 11.2238 67.7869 9.74695 67.7869ZM9.74695 63.2316C8.86111 63.2316 8.14035 63.9978 8.14035 64.9399C8.14035 65.8818 8.86111 66.648 9.74695 66.648C10.6328 66.648 11.3535 65.8818 11.3535 64.9399C11.3535 63.9978 10.6329 63.2316 9.74695 63.2316Z" fill="#155A9A"/>
<path d="M66.5121 67.7869H60.0859C59.7898 67.7869 59.5503 67.5322 59.5503 67.2175V62.6622C59.5503 62.3475 59.7898 62.0928 60.0859 62.0928H66.512C66.808 62.0928 67.0476 62.3475 67.0476 62.6622V67.2175C67.0477 67.5322 66.8082 67.7869 66.5121 67.7869ZM60.6213 66.648H65.9765V63.2316H60.6213V66.648Z" fill="#155A9A"/>
<path d="M23.6711 66.6475C22.7851 66.6475 22.0645 65.8813 22.0645 64.9394C22.0645 63.9973 22.7851 63.2311 23.6711 63.2311C24.5569 63.2311 25.2775 63.9973 25.2775 64.9394C25.2775 65.8813 24.5569 66.6475 23.6711 66.6475ZM23.6711 64.3699C23.3761 64.3699 23.1355 64.6257 23.1355 64.9394C23.1355 65.2541 23.3761 65.5087 23.6711 65.5087C23.966 65.5087 24.2065 65.2541 24.2065 64.9394C24.2065 64.6257 23.9659 64.3699 23.6711 64.3699Z" fill="#155A9A"/>
<path d="M30.0968 66.6475C29.211 66.6475 28.4902 65.8813 28.4902 64.9394C28.4902 63.9973 29.2109 63.2311 30.0968 63.2311C30.9828 63.2311 31.7034 63.9973 31.7034 64.9394C31.7034 65.8813 30.9827 66.6475 30.0968 66.6475ZM30.0968 64.3699C29.8019 64.3699 29.5613 64.6257 29.5613 64.9394C29.5613 65.2541 29.8017 65.5087 30.0968 65.5087C30.3919 65.5087 30.6324 65.2541 30.6324 64.9394C30.6323 64.6257 30.3918 64.3699 30.0968 64.3699Z" fill="#155A9A"/>
<path d="M36.5226 66.6475C35.6366 66.6475 34.916 65.8813 34.916 64.9394C34.916 63.9973 35.6366 63.2311 36.5226 63.2311C37.4086 63.2311 38.1292 63.9973 38.1292 64.9394C38.1292 65.8813 37.4086 66.6475 36.5226 66.6475ZM36.5226 64.3699C36.2276 64.3699 35.987 64.6257 35.987 64.9394C35.987 65.2541 36.2276 65.5087 36.5226 65.5087C36.8176 65.5087 37.0582 65.2541 37.0582 64.9394C37.0582 64.6257 36.8176 64.3699 36.5226 64.3699Z" fill="#155A9A"/>
<path d="M42.9494 66.6475C42.0634 66.6475 41.3428 65.8813 41.3428 64.9394C41.3428 63.9973 42.0634 63.2311 42.9494 63.2311C43.8352 63.2311 44.5558 63.9973 44.5558 64.9394C44.5558 65.8813 43.8352 66.6475 42.9494 66.6475ZM42.9494 64.3699C42.6544 64.3699 42.4138 64.6257 42.4138 64.9394C42.4138 65.2541 42.6544 65.5087 42.9494 65.5087C43.2443 65.5087 43.4849 65.2541 43.4849 64.9394C43.4849 64.6257 43.2443 64.3699 42.9494 64.3699Z" fill="#155A9A"/>
<path d="M49.3755 66.6475C48.4897 66.6475 47.769 65.8813 47.769 64.9394C47.769 63.9973 48.4897 63.2311 49.3755 63.2311C50.2615 63.2311 50.9821 63.9973 50.9821 64.9394C50.9821 65.8813 50.2615 66.6475 49.3755 66.6475ZM49.3755 64.3699C49.0805 64.3699 48.8401 64.6257 48.8401 64.9394C48.8401 65.2541 49.0805 65.5087 49.3755 65.5087C49.6705 65.5087 49.9111 65.2541 49.9111 64.9394C49.9111 64.6257 49.6705 64.3699 49.3755 64.3699Z" fill="#155A9A"/>
<path d="M13.6611 47.1622H60.4568L68.6955 57.6744H5.75195L13.6611 47.1622Z" fill="#BBDEFF"/>
<path d="M32.0657 29.1112C31.1213 30.0557 31.1213 31.5867 32.0657 32.5312C33.01 33.4756 34.5412 33.4756 35.4857 32.5312C35.7512 32.2656 36.3253 31.8202 37.1859 31.8202C38.0464 31.8202 38.6204 32.2656 38.8861 32.5312C39.8303 33.4756 41.3616 33.4757 42.306 32.5312C43.2504 31.5867 43.2504 30.0557 42.306 29.1112C41.5113 28.3168 39.7895 26.9836 37.1859 26.9836C34.5822 26.9836 32.8604 28.3168 32.0657 29.1112Z" fill="#BBDEFF"/>
<path d="M55.9927 18.8584C56.9374 17.9146 56.9382 16.3834 55.9945 15.4385C50.969 10.408 44.2894 7.63745 37.1856 7.63745C30.0819 7.63745 23.4021 10.408 18.3768 15.4385C17.433 16.3834 17.4337 17.9145 18.3786 18.8584C19.3235 19.8023 20.8547 19.8015 21.7985 18.8566C25.91 14.7407 31.3747 12.474 37.1855 12.474C42.9963 12.474 48.4608 14.7407 52.5725 18.8566C53.5161 19.801 55.047 19.803 55.9927 18.8584Z" fill="#BBDEFF"/>
<path d="M49.1509 25.6935C50.0953 24.7491 50.0953 23.218 49.1509 22.2736C45.9506 19.0732 41.7012 17.3108 37.1856 17.3108C32.6701 17.3108 28.4207 19.0732 25.2205 22.2736C24.2761 23.218 24.2761 24.7491 25.2205 25.6935C26.1648 26.6379 27.696 26.6381 28.6404 25.6935C30.9272 23.4068 33.9619 22.1473 37.1856 22.1473C40.4094 22.1473 43.4441 23.4068 45.731 25.6935C46.6753 26.6379 48.2065 26.6379 49.1509 25.6935Z" fill="#BBDEFF"/>
</svg>
