<svg width="186" height="120" viewBox="0 0 186 120" fill="none" xmlns="http://www.w3.org/2000/svg">
<path d="M93 18C41.6375 18 0 59.6375 0 111H186C186 59.6375 144.362 18 93 18Z" fill="#F6F6F6"/>
<path d="M52.9404 21.0333C52.9404 20.2789 53.552 19.6672 54.3065 19.6672C55.0154 19.6672 55.6065 20.2095 55.6675 20.9157L60.6464 78.535C60.8412 80.7896 59.0636 82.7275 56.8006 82.7275C54.6687 82.7275 52.9404 80.9992 52.9404 78.8673V21.0333Z" fill="#5CA2E3" stroke="#155A9A" stroke-width="1.5"/>
<path d="M133.345 21.0333C133.345 20.2789 132.734 19.6672 131.979 19.6672C131.27 19.6672 130.679 20.2095 130.618 20.9157L125.639 78.535C125.444 80.7896 127.222 82.7275 129.485 82.7275C131.617 82.7275 133.345 80.9992 133.345 78.8673V21.0333Z" fill="#5CA2E3" stroke="#155A9A" stroke-width="1.5"/>
<path d="M130.61 85.9391V96.0566C130.61 97.4486 129.539 98.586 128.231 98.586H58.0548C56.7468 98.586 55.6758 97.4486 55.6758 96.0566V85.9391C55.6758 84.8138 56.3773 83.8394 57.3531 83.5232C57.5669 83.4479 57.8049 83.4097 58.0548 83.4097H93.1428H128.231C129.539 83.4097 130.61 84.5482 130.61 85.9391Z" fill="#5CA2E3"/>
<path d="M58.0548 96.0566V85.9391C58.0548 84.8138 58.7563 83.8394 59.7319 83.5232C59.9457 83.4479 60.1838 83.4097 60.4336 83.4097H58.0548C57.8049 83.4097 57.5669 83.4479 57.3531 83.5232C56.3773 83.8394 55.6758 84.8138 55.6758 85.9391V96.0566C55.6758 97.4486 56.7468 98.586 58.0548 98.586H60.4336C59.1257 98.586 58.0548 97.4486 58.0548 96.0566Z" fill="#D7E9FF"/>
<path d="M128.23 85.9391V96.0566C128.23 97.183 127.529 98.1561 126.553 98.4723C126.339 98.5488 126.101 98.586 125.852 98.586H128.23C128.48 98.586 128.718 98.549 128.932 98.4723C129.908 98.1561 130.609 97.183 130.609 96.0566V85.9391C130.609 84.5482 129.538 83.4097 128.23 83.4097H125.852C127.159 83.4097 128.23 84.5482 128.23 85.9391Z" fill="#4487C6"/>
<path d="M106.821 89.7329C107.475 89.7329 108.01 90.3023 108.01 90.9976C108.01 91.6928 107.475 92.2623 106.821 92.2623C106.167 92.2623 105.632 91.6928 105.632 90.9976C105.632 90.3023 106.167 89.7329 106.821 89.7329Z" fill="white"/>
<path d="M99.6845 89.7329C100.338 89.7329 100.874 90.3023 100.874 90.9976C100.874 91.6928 100.338 92.2623 99.6845 92.2623C99.0306 92.2623 98.4951 91.6928 98.4951 90.9976C98.4951 90.3023 99.0306 89.7329 99.6845 89.7329Z" fill="white"/>
<path d="M92.5473 89.7329C93.2013 89.7329 93.7367 90.3023 93.7367 90.9976C93.7367 91.6928 93.2013 92.2623 92.5473 92.2623C91.8934 92.2623 91.3579 91.6928 91.3579 90.9976C91.3579 90.3023 91.8935 89.7329 92.5473 89.7329Z" fill="#94C1FF"/>
<path d="M85.4113 89.7329C86.0653 89.7329 86.6008 90.3023 86.6008 90.9976C86.6008 91.6928 86.0653 92.2623 85.4113 92.2623C84.7574 92.2623 84.2219 91.6928 84.2219 90.9976C84.2219 90.3023 84.7574 89.7329 85.4113 89.7329Z" fill="#94C1FF"/>
<path d="M78.2749 89.7329C78.9287 89.7329 79.4643 90.3023 79.4643 90.9976C79.4643 91.6928 78.9287 92.2623 78.2749 92.2623C77.6209 92.2623 77.0854 91.6928 77.0854 90.9976C77.0854 90.3023 77.6208 89.7329 78.2749 89.7329Z" fill="#94C1FF"/>
<path d="M62.8124 88.4685C64.1203 88.4685 65.1913 89.6072 65.1913 90.9979C65.1913 92.3899 64.1203 93.5273 62.8124 93.5273C61.4917 93.5273 60.4336 92.3899 60.4336 90.9979C60.4336 89.6072 61.4919 88.4685 62.8124 88.4685Z" fill="#D7E9FF"/>
<path d="M61.623 90.9979C61.623 89.8259 62.3779 88.8415 63.4048 88.5586C63.2143 88.5055 63.0181 88.4685 62.8124 88.4685C61.4917 88.4685 60.4336 89.6072 60.4336 90.9979C60.4336 92.3899 61.4917 93.5273 62.8124 93.5273C63.0181 93.5273 63.2143 93.4903 63.4048 93.4384C62.3781 93.1543 61.623 92.1712 61.623 90.9979Z" fill="white"/>
<path d="M64.0015 90.9979C64.0015 92.1712 63.2465 93.1543 62.2197 93.4384C62.4102 93.4903 62.6066 93.5273 62.8121 93.5273C64.1328 93.5273 65.191 92.3899 65.191 90.9979C65.191 89.6072 64.1328 88.4685 62.8121 88.4685C62.6065 88.4685 62.4102 88.5055 62.2197 88.5586C63.2466 88.8415 64.0015 89.8259 64.0015 90.9979Z" fill="#94C1FF"/>
<path d="M125.852 88.4685V93.5273H123.473H121.095H118.716V88.4685H125.852Z" fill="#5CA2E3"/>
<path d="M58.315 83.4095L66.8094 72.0271C67.5701 70.7625 68.6887 70.7625 69.9489 70.7625H67.5702C66.3099 70.7625 65.1914 70.7625 64.4307 72.0271L56.8655 82.1447L56.2197 84.3395C56.4336 84.263 57.8053 83.4095 58.0551 83.4095H58.315Z" fill="#4487C6"/>
<path d="M127.971 83.4095L119.476 72.0271C118.715 70.7625 117.597 70.7625 116.337 70.7625H118.715C119.976 70.7625 121.094 70.7625 121.855 72.0271L129.42 82.1447L130.066 84.3395C129.852 84.263 128.481 83.4095 128.231 83.4095H127.971Z" fill="#4487C6"/>
<path d="M128.231 99.2183H58.0547C56.4146 99.2183 55.0811 97.8004 55.0811 96.0565V85.9389C55.0811 84.5604 55.9441 83.3194 57.1799 82.918C57.4377 82.8266 57.7375 82.7771 58.0547 82.7771H128.231C129.871 82.7771 131.204 84.1963 131.204 85.9389V96.0565C131.204 97.8004 129.871 99.2183 128.231 99.2183ZM58.0547 84.0418C57.8654 84.0418 57.6933 84.069 57.5412 84.1234C56.7875 84.368 56.2705 85.1127 56.2705 85.9389V96.0565C56.2705 97.1025 57.0707 97.9536 58.0547 97.9536H128.231C129.214 97.9536 130.015 97.1025 130.015 96.0565V85.9389C130.015 84.8927 129.214 84.0418 128.231 84.0418H58.0547Z" fill="#155A9A"/>
<path d="M56.8651 82.7773C56.735 82.7773 56.6049 82.7329 56.4945 82.6402C56.2377 82.4228 56.1947 82.025 56.3992 81.7523L63.9644 71.6346C64.17 71.3592 64.544 71.3184 64.8006 71.5321C65.0574 71.7495 65.1004 72.1484 64.896 72.4215L57.3308 82.5389C57.2135 82.6957 57.0393 82.7773 56.8651 82.7773Z" fill="#155A9A"/>
<path d="M129.42 82.7772C129.246 82.7772 129.072 82.6956 128.954 82.5388L121.389 72.4212C121.185 72.1482 121.228 71.7493 121.485 71.5319C121.743 71.3181 122.116 71.3589 122.321 71.6343L129.886 81.752C130.09 82.0249 130.047 82.4226 129.791 82.64C129.68 82.7328 129.55 82.7772 129.42 82.7772Z" fill="#155A9A"/>
<path d="M118.715 71.3946H67.5701C67.2415 71.3946 66.9753 71.1117 66.9753 70.7623C66.9753 70.4127 67.2414 70.1299 67.5701 70.1299H118.715C119.044 70.1299 119.31 70.4127 119.31 70.7623C119.31 71.1117 119.044 71.3946 118.715 71.3946Z" fill="#155A9A"/>
<path d="M64.4305 72.6594C64.3202 72.6594 64.2099 72.6273 64.1099 72.5606C63.8335 72.3717 63.7522 71.9813 63.9299 71.6861C64.8661 70.1299 66.2402 70.1299 67.5701 70.1299C67.8989 70.1299 68.1649 70.4127 68.1649 70.7623C68.1649 71.1117 67.8989 71.3946 67.5701 71.3946C66.2587 71.3946 65.4898 71.4403 64.931 72.3679C64.8185 72.5568 64.6256 72.6594 64.4305 72.6594Z" fill="#155A9A"/>
<path d="M121.855 72.6594C121.66 72.6594 121.467 72.557 121.354 72.3679C120.796 71.4403 120.027 71.3946 118.715 71.3946C118.387 71.3946 118.121 71.1117 118.121 70.7623C118.121 70.4127 118.387 70.1299 118.715 70.1299C120.045 70.1299 121.42 70.1299 122.356 71.6861C122.533 71.9813 122.452 72.3717 122.176 72.5606C122.076 72.6273 121.965 72.6594 121.855 72.6594Z" fill="#155A9A"/>
<path d="M62.8122 94.1598C61.1721 94.1598 59.8386 92.7418 59.8386 90.998C59.8386 89.2553 61.1721 87.8362 62.8122 87.8362C64.4523 87.8362 65.7858 89.2553 65.7858 90.998C65.7858 92.7418 64.4523 94.1598 62.8122 94.1598ZM62.8122 89.1009C61.8285 89.1009 61.028 89.9518 61.028 90.998C61.028 92.044 61.8285 92.895 62.8122 92.895C63.796 92.895 64.5964 92.044 64.5964 90.998C64.5964 89.9518 63.7961 89.1009 62.8122 89.1009Z" fill="#155A9A"/>
<path d="M125.852 94.1598H118.715C118.387 94.1598 118.121 93.877 118.121 93.5274V88.4686C118.121 88.119 118.387 87.8362 118.715 87.8362H125.852C126.181 87.8362 126.447 88.119 126.447 88.4686V93.5274C126.447 93.877 126.181 94.1598 125.852 94.1598ZM119.31 92.895H125.257V89.1009H119.31V92.895Z" fill="#155A9A"/>
<path d="M78.2749 92.8944C77.291 92.8944 76.4907 92.0435 76.4907 90.9975C76.4907 89.9513 77.291 89.1003 78.2749 89.1003C79.2587 89.1003 80.059 89.9513 80.059 90.9975C80.059 92.0435 79.2587 92.8944 78.2749 92.8944ZM78.2749 90.365C77.9473 90.365 77.6801 90.6492 77.6801 90.9975C77.6801 91.347 77.9473 91.6297 78.2749 91.6297C78.6025 91.6297 78.8696 91.347 78.8696 90.9975C78.8696 90.6492 78.6023 90.365 78.2749 90.365Z" fill="#155A9A"/>
<path d="M85.4114 92.8944C84.4276 92.8944 83.6272 92.0435 83.6272 90.9975C83.6272 89.9513 84.4275 89.1003 85.4114 89.1003C86.3953 89.1003 87.1956 89.9513 87.1956 90.9975C87.1956 92.0435 86.3952 92.8944 85.4114 92.8944ZM85.4114 90.365C85.0838 90.365 84.8166 90.6492 84.8166 90.9975C84.8166 91.347 85.0837 91.6297 85.4114 91.6297C85.7391 91.6297 86.0062 91.347 86.0062 90.9975C86.006 90.6492 85.739 90.365 85.4114 90.365Z" fill="#155A9A"/>
<path d="M92.5479 92.8944C91.564 92.8944 90.7637 92.0435 90.7637 90.9975C90.7637 89.9513 91.564 89.1003 92.5479 89.1003C93.5318 89.1003 94.3321 89.9513 94.3321 90.9975C94.3321 92.0435 93.5318 92.8944 92.5479 92.8944ZM92.5479 90.365C92.2203 90.365 91.9531 90.6492 91.9531 90.9975C91.9531 91.347 92.2203 91.6297 92.5479 91.6297C92.8754 91.6297 93.1427 91.347 93.1427 90.9975C93.1427 90.6492 92.8754 90.365 92.5479 90.365Z" fill="#155A9A"/>
<path d="M99.6846 92.8944C98.7007 92.8944 97.9004 92.0435 97.9004 90.9975C97.9004 89.9513 98.7007 89.1003 99.6846 89.1003C100.668 89.1003 101.469 89.9513 101.469 90.9975C101.469 92.0435 100.668 92.8944 99.6846 92.8944ZM99.6846 90.365C99.357 90.365 99.0898 90.6492 99.0898 90.9975C99.0898 91.347 99.357 91.6297 99.6846 91.6297C100.012 91.6297 100.279 91.347 100.279 90.9975C100.279 90.6492 100.012 90.365 99.6846 90.365Z" fill="#155A9A"/>
<path d="M106.821 92.8944C105.837 92.8944 105.037 92.0435 105.037 90.9975C105.037 89.9513 105.837 89.1003 106.821 89.1003C107.805 89.1003 108.605 89.9513 108.605 90.9975C108.605 92.0435 107.805 92.8944 106.821 92.8944ZM106.821 90.365C106.494 90.365 106.227 90.6492 106.227 90.9975C106.227 91.347 106.494 91.6297 106.821 91.6297C107.149 91.6297 107.416 91.347 107.416 90.9975C107.416 90.6492 107.149 90.365 106.821 90.365Z" fill="#155A9A"/>
<path d="M67.1582 71.2551H119.127L128.276 82.9293H58.3748L67.1582 71.2551Z" fill="#BBDEFF"/>
<path d="M87.5986 51.2083C86.5498 52.2571 86.5498 53.9574 87.5986 55.0062C88.6473 56.055 90.3478 56.055 91.3966 55.0062C91.6915 54.7113 92.329 54.2167 93.2848 54.2167C94.2405 54.2167 94.8778 54.7113 95.1729 55.0062C96.2215 56.055 97.9221 56.0552 98.9709 55.0062C100.02 53.9574 100.02 52.2571 98.9709 51.2083C98.0884 50.3259 96.1762 48.8455 93.2848 48.8455C90.3933 48.8455 88.4811 50.3259 87.5986 51.2083Z" fill="#BBDEFF"/>
<path d="M114.171 39.8222C115.22 38.7741 115.221 37.0736 114.173 36.0242C108.592 30.4376 101.174 27.3608 93.2849 27.3608C85.3959 27.3608 77.9777 30.4376 72.3969 36.0242C71.3488 37.0736 71.3495 38.7739 72.3989 39.8222C73.4482 40.8705 75.1487 40.8696 76.1968 39.8202C80.7629 35.2493 86.8316 32.732 93.2848 32.732C99.7379 32.732 105.806 35.2493 110.373 39.8202C111.421 40.869 113.121 40.8712 114.171 39.8222Z" fill="#BBDEFF"/>
<path d="M106.573 47.4126C107.621 46.3638 107.621 44.6635 106.573 43.6147C103.018 40.0605 98.2994 38.1033 93.2846 38.1033C88.2699 38.1033 83.5508 40.0605 79.9968 43.6147C78.948 44.6635 78.948 46.3638 79.9968 47.4126C81.0455 48.4614 82.746 48.4616 83.7948 47.4126C86.3343 44.8731 89.7045 43.4745 93.2846 43.4745C96.8647 43.4745 100.235 44.8731 102.775 47.4126C103.823 48.4614 105.524 48.4614 106.573 47.4126Z" fill="#BBDEFF"/>
</svg>
