<svg width="79" height="84" viewBox="0 0 79 84" fill="none" xmlns="http://www.w3.org/2000/svg">
<path d="M70.1941 66.0025C68.6406 65.428 66.7622 64.959 64.7259 64.3065C63.1342 63.8096 61.4509 63.1966 59.7545 62.3351L56.8438 61.578C56.6221 61.9565 56.3875 62.3491 56.1404 62.7403C51.6635 69.8129 45.0483 72.7887 41.6672 73.8975C41.2772 74.0288 40.9369 74.1308 40.6415 74.2135L40.6237 74.1461C40.0146 74.3231 39.5965 74.4187 39.4029 74.4595C39.2104 74.4187 38.7924 74.3231 38.1833 74.1461L38.1655 74.2135C37.8699 74.1308 37.5296 74.0288 37.1396 73.8975C33.7586 72.7887 27.1435 69.8131 22.6666 62.7403C22.4193 62.3491 22.1849 61.9565 21.9632 61.578L19.0525 62.3351C17.3563 63.1966 15.6728 63.8096 14.0812 64.3065C12.0447 64.959 10.1662 65.428 8.61291 66.0025C3.3931 67.9474 0.783203 69.9175 0.783203 75.1373C0.783203 80.3571 0.783203 82.967 0.783203 82.967H29.2577H37.322H37.5704H41.2368H41.4852H49.5495H78.024C78.024 82.967 78.024 80.3571 78.024 75.1373C78.024 69.9175 75.4139 67.9474 70.1941 66.0025Z" fill="#7FB5E7"/>
<path d="M3.3931 77.7472C3.3931 72.5274 6.00301 70.5573 11.2228 68.6126C12.7761 68.0379 14.6547 67.5689 16.6911 66.9164C18.2827 66.4193 19.9662 65.8063 21.6624 64.945L23.811 64.3868C23.4185 63.8618 23.0335 63.3189 22.6666 62.7403C22.4193 62.3491 22.1849 61.9565 21.9632 61.578L19.0525 62.3351C17.3563 63.1966 15.6728 63.8096 14.0812 64.3065C12.0447 64.959 10.1662 65.428 8.61291 66.0025C3.3931 67.9474 0.783203 69.9175 0.783203 75.1373C0.783203 80.3571 0.783203 82.967 0.783203 82.967H3.3931C3.3931 81.69 3.3931 79.9696 3.3931 77.7472Z" fill="#D7E9FF"/>
<path d="M75.5072 77.7472C75.5072 72.5274 72.8973 70.5573 67.6775 68.6126C66.1242 68.0379 64.2456 67.5689 62.2093 66.9164C60.6176 66.4193 58.9341 65.8063 57.2379 64.945L55.0894 64.3868C55.4818 63.8618 55.8668 63.3189 56.2339 62.7403C56.481 62.3491 56.7154 61.9565 56.9373 61.578L59.848 62.3351C61.544 63.1966 63.2277 63.8096 64.8194 64.3065C66.8557 64.959 68.7341 65.428 70.2876 66.0025C75.5074 67.9474 78.1173 69.9175 78.1173 75.1373C78.1173 80.3571 78.1173 82.967 78.1173 82.967H75.5074C75.5072 81.69 75.5072 79.9696 75.5072 77.7472Z" fill="#4487C6"/>
<path d="M41.6665 73.8981H37.5703V82.968H41.6665V73.8981Z" fill="#E6E9ED"/>
<path d="M55.6075 14.0272L54.5089 15.5143C52.447 17.8107 49.1846 19.6643 44.0948 20.4079C42.4599 20.6488 40.9407 20.808 39.5275 20.8979C38.1142 20.808 36.5951 20.6488 34.9602 20.4079C29.8704 19.6643 26.608 17.8107 24.5461 15.5143L23.4476 14.0272C18.7707 18.3722 16.6909 25.5366 16.6909 32.0742C16.6909 32.9355 16.7431 33.7836 16.835 34.6453L17.5651 36.6415C17.5651 36.6415 17.7346 45.5149 24.5601 43.6351C31.3843 41.7567 35.5349 38.625 38.1448 41.1438C39.084 42.0443 39.5275 43.0097 39.5275 43.9487C39.5275 43.0095 39.9711 42.0441 40.9102 41.1438C43.5201 38.6251 47.6707 41.7569 54.4949 43.6351C61.3206 45.5147 61.4901 36.6415 61.4901 36.6415L62.2202 34.6453C62.3119 33.7838 62.3643 32.9357 62.3643 32.0742C62.3641 25.5366 60.2844 18.3722 55.6075 14.0272Z" fill="#D7E9FF"/>
<path d="M36.0735 33.6961C36.0735 34.4557 35.4515 35.0779 34.6919 35.0779H25.0198C24.2603 35.0779 23.6382 34.4557 23.6382 33.6961V30.9326C23.6382 30.173 24.2603 29.551 25.0198 29.551H34.6919C35.4515 29.551 36.0735 30.173 36.0735 30.9326V32.3556V33.6961Z" fill="#88BBEA"/>
<path d="M26.9463 35.0779H29.8076L31.2884 29.551H28.4277L26.9463 35.0779Z" fill="#D7E9FF"/>
<path d="M30.5474 35.0779H31.2868L32.7677 29.551H32.0283L30.5474 35.0779Z" fill="#D7E9FF"/>
<path d="M55.4182 33.6961C55.4182 34.4557 54.7961 35.0779 54.0364 35.0779H44.3645C43.6049 35.0779 42.9829 34.4557 42.9829 33.6961V30.9326C42.9829 30.173 43.6049 29.551 44.3645 29.551H54.0364C54.7961 29.551 55.4182 30.173 55.4182 30.9326V32.3556V33.6961Z" fill="#88BBEA"/>
<path d="M46.2896 35.0779H49.1514L50.6317 29.551H47.7712L46.2896 35.0779Z" fill="#D7E9FF"/>
<path d="M49.8911 35.0779H50.6305L52.112 29.551H51.3727L49.8911 35.0779Z" fill="#D7E9FF"/>
<path d="M34.6918 35.7687H25.0198C23.877 35.7687 22.9473 34.8391 22.9473 33.6962V30.9328C22.9473 29.7898 23.877 28.8602 25.0198 28.8602H34.6918C35.8346 28.8602 36.7644 29.7898 36.7644 30.9328V33.6962C36.7644 34.8391 35.8346 35.7687 34.6918 35.7687ZM25.0198 30.2419C24.6386 30.2419 24.3291 30.5514 24.3291 30.9328V33.6962C24.3291 34.0774 24.6386 34.3871 25.0198 34.3871H34.6918C35.073 34.3871 35.3827 34.0774 35.3827 33.6962V30.9328C35.3827 30.5515 35.073 30.2419 34.6918 30.2419H25.0198Z" fill="#155A9A"/>
<path d="M54.0359 35.7683H44.364C43.2211 35.7683 42.2915 34.8387 42.2915 33.6958V30.9324C42.2915 29.7895 43.2211 28.8599 44.364 28.8599H54.0359C55.1788 28.8599 56.1086 29.7895 56.1086 30.9324V33.6958C56.1086 34.8387 55.1788 35.7683 54.0359 35.7683ZM44.364 30.2415C43.9835 30.2415 43.6731 30.551 43.6731 30.9324V33.6958C43.6731 34.077 43.9835 34.3867 44.364 34.3867H54.0359C54.4164 34.3867 54.7268 34.077 54.7268 33.6958V30.9324C54.7268 30.5512 54.4164 30.2415 54.0359 30.2415H44.364Z" fill="#155A9A"/>
<path d="M42.9827 33.0461H36.074C35.6921 33.0461 35.3833 32.7371 35.3833 32.3552C35.3833 31.9733 35.6921 31.6643 36.074 31.6643H42.9827C43.3644 31.6643 43.6734 31.9733 43.6734 32.3552C43.6734 32.7371 43.3644 33.0461 42.9827 33.0461Z" fill="#155A9A"/>
<path d="M19.4452 34.6455C19.3535 33.784 19.3011 32.9359 19.3011 32.0744C19.3011 26.26 20.9577 19.9627 24.6128 15.5809C24.5911 15.5586 24.5669 15.5375 24.5466 15.5147L23.448 14.0276C18.7711 18.3725 16.6914 25.537 16.6914 32.0746C16.6914 32.9359 16.7436 33.784 16.8354 34.6456L17.5656 36.6418C17.5656 36.6418 17.7452 45.0999 24.135 43.7171C20.2988 42.6306 19.4452 34.6455 19.4452 34.6455Z" fill="white"/>
<path d="M59.631 34.6455C59.7227 33.784 59.775 32.9359 59.775 32.0744C59.775 26.26 58.1184 19.9627 54.4634 15.5809C54.4851 15.5586 54.5092 15.5375 54.5296 15.5147L55.6281 14.0276C60.305 18.3725 62.3848 25.537 62.3848 32.0746C62.3848 32.9359 62.3326 33.784 62.2407 34.6456L61.5106 36.6418C61.5106 36.6418 61.3308 45.0999 54.9412 43.7171C58.7772 42.6306 59.631 34.6455 59.631 34.6455Z" fill="#78B0E6"/>
<path d="M54.5749 19.6771C54.2142 19.6771 53.916 19.3853 53.916 19.0246C53.916 18.6639 54.2015 18.3721 54.5609 18.3721H54.5749C54.9343 18.3721 55.2274 18.6639 55.2274 19.0246C55.2274 19.3853 54.9343 19.6771 54.5749 19.6771Z" fill="#4487C6"/>
<path d="M57.1838 19.6771C56.8231 19.6771 56.5249 19.3853 56.5249 19.0246C56.5249 18.6639 56.8104 18.3721 57.1697 18.3721H57.1838C57.5431 18.3721 57.8363 18.6639 57.8363 19.0246C57.8363 19.3853 57.5431 19.6771 57.1838 19.6771Z" fill="#4487C6"/>
<path d="M58.4893 20.9823C58.1288 20.9823 57.8306 20.6904 57.8306 20.3298C57.8306 19.9692 58.116 19.6772 58.4753 19.6772H58.4893C58.8487 19.6772 59.1418 19.9691 59.1418 20.3298C59.1418 20.6904 58.8488 20.9823 58.4893 20.9823Z" fill="#4487C6"/>
<path d="M55.8791 20.9823C55.5184 20.9823 55.2202 20.6904 55.2202 20.3298C55.2202 19.9692 55.5057 19.6772 55.8651 19.6772H55.8791C56.2385 19.6772 56.5314 19.9691 56.5314 20.3298C56.5314 20.6904 56.2385 20.9823 55.8791 20.9823Z" fill="#4487C6"/>
<path d="M54.5749 22.2872C54.2142 22.2872 53.916 21.9954 53.916 21.6347C53.916 21.274 54.2015 20.9822 54.5609 20.9822H54.5749C54.9343 20.9822 55.2274 21.274 55.2274 21.6347C55.2274 21.9954 54.9343 22.2872 54.5749 22.2872Z" fill="#4487C6"/>
<path d="M57.1838 22.2872C56.8231 22.2872 56.5249 21.9954 56.5249 21.6347C56.5249 21.274 56.8104 20.9822 57.1697 20.9822H57.1838C57.5431 20.9822 57.8363 21.274 57.8363 21.6347C57.8363 21.9954 57.5431 22.2872 57.1838 22.2872Z" fill="#4487C6"/>
<path d="M58.4893 23.5921C58.1288 23.5921 57.8306 23.3003 57.8306 22.9396C57.8306 22.5791 58.116 22.2871 58.4753 22.2871H58.4893C58.8487 22.2871 59.1418 22.5789 59.1418 22.9396C59.1418 23.3003 58.8488 23.5921 58.4893 23.5921Z" fill="#4487C6"/>
<path d="M55.8791 18.3723C55.5184 18.3723 55.2202 18.0805 55.2202 17.7198C55.2202 17.3593 55.5057 17.0673 55.8651 17.0673H55.8791C56.2385 17.0673 56.5314 17.3591 56.5314 17.7198C56.5314 18.0805 56.2385 18.3723 55.8791 18.3723Z" fill="#4487C6"/>
<path d="M24.5607 19.6771C24.2001 19.6771 23.9019 19.3853 23.9019 19.0246C23.9019 18.6639 24.1873 18.3721 24.5467 18.3721H24.5607C24.9201 18.3721 25.2133 18.6639 25.2133 19.0246C25.2133 19.3853 24.9201 19.6771 24.5607 19.6771Z" fill="#155A9A"/>
<path d="M21.9509 19.6771C21.5902 19.6771 21.292 19.3853 21.292 19.0246C21.292 18.6639 21.5775 18.3721 21.9368 18.3721H21.9509C22.3102 18.3721 22.6034 18.6639 22.6034 19.0246C22.6034 19.3853 22.3102 19.6771 21.9509 19.6771Z" fill="#155A9A"/>
<path d="M20.6457 20.9823C20.285 20.9823 19.9868 20.6904 19.9868 20.3298C19.9868 19.9692 20.2723 19.6772 20.6317 19.6772H20.6457C21.0051 19.6772 21.2982 19.9691 21.2982 20.3298C21.2982 20.6904 21.0051 20.9823 20.6457 20.9823Z" fill="#155A9A"/>
<path d="M23.2551 20.9823C22.8944 20.9823 22.5962 20.6904 22.5962 20.3298C22.5962 19.9692 22.8817 19.6772 23.241 19.6772H23.2551C23.6144 19.6772 23.9076 19.9691 23.9076 20.3298C23.9076 20.6904 23.6144 20.9823 23.2551 20.9823Z" fill="#155A9A"/>
<path d="M24.5607 22.2872C24.2001 22.2872 23.9019 21.9954 23.9019 21.6347C23.9019 21.274 24.1873 20.9822 24.5467 20.9822H24.5607C24.9201 20.9822 25.2133 21.274 25.2133 21.6347C25.2133 21.9954 24.9201 22.2872 24.5607 22.2872Z" fill="#155A9A"/>
<path d="M21.9509 22.2872C21.5902 22.2872 21.292 21.9954 21.292 21.6347C21.292 21.274 21.5775 20.9822 21.9368 20.9822H21.9509C22.3102 20.9822 22.6034 21.274 22.6034 21.6347C22.6034 21.9954 22.3102 22.2872 21.9509 22.2872Z" fill="#155A9A"/>
<path d="M20.6457 23.5921C20.285 23.5921 19.9868 23.3003 19.9868 22.9396C19.9868 22.5791 20.2723 22.2871 20.6317 22.2871H20.6457C21.0051 22.2871 21.2982 22.5789 21.2982 22.9396C21.2982 23.3003 21.0051 23.5921 20.6457 23.5921Z" fill="#155A9A"/>
<path d="M23.2551 18.3723C22.8944 18.3723 22.5962 18.0805 22.5962 17.7198C22.5962 17.3593 22.8817 17.0673 23.241 17.0673H23.2551C23.6144 17.0673 23.9076 17.3591 23.9076 17.7198C23.9076 18.0805 23.6144 18.3723 23.2551 18.3723Z" fill="#155A9A"/>
<path d="M39.5676 79.7053C39.2069 79.7053 38.9087 79.4134 38.9087 79.0529C38.9087 78.6922 39.1942 78.4004 39.5535 78.4004H39.5676C39.9269 78.4004 40.2201 78.6922 40.2201 79.0529C40.2201 79.4134 39.9269 79.7053 39.5676 79.7053Z" fill="#155A9A"/>
<path d="M23.751 15.2663C23.3853 14.3787 23.2158 13.4395 23.2158 12.4996C23.2158 0.467692 48.0098 13.8829 57.1445 0.755127C57.1445 0.755127 59.859 9.5897 54.5092 15.5142C52.4472 17.8106 49.1848 19.6642 44.095 20.4078C31.2418 22.2994 25.4344 19.2856 23.751 15.2663Z" fill="#7FB5E7"/>
<path d="M57.1447 0.755127C56.5088 1.66881 55.7914 2.44172 55.0178 3.11593C55.4447 6.14768 55.5276 11.4962 51.8994 15.5142C49.8375 17.8106 46.5751 19.6642 41.4853 20.4078C39.301 20.7296 37.3348 20.8991 35.543 20.9564C37.9643 21.0513 40.7934 20.8939 44.0952 20.4078C49.185 19.6642 52.4474 17.8106 54.5093 15.5142C59.8591 9.58954 57.1447 0.755127 57.1447 0.755127Z" fill="#4487C6"/>
<path d="M26.3609 15.2665C25.9952 14.3789 25.8257 13.4398 25.8257 12.4998C25.8257 8.05114 29.2208 7.08379 33.9549 6.96535C27.9056 6.84872 23.2158 7.26796 23.2158 12.4998C23.2158 13.4398 23.3853 14.3789 23.751 15.2665C25.1478 18.6028 29.4017 21.2357 38.1527 20.9566C31.1475 20.6806 27.6125 18.2536 26.3609 15.2665Z" fill="#D7E9FF"/>
<path d="M38.1452 41.1437C39.0844 42.0442 39.5279 43.0096 39.5279 43.9486C39.5279 45.0319 38.9532 46.1022 37.8712 47.081C37.3614 47.5372 36.7358 47.9808 35.9914 48.386C34.8166 49.0383 33.3688 49.5992 31.6726 50.0426C27.7833 51.0479 21.7542 49.469 18.4269 46.2449C15.9215 43.8313 14.9555 40.4912 17.5654 36.6414C17.5654 36.6414 17.7349 45.5148 24.5603 43.635C31.3847 41.7566 35.5353 38.6248 38.1452 41.1437Z" fill="#7FB5E7"/>
<path d="M21.0368 46.2449C19.5611 44.8228 18.6271 43.0783 18.6359 41.099C17.6215 39.055 17.5654 36.6414 17.5654 36.6414C14.9555 40.4912 15.9214 43.8313 18.4269 46.2449C21.4102 49.1352 26.5524 50.6861 30.3906 50.2568C27.0584 49.9458 23.3805 48.5158 21.0368 46.2449Z" fill="#D7E9FF"/>
<path d="M61.4902 36.6414C64.1 40.4912 63.1341 43.8313 60.6287 46.2449C57.3014 49.4692 51.2723 51.0479 47.383 50.0426C45.6869 49.599 44.2392 49.0383 43.064 48.386C42.3198 47.9808 41.6942 47.5372 41.1844 47.081C40.1025 46.1022 39.5278 45.0317 39.5278 43.9486C39.5278 43.0094 39.9714 42.044 40.9105 41.1437C43.5204 38.625 47.6711 41.7568 54.4952 43.635C61.3207 45.5148 61.4902 36.6414 61.4902 36.6414Z" fill="#7FB5E7"/>
<path d="M61.4904 36.6414C61.4904 36.6414 61.4343 39.055 60.42 41.099C60.4289 43.0783 59.4947 44.8228 58.019 46.2449C55.6755 48.5158 51.9976 49.9458 48.665 50.2568C52.5035 50.6861 57.6456 49.1352 60.6289 46.2449C63.1343 43.8313 64.1001 40.4912 61.4904 36.6414Z" fill="#4487C6"/>
<path d="M39.5279 47.7336C37.7922 47.7336 37.8712 47.0811 37.8712 47.0811C38.953 46.1024 39.5279 45.0319 39.5279 43.9487C39.5279 45.0321 40.1026 46.1024 41.1845 47.0811C41.1845 47.0811 41.2636 47.7336 39.5279 47.7336Z" fill="white"/>
<path d="M37.8706 47.0807C37.8706 47.0807 37.7917 47.7332 39.5274 47.7332C41.263 47.7332 41.1839 47.0807 41.1839 47.0807C41.6937 47.537 42.3195 47.9805 43.0635 48.3857C43.0635 48.3857 42.7896 49.6906 39.5272 49.6906C36.2648 49.6906 35.9907 48.3857 35.9907 48.3857C36.7352 47.9805 37.361 47.537 37.8706 47.0807Z" fill="#D7E9FF"/>
<g opacity="0.2">
<path opacity="0.2" d="M37.8709 47.0807C37.3612 47.537 36.7356 47.9805 35.9912 48.3857C35.9912 48.3857 36.1021 48.8188 36.8095 49.1872C37.2006 48.9271 37.5639 48.6608 37.8709 48.3857C38.1398 48.1423 38.3781 47.8926 38.5833 47.6389C37.8315 47.4591 37.8709 47.0807 37.8709 47.0807Z" fill="black"/>
</g>
<g opacity="0.2">
<path opacity="0.2" d="M41.1849 47.0807C41.1849 47.0807 41.2244 47.4591 40.4727 47.6389C40.6779 47.8926 40.916 48.1423 41.1849 48.3857C41.492 48.6609 41.8552 48.9271 42.2465 49.1872C42.9537 48.8188 43.0646 48.3857 43.0646 48.3857C42.3204 47.9805 41.6947 47.537 41.1849 47.0807Z" fill="black"/>
</g>
<path d="M60.6294 46.2452C57.3021 49.4695 51.273 51.0482 47.3837 50.0429C45.6876 49.5993 44.2399 49.0387 43.0647 48.3863C43.0647 48.3863 42.7908 49.6912 39.5284 49.6912C36.266 49.6912 35.9919 48.3863 35.9919 48.3863C34.8171 49.0387 33.3693 49.5995 31.6731 50.0429C27.7837 51.0482 21.7547 49.4693 18.4273 46.2452C18.4273 46.2452 16.6789 52.9014 22.9156 62.7407C27.7837 70.4263 35.1828 73.2708 38.1839 74.1463C39.0326 74.3935 39.5284 74.4852 39.5284 74.4852C39.5284 74.4852 40.3504 74.3411 41.668 73.8977C45.049 72.7889 51.664 69.8133 56.1411 62.7405C56.3883 62.3493 56.6227 61.9567 56.8445 61.5782C62.235 52.3789 60.6294 46.2452 60.6294 46.2452Z" fill="#7FB5E7"/>
<g opacity="0.2">
<path opacity="0.2" d="M35.9909 48.3863C34.8161 49.0387 33.3683 49.5995 31.6721 50.0429C27.7828 51.0483 21.7537 49.4693 18.4263 46.2452C18.4263 46.2452 18.3244 46.6441 18.2568 47.377C18.3143 47.4345 18.3678 47.4943 18.4263 47.5503C21.7537 50.7744 27.7828 52.3533 31.6721 51.3478C33.3681 50.9042 34.8159 50.3435 35.9909 49.6912C36.2865 49.5294 36.5504 49.3586 36.8092 49.1878C36.1018 48.8194 35.9909 48.3863 35.9909 48.3863Z" fill="black"/>
</g>
<g opacity="0.2">
<path opacity="0.2" d="M60.7981 47.377C60.7319 46.6416 60.6299 46.2452 60.6299 46.2452C57.3026 49.4695 51.2735 51.0483 47.3842 50.0429C45.6881 49.5993 44.2403 49.0387 43.0652 48.3863C43.0652 48.3863 42.9542 48.8194 42.2471 49.1878C42.5058 49.3586 42.7696 49.5294 43.0652 49.6912C44.2402 50.3435 45.6879 50.9044 47.3842 51.3478C51.2735 52.3533 57.3026 50.7742 60.6299 47.5503C60.6885 47.4942 60.742 47.4343 60.7981 47.377Z" fill="black"/>
</g>
<path d="M40.7934 74.146C37.7922 73.2705 30.3933 70.426 25.525 62.7404C21.8218 56.8974 20.9373 52.1898 20.8277 49.3199C19.9458 48.7998 19.1188 48.2202 18.4268 47.5498C18.3682 47.4937 18.3146 47.4338 18.2573 47.3777C18.0496 49.6677 18.1911 55.2863 22.9151 62.7402C27.7832 70.4258 35.1823 73.2703 38.1833 74.1458C39.0321 74.393 39.5278 74.4847 39.5278 74.4847C39.5278 74.4847 40.0159 74.398 40.8379 74.1586C40.8215 74.1537 40.8099 74.1511 40.7934 74.146Z" fill="#D7E9FF"/>
<path d="M38.2752 74.146C41.2762 73.2705 48.6751 70.426 53.5432 62.7404C57.2466 56.8974 58.1311 52.1898 58.2407 49.3199C59.1224 48.7998 59.9496 48.2202 60.6416 47.5498C60.7002 47.4937 60.7539 47.4338 60.8111 47.3777C61.0188 49.6677 60.8773 55.2863 56.1533 62.7402C51.285 70.4258 43.8862 73.2703 40.8851 74.1458C40.0363 74.393 39.5406 74.4847 39.5406 74.4847C39.5406 74.4847 39.0525 74.398 38.2305 74.1586C38.2471 74.1537 38.2585 74.1511 38.2752 74.146Z" fill="#4487C6"/>
<path d="M78.0239 83.6196H1.03191C0.671232 83.6196 0.379395 83.3278 0.379395 82.9671V75.1374C0.379395 69.5288 3.27983 67.3853 8.63356 65.3911C9.60075 65.0317 10.6802 64.7182 11.8221 64.3856C14.0114 63.7498 16.4926 63.0272 19.0069 61.754C19.3281 61.5908 19.7193 61.7195 19.8838 62.0407C20.0469 62.3619 19.9182 62.7544 19.5958 62.9176C16.9745 64.2466 14.4308 64.9859 12.1867 65.6397C11.0678 65.9645 10.0113 66.2717 9.08869 66.6145C4.0728 68.4829 1.68459 70.235 1.68459 75.1376V82.3147H77.3717V75.1376C77.3717 70.235 74.9835 68.4829 69.9663 66.6145C69.0665 66.2819 68.0306 65.9774 66.9333 65.6563C66.1649 65.4307 65.3595 65.195 64.5273 64.9273C62.5673 64.3169 60.9565 63.6772 59.4592 62.9177C59.138 62.7546 59.0093 62.3621 59.1737 62.0396C59.3368 61.7184 59.7306 61.5923 60.0505 61.7541C61.4805 62.4805 63.0275 63.0936 64.9199 63.6836C65.747 63.9485 66.5422 64.1818 67.3005 64.4035C68.4194 64.7324 69.4771 65.042 70.4201 65.3912C75.7763 67.3857 78.6767 69.529 78.6767 75.1376V82.9673C78.6764 83.3278 78.3846 83.6196 78.0239 83.6196Z" fill="#155A9A"/>
<path d="M62.2217 35.2979C62.1976 35.2979 62.1746 35.2966 62.1516 35.2942C61.7935 35.256 61.5337 34.9348 61.5717 34.5767C61.666 33.6896 61.7118 32.8715 61.7118 32.0745C61.7118 25.9434 59.9546 20.4458 56.6297 16.1761C56.408 15.8919 56.4589 15.4821 56.7431 15.2604C57.0272 15.0374 57.4364 15.0896 57.6594 15.3745C61.1639 19.8755 63.0168 25.6503 63.0168 32.0745C63.0168 32.918 62.9684 33.7815 62.869 34.7144C62.8335 35.0495 62.5506 35.2979 62.2217 35.2979Z" fill="#155A9A"/>
<path d="M16.8343 35.3366C16.5054 35.3366 16.2226 35.0881 16.1869 34.7529C16.0887 33.8333 16.0391 32.9317 16.0391 32.0742C16.0391 25.6576 17.8919 19.8879 21.3965 15.3875C21.6171 15.1027 22.0274 15.0505 22.3128 15.2735C22.597 15.4952 22.6481 15.905 22.4262 16.1892C19.1015 20.4582 17.3441 25.9508 17.3441 32.0742C17.3441 32.8859 17.3912 33.7404 17.4842 34.6152C17.5224 34.9733 17.2625 35.2945 16.9045 35.3327C16.8815 35.3354 16.8572 35.3366 16.8343 35.3366Z" fill="#155A9A"/>
<path d="M41.4854 83.6199C41.1247 83.6199 40.833 83.328 40.833 82.9674V76.4425C40.833 76.082 41.1247 75.7902 41.4854 75.7902C41.846 75.7902 42.1379 76.082 42.1379 76.4425V82.9674C42.1379 83.328 41.846 83.6199 41.4854 83.6199Z" fill="#155A9A"/>
<path d="M37.57 83.6199C37.2093 83.6199 36.9175 83.328 36.9175 82.9674V76.4425C36.9175 76.082 37.2093 75.7902 37.57 75.7902C37.9305 75.7902 38.2225 76.082 38.2225 76.4425V82.9674C38.2224 83.328 37.9305 83.6199 37.57 83.6199Z" fill="#155A9A"/>
<path d="M29.0962 50.9958C25.087 50.9958 20.6166 49.2754 17.9734 46.714C14.8437 43.6989 14.5071 39.9911 17.0253 36.275C17.1846 36.04 17.4764 35.9341 17.7503 36.0157C18.023 36.0966 18.2116 36.3445 18.218 36.6287C18.223 36.8988 18.4066 43.2452 22.7778 43.2439C23.2722 43.2439 23.8138 43.1645 24.3874 43.007C26.4645 42.4348 28.2995 41.7421 29.9181 41.1304C32.2552 40.2479 34.1005 39.5508 35.7126 39.5508C36.871 39.5508 37.8153 39.9185 38.599 40.6741C39.6326 41.6656 40.1805 42.7992 40.1805 43.9486C40.1805 45.2063 39.5331 46.4566 38.3085 47.564C37.7362 48.0776 37.0622 48.5464 36.3038 48.9594C35.0677 49.6451 33.5639 50.2224 31.8384 50.6748C31.0115 50.8875 30.0902 50.9958 29.0962 50.9958ZM17.1554 38.7593C15.8887 41.8917 17.3071 44.2595 18.8796 45.776C21.297 48.1184 25.4032 49.6909 29.0962 49.6909C29.9794 49.6909 30.7911 49.5966 31.5099 49.4118C33.1283 48.9873 34.5302 48.4508 35.6746 47.8151C36.3499 47.4481 36.9413 47.0389 37.4357 46.5942C38.3773 45.7429 38.8757 44.828 38.8757 43.9486C38.8757 43.1632 38.4665 42.3557 37.6943 41.6146C36.2504 40.2236 33.9056 41.0195 30.3781 42.3513C28.7341 42.9726 26.8685 43.6772 24.734 44.2646C24.0484 44.4532 23.3895 44.5488 22.7778 44.5488C19.2658 44.5501 17.702 41.4317 17.1554 38.7593Z" fill="#155A9A"/>
<path d="M49.9595 50.9957C48.9666 50.9957 48.044 50.8874 47.2195 50.6745C45.4915 50.2223 43.9876 49.6448 42.7465 48.9555C41.9934 48.5463 41.3192 48.0775 40.7484 47.5664C39.5225 46.4565 38.875 45.2063 38.875 43.9485C38.875 42.7991 39.4229 41.6656 40.4591 40.6727C41.2402 39.9184 42.1846 39.5507 43.3429 39.5507C44.9551 39.5507 46.8003 40.2478 49.1374 41.1303C50.756 41.7421 52.591 42.4347 54.6682 43.007C55.2417 43.1644 55.7833 43.2438 56.2778 43.2438C60.6615 43.2438 60.8361 36.6948 60.8374 36.6293C60.8424 36.3444 61.0323 36.0965 61.3038 36.0156C61.5827 35.9347 61.8719 36.0404 62.03 36.275C64.5482 39.991 64.2117 43.6988 61.0808 46.7152C58.4391 49.2754 53.9685 50.9957 49.9595 50.9957ZM43.3429 40.8556C42.5275 40.8556 41.8991 41.0966 41.3639 41.6133C40.5892 42.3557 40.18 43.1631 40.18 43.9485C40.18 44.828 40.6784 45.7428 41.6213 46.5966C42.1144 47.0389 42.7058 47.448 43.3761 47.8124C44.5256 48.4507 45.9276 48.9873 47.5484 49.4117C48.2645 49.5966 49.0763 49.6908 49.9595 49.6908C53.6525 49.6908 57.7573 48.1183 60.1747 45.7772C61.7485 44.2595 63.167 41.8918 61.9002 38.7592C61.3535 41.431 59.7898 44.5487 56.2778 44.5487C55.666 44.5487 55.0071 44.4531 54.3215 44.2645C52.187 43.6769 50.3214 42.9724 48.6773 42.3512C46.4639 41.5158 44.7168 40.8556 43.3429 40.8556Z" fill="#155A9A"/>
<path d="M39.5273 48.3862C38.5217 48.3862 37.8552 48.1849 37.4896 47.7732C37.1952 47.4406 37.2118 47.099 37.2232 47.0021C37.2666 46.644 37.6004 46.398 37.9496 46.4324C38.2274 46.4668 38.4441 46.6721 38.5052 46.9295C38.6008 46.9792 38.8749 47.0812 39.5274 47.0812C40.1799 47.0812 40.454 46.9792 40.5496 46.9295C40.6108 46.6721 40.8274 46.4668 41.105 46.4324C41.4543 46.3916 41.7882 46.644 41.8314 47.0021C41.8429 47.099 41.8595 47.4406 41.5651 47.7732C41.1992 48.1849 40.5328 48.3862 39.5273 48.3862Z" fill="#155A9A"/>
<path d="M39.5277 50.3434C35.9186 50.3434 35.4165 48.8243 35.3529 48.5197C35.279 48.1669 35.5046 47.8215 35.8574 47.7476C36.1901 47.6737 36.5277 47.8814 36.6196 48.2103C36.6514 48.2778 37.0732 49.0385 39.5277 49.0385C42.0828 49.0385 42.4345 48.214 42.4384 48.2052C42.5123 47.8522 42.8638 47.652 43.2041 47.7248C43.5571 47.7987 43.7764 48.167 43.7025 48.5199C43.6387 48.8245 43.1366 50.3434 39.5277 50.3434Z" fill="#155A9A"/>
<path d="M39.5266 75.1375C39.2157 75.1375 38.9416 74.9145 38.8855 74.5972C38.823 74.2429 39.06 73.9054 39.4143 73.8416C39.4233 73.8403 40.2134 73.6989 41.4584 73.2796C44.8738 72.1594 51.2428 69.2577 55.5886 62.3914C55.832 62.0066 56.0626 61.6216 56.2806 61.2482C61.4482 52.4309 60.0118 46.4681 59.9965 46.4082C59.9086 46.0603 60.1175 45.7048 60.4655 45.6143C60.8108 45.525 61.1689 45.7315 61.2594 46.0806C61.3283 46.3407 62.8715 52.5825 57.407 61.9082C57.1814 62.2931 56.943 62.6908 56.692 63.0883C52.1273 70.2999 45.447 73.3444 41.8711 74.5168C40.5267 74.9705 39.6753 75.1209 39.6396 75.1272C39.6018 75.1338 39.5649 75.1375 39.5266 75.1375Z" fill="#155A9A"/>
<path d="M39.5278 75.1375C39.4883 75.1375 39.4489 75.1337 39.4092 75.126C39.4092 75.126 38.8905 75.0317 37.9998 74.7717C34.963 73.8861 27.3589 70.9754 22.3632 63.0897C16.0475 53.1242 17.7207 46.3623 17.7958 46.0794C17.8863 45.7315 18.2444 45.5251 18.5897 45.6142C18.9377 45.7047 19.1479 46.0602 19.0587 46.4095C19.0421 46.4732 17.4811 52.9483 23.4655 62.3914C28.2226 69.9012 35.47 72.6755 38.3654 73.5192C39.1593 73.7512 39.6283 73.8404 39.6462 73.8429C40.0006 73.9091 40.2338 74.2479 40.1688 74.6022C40.1115 74.9171 39.8363 75.1375 39.5278 75.1375Z" fill="#155A9A"/>
<path d="M39.5275 72.5277C39.1668 72.5277 38.875 72.2358 38.875 71.8751V52.301C38.875 51.9403 39.1668 51.6484 39.5275 51.6484C39.8882 51.6484 40.18 51.9403 40.18 52.301V71.8751C40.18 72.2358 39.8882 72.5277 39.5275 72.5277Z" fill="#155A9A"/>
<path d="M48.5192 68.6126C48.444 68.6126 48.3662 68.5999 48.2923 68.5719C47.9548 68.4458 47.7827 68.0711 47.9076 67.7321C50.924 59.6118 46.1833 54.0491 43.0891 51.457C42.8128 51.225 42.7771 50.8135 43.0089 50.5368C43.2395 50.2629 43.6524 50.2247 43.9278 50.4565C47.2858 53.2705 52.4266 59.3148 49.1309 68.1869C49.0329 68.4495 48.7843 68.6126 48.5192 68.6126Z" fill="#155A9A"/>
<path d="M56.9485 56.8684C56.7089 56.8684 56.4795 56.736 56.365 56.5064C55.5608 54.8957 54.02 53.6468 52.8693 52.8835C52.5685 52.6833 52.487 52.2794 52.6858 51.9786C52.886 51.6765 53.2936 51.5976 53.5905 51.7964C55.4575 53.0352 56.7828 54.4241 57.5322 55.9241C57.6927 56.2466 57.5629 56.6391 57.2404 56.7996C57.1461 56.8456 57.0467 56.8684 56.9485 56.8684Z" fill="#155A9A"/>
<path d="M30.5371 68.6127C30.272 68.6127 30.0236 68.4495 29.9254 68.1871C26.6298 59.3148 31.7707 53.2707 35.1285 50.4567C35.4039 50.2236 35.8153 50.2619 36.0473 50.537C36.2792 50.8135 36.2435 51.2252 35.967 51.4572C32.8729 54.0493 28.1323 59.6119 31.1487 67.7323C31.2736 68.0712 31.1015 68.4459 30.7639 68.572C30.69 68.5999 30.6123 68.6127 30.5371 68.6127Z" fill="#155A9A"/>
<path d="M22.1075 56.8684C22.0093 56.8684 21.91 56.8454 21.8157 56.7995C21.4932 56.639 21.3633 56.2464 21.5239 55.924C22.2731 54.4242 23.5985 53.0352 25.4654 51.7964C25.7623 51.5975 26.1688 51.6766 26.3703 51.9786C26.5691 52.2794 26.4875 52.6833 26.1867 52.8835C25.036 53.6467 23.4953 54.8957 22.6912 56.5064C22.5764 56.7359 22.347 56.8684 22.1075 56.8684Z" fill="#155A9A"/>
<path d="M36.8906 21.6397C36.8906 21.6397 36.8906 21.6397 36.8893 21.6397C27.1647 21.6391 24.1062 17.8044 23.1491 15.519C22.7592 14.5741 22.563 13.5596 22.563 12.5C22.563 6.77559 27.6898 6.29648 32.4954 6.29648C33.669 6.29648 34.9078 6.33221 36.1859 6.36973C37.5343 6.40855 38.9271 6.44933 40.3315 6.44933C46.2929 6.44933 52.889 5.72863 56.6088 0.38273C56.7503 0.178166 57 0.0736001 57.2447 0.11063C57.492 0.149455 57.6946 0.325308 57.7672 0.56364C57.8832 0.939 60.5275 9.82252 54.9929 15.9516C52.5766 18.6424 48.9421 20.3595 44.1888 21.0535C41.5484 21.4422 39.0927 21.6397 36.8906 21.6397ZM32.4954 7.60119C27.0309 7.60119 23.8679 8.4028 23.8679 12.4998C23.8679 13.388 24.031 14.2355 24.3535 15.018C25.7897 18.4449 30.2423 20.3341 36.8895 20.3347H36.8908C39.0291 20.3347 41.421 20.1422 43.9991 19.7626C48.4427 19.1134 51.8161 17.5375 54.0232 15.0787C57.877 10.8103 57.3086 4.84235 56.8193 2.24207C52.6776 7.07004 46.2051 7.75437 40.3316 7.75437C38.9144 7.75437 37.5089 7.71358 36.1479 7.67411C34.8822 7.63691 33.6562 7.60119 32.4954 7.60119Z" fill="#155A9A"/>
<path d="M36.7073 12.7771C33.831 12.7771 30.5916 12.5203 26.9674 11.8902C26.613 11.8283 26.3747 11.4907 26.4372 11.1357C26.4984 10.7788 26.8424 10.5437 27.1917 10.6042C45.7337 13.8285 54.0246 6.85944 54.1062 6.78815C54.3789 6.55243 54.7905 6.58049 55.0264 6.85193C55.2634 7.12273 55.2366 7.53365 54.9652 7.77068C54.6823 8.01928 49.0762 12.7771 36.7073 12.7771Z" fill="#155A9A"/>
<path d="M37.7675 17.4467C34.5459 17.4467 30.9127 16.9777 26.9355 15.732C26.5914 15.6243 26.4002 15.2586 26.5072 14.9144C26.6156 14.5704 26.9826 14.3792 27.3255 14.4868C42.5159 19.2422 52.7707 12.0433 52.8726 11.9706C53.1682 11.7583 53.5734 11.8265 53.7837 12.1177C53.994 12.41 53.9291 12.8174 53.6372 13.0283C53.311 13.2642 47.3789 17.4467 37.7675 17.4467Z" fill="#155A9A"/>
<path d="M49.5504 81.0752C49.3835 81.0752 49.2165 81.0114 49.0891 80.884C48.8342 80.6292 48.8342 80.2161 49.0891 79.9613L63.3901 65.6604C63.6423 65.4056 64.0552 65.4017 64.3126 65.6578C64.5674 65.9113 64.57 66.3242 64.3152 66.5803L50.0117 80.884C49.8841 81.0114 49.7173 81.0752 49.5504 81.0752Z" fill="#155A9A"/>
<path d="M66.1618 81.0625C65.995 81.0625 65.8266 80.9987 65.6992 80.87C65.4455 80.6152 65.4455 80.2022 65.7018 79.9473L74.0258 71.6359C74.2806 71.3811 74.6936 71.3811 74.9485 71.6359C75.2033 71.8907 75.2033 72.3038 74.9485 72.5586L66.6219 80.8713C66.4958 80.9987 66.3289 81.0625 66.1618 81.0625Z" fill="#155A9A"/>
<path d="M57.4974 81.0624C57.3305 81.0624 57.1634 80.9986 57.036 80.8712L49.0891 72.9242C48.8342 72.6694 48.8342 72.2563 49.0891 72.0015C49.3439 71.7467 49.7569 71.7467 50.0117 72.0015L57.9587 79.9485C58.2135 80.2033 58.2135 80.6164 57.9587 80.8712C57.8313 80.9986 57.6644 81.0624 57.4974 81.0624Z" fill="#155A9A"/>
<path d="M74.1086 81.0623C73.9417 81.0623 73.7749 80.9985 73.6474 80.8711L57.9626 65.1849C57.7078 64.9301 57.7078 64.5171 57.9626 64.2623C58.2174 64.0075 58.6303 64.0075 58.8851 64.2623L74.5699 79.9484C74.8247 80.2032 74.8247 80.6163 74.5699 80.8711C74.4425 80.9985 74.2757 81.0623 74.1086 81.0623Z" fill="#155A9A"/>
<path d="M29.8849 81.0751C29.7181 81.0751 29.551 81.0114 29.4236 80.884L15.1213 66.5816C14.8665 66.3268 14.8665 65.9138 15.1213 65.6591C15.3761 65.4043 15.7891 65.4043 16.0439 65.6591L30.3461 79.9613C30.6009 80.2161 30.6009 80.6291 30.3461 80.884C30.2187 81.0114 30.0518 81.0751 29.8849 81.0751Z" fill="#155A9A"/>
<path d="M13.2722 81.0625C13.1053 81.0625 12.9382 80.9987 12.8121 80.8713L4.48554 72.5586C4.23073 72.3038 4.23073 71.8907 4.48554 71.6359C4.74035 71.3811 5.15323 71.3811 5.4082 71.6359L13.7323 79.9473C13.9885 80.2022 13.9885 80.6152 13.735 80.87C13.6074 80.9987 13.439 81.0625 13.2722 81.0625Z" fill="#155A9A"/>
<path d="M21.9371 81.0624C21.7702 81.0624 21.6032 80.9986 21.4758 80.8712C21.221 80.6164 21.221 80.2033 21.4758 79.9485L29.4241 72.0015C29.6789 71.7467 30.0918 71.7467 30.3467 72.0015C30.6015 72.2563 30.6015 72.6694 30.3467 72.9242L22.3984 80.8712C22.2709 80.9986 22.1041 81.0624 21.9371 81.0624Z" fill="#155A9A"/>
<path d="M5.3248 81.0622C5.15792 81.0622 4.99087 80.9984 4.86347 80.871C4.60866 80.6162 4.60866 80.2031 4.86347 79.9483L20.5472 64.2635C20.802 64.0086 21.215 64.0073 21.4698 64.2608C21.726 64.5157 21.726 64.9287 21.4724 65.1848L5.78629 80.871C5.65872 80.9984 5.49168 81.0622 5.3248 81.0622Z" fill="#155A9A"/>
</svg>
