<svg width="186" height="119" viewBox="0 0 186 119" fill="none" xmlns="http://www.w3.org/2000/svg">
<path d="M93 19C41.6375 19 0 60.6375 0 112H186C186 60.6375 144.362 19 93 19Z" fill="#F6F6F6"/>
<path d="M127.227 82.4303C125.505 81.7935 123.423 81.2736 121.165 80.5503C119.401 79.9995 117.535 79.32 115.655 78.3651L112.428 77.5259C112.183 77.9454 111.923 78.3806 111.649 78.8142C106.686 86.654 99.3535 89.9526 95.6057 91.1816C95.1734 91.3272 94.7962 91.4402 94.4687 91.5319L94.449 91.4572C93.7738 91.6534 93.3104 91.7594 93.0957 91.8046C92.8824 91.7594 92.4191 91.6534 91.7439 91.4572L91.7242 91.5319C91.3965 91.4402 91.0193 91.3272 90.587 91.1816C86.8393 89.9526 79.5067 86.6542 74.5442 78.8142C74.2701 78.3806 74.0102 77.9454 73.7645 77.5259L70.538 78.3651C68.6578 79.32 66.7917 79.9995 65.0275 80.5503C62.7701 81.2736 60.6879 81.7935 58.9661 82.4303C53.1801 84.5861 50.2871 86.7699 50.2871 92.5559C50.2871 98.3419 50.2871 101.235 50.2871 101.235H81.8502H90.7892H91.0646H95.1286H95.4039H104.343H135.906C135.906 101.235 135.906 98.3419 135.906 92.5559C135.906 86.7699 133.013 84.5861 127.227 82.4303Z" fill="#7FB5E7"/>
<path d="M53.1801 95.4489C53.1801 89.6629 56.0731 87.4791 61.8591 85.3235C63.5809 84.6865 65.6632 84.1666 67.9205 83.4433C69.6847 82.8923 71.5508 82.2128 73.431 81.2581L75.8127 80.6393C75.3776 80.0574 74.9509 79.4556 74.5442 78.8142C74.2701 78.3806 74.0102 77.9454 73.7645 77.5259L70.538 78.3651C68.6579 79.32 66.7918 79.9995 65.0275 80.5503C62.7701 81.2736 60.6879 81.7935 58.9661 82.4303C53.1801 84.5861 50.2871 86.7699 50.2871 92.5559C50.2871 98.3419 50.2871 101.235 50.2871 101.235H53.1801C53.1801 99.8194 53.1801 97.9124 53.1801 95.4489Z" fill="#D7E9FF"/>
<path d="M133.117 95.4489C133.117 89.6629 130.224 87.4791 124.438 85.3235C122.716 84.6865 120.634 84.1666 118.376 83.4433C116.612 82.8923 114.746 82.2128 112.866 81.2581L110.484 80.6393C110.919 80.0574 111.346 79.4556 111.753 78.8142C112.027 78.3806 112.287 77.9454 112.532 77.5259L115.759 78.3651C117.639 79.32 119.505 79.9995 121.27 80.5503C123.527 81.2736 125.609 81.7935 127.331 82.4303C133.117 84.5861 136.01 86.7699 136.01 92.5559C136.01 98.3419 136.01 101.235 136.01 101.235H133.117C133.117 99.8194 133.117 97.9124 133.117 95.4489Z" fill="#4487C6"/>
<path d="M95.6047 91.1821H91.0642V101.236H95.6047V91.1821Z" fill="#E6E9ED"/>
<path d="M111.059 24.8171L109.841 26.4655C107.555 29.011 103.939 31.0657 98.2972 31.8899C96.485 32.1569 94.801 32.3334 93.2345 32.4331C91.6679 32.3334 89.984 32.1569 88.1718 31.8899C82.53 31.0657 78.9137 29.011 76.6281 26.4655L75.4104 24.8171C70.2262 29.6334 67.9209 37.5749 67.9209 44.8216C67.9209 45.7764 67.9788 46.7165 68.0806 47.6716L68.8899 49.8843C68.8899 49.8843 69.0778 59.7202 76.6436 57.6366C84.208 55.5544 88.8089 52.0829 91.7019 54.875C92.7429 55.8732 93.2345 56.9433 93.2345 57.9841C93.2345 56.9431 93.7262 55.873 94.7672 54.875C97.6602 52.0831 102.261 55.5546 109.825 57.6366C117.391 59.72 117.579 49.8843 117.579 49.8843L118.389 47.6716C118.49 46.7166 118.548 45.7765 118.548 44.8216C118.548 37.5749 116.243 29.6334 111.059 24.8171Z" fill="#D7E9FF"/>
<path d="M89.4057 46.6193C89.4057 47.4613 88.7163 48.151 87.8742 48.151H77.1531C76.3112 48.151 75.6216 47.4613 75.6216 46.6193V43.5561C75.6216 42.7141 76.3112 42.0247 77.1531 42.0247H87.8742C88.7163 42.0247 89.4057 42.7141 89.4057 43.5561V45.1334V46.6193Z" fill="#88BBEA"/>
<path d="M79.2878 48.151H82.4596L84.1009 42.0247H80.93L79.2878 48.151Z" fill="#D7E9FF"/>
<path d="M83.2798 48.151H84.0994L85.741 42.0247H84.9214L83.2798 48.151Z" fill="#D7E9FF"/>
<path d="M110.848 46.6193C110.848 47.4613 110.159 48.151 109.317 48.151H98.5957C97.7537 48.151 97.0642 47.4613 97.0642 46.6193V43.5561C97.0642 42.7141 97.7537 42.0247 98.5957 42.0247H109.317C110.159 42.0247 110.848 42.7141 110.848 43.5561V45.1334V46.6193Z" fill="#88BBEA"/>
<path d="M100.73 48.151H103.902L105.543 42.0247H102.372L100.73 48.151Z" fill="#D7E9FF"/>
<path d="M104.722 48.151H105.542L107.184 42.0247H106.364L104.722 48.151Z" fill="#D7E9FF"/>
<path d="M87.8744 48.9166H77.1533C75.8866 48.9166 74.856 47.8862 74.856 46.6193V43.5561C74.856 42.2892 75.8866 41.2588 77.1533 41.2588H87.8744C89.1411 41.2588 90.1718 42.2892 90.1718 43.5561V46.6193C90.1718 47.8862 89.1411 48.9166 87.8744 48.9166ZM77.1533 42.7903C76.7307 42.7903 76.3876 43.1334 76.3876 43.5561V46.6193C76.3876 47.0418 76.7307 47.3851 77.1533 47.3851H87.8744C88.297 47.3851 88.6403 47.0418 88.6403 46.6193V43.5561C88.6403 43.1336 88.297 42.7903 87.8744 42.7903H77.1533Z" fill="#155A9A"/>
<path d="M109.316 48.9163H98.5954C97.3285 48.9163 96.2981 47.8859 96.2981 46.619V43.5559C96.2981 42.289 97.3285 41.2585 98.5954 41.2585H109.316C110.583 41.2585 111.614 42.289 111.614 43.5559V46.619C111.614 47.8859 110.583 48.9163 109.316 48.9163ZM98.5954 42.79C98.1736 42.79 97.8296 43.1331 97.8296 43.5559V46.619C97.8296 47.0416 98.1736 47.3849 98.5954 47.3849H109.316C109.738 47.3849 110.082 47.0416 110.082 46.619V43.5559C110.082 43.1333 109.738 42.79 109.316 42.79H98.5954Z" fill="#155A9A"/>
<path d="M97.0643 45.8991H89.4063C88.983 45.8991 88.6406 45.5566 88.6406 45.1333C88.6406 44.71 88.983 44.3674 89.4063 44.3674H97.0643C97.4874 44.3674 97.8299 44.71 97.8299 45.1333C97.8299 45.5566 97.4874 45.8991 97.0643 45.8991Z" fill="#155A9A"/>
<path d="M70.9736 47.6716C70.872 46.7167 70.814 45.7766 70.814 44.8217C70.814 38.3766 72.6502 31.3963 76.7017 26.5392C76.6777 26.5144 76.6509 26.4911 76.6283 26.4658L75.4107 24.8174C70.2265 29.6336 67.9211 37.5752 67.9211 44.8219C67.9211 45.7766 67.979 46.7167 68.0808 47.6718L68.8902 49.8846C68.8902 49.8846 69.0893 59.2601 76.1721 57.7272C71.9199 56.5229 70.9736 47.6716 70.9736 47.6716Z" fill="white"/>
<path d="M115.518 47.6716C115.62 46.7167 115.678 45.7766 115.678 44.8217C115.678 38.3766 113.842 31.3963 109.79 26.5392C109.814 26.5144 109.841 26.4911 109.863 26.4658L111.081 24.8174C116.265 29.6336 118.571 37.5752 118.571 44.8219C118.571 45.7766 118.513 46.7167 118.411 47.6718L117.602 49.8846C117.602 49.8846 117.402 59.2601 110.32 57.7272C114.572 56.5229 115.518 47.6716 115.518 47.6716Z" fill="#78B0E6"/>
<path d="M109.913 31.0799C109.513 31.0799 109.182 30.7564 109.182 30.3566C109.182 29.9568 109.499 29.6333 109.897 29.6333H109.913C110.311 29.6333 110.636 29.9568 110.636 30.3566C110.636 30.7564 110.311 31.0799 109.913 31.0799Z" fill="#4487C6"/>
<path d="M112.806 31.0799C112.406 31.0799 112.075 30.7564 112.075 30.3566C112.075 29.9568 112.392 29.6333 112.79 29.6333H112.806C113.204 29.6333 113.529 29.9568 113.529 30.3566C113.529 30.7564 113.204 31.0799 112.806 31.0799Z" fill="#4487C6"/>
<path d="M114.252 32.5267C113.853 32.5267 113.522 32.2032 113.522 31.8034C113.522 31.4038 113.838 31.0801 114.237 31.0801H114.252C114.65 31.0801 114.975 31.4036 114.975 31.8034C114.975 32.2032 114.651 32.5267 114.252 32.5267Z" fill="#4487C6"/>
<path d="M111.359 32.5267C110.959 32.5267 110.629 32.2032 110.629 31.8034C110.629 31.4038 110.945 31.0801 111.344 31.0801H111.359C111.758 31.0801 112.082 31.4036 112.082 31.8034C112.082 32.2032 111.758 32.5267 111.359 32.5267Z" fill="#4487C6"/>
<path d="M109.913 33.973C109.513 33.973 109.182 33.6495 109.182 33.2497C109.182 32.8499 109.499 32.5264 109.897 32.5264H109.913C110.311 32.5264 110.636 32.8499 110.636 33.2497C110.636 33.6495 110.311 33.973 109.913 33.973Z" fill="#4487C6"/>
<path d="M112.806 33.973C112.406 33.973 112.075 33.6495 112.075 33.2497C112.075 32.8499 112.392 32.5264 112.79 32.5264H112.806C113.204 32.5264 113.529 32.8499 113.529 33.2497C113.529 33.6495 113.204 33.973 112.806 33.973Z" fill="#4487C6"/>
<path d="M114.252 35.4195C113.853 35.4195 113.522 35.096 113.522 34.6962C113.522 34.2966 113.838 33.9729 114.237 33.9729H114.252C114.65 33.9729 114.975 34.2964 114.975 34.6962C114.975 35.096 114.651 35.4195 114.252 35.4195Z" fill="#4487C6"/>
<path d="M111.359 29.6334C110.959 29.6334 110.629 29.3099 110.629 28.9101C110.629 28.5104 110.945 28.1868 111.344 28.1868H111.359C111.758 28.1868 112.082 28.5103 112.082 28.9101C112.082 29.3099 111.758 29.6334 111.359 29.6334Z" fill="#4487C6"/>
<path d="M76.6434 31.0799C76.2436 31.0799 75.9131 30.7564 75.9131 30.3566C75.9131 29.9568 76.2295 29.6333 76.6279 29.6333H76.6434C77.0418 29.6333 77.3667 29.9568 77.3667 30.3566C77.3667 30.7564 77.0418 31.0799 76.6434 31.0799Z" fill="#155A9A"/>
<path d="M73.7509 31.0799C73.3511 31.0799 73.0205 30.7564 73.0205 30.3566C73.0205 29.9568 73.3369 29.6333 73.7353 29.6333H73.7509C74.1492 29.6333 74.4741 29.9568 74.4741 30.3566C74.4741 30.7564 74.1492 31.0799 73.7509 31.0799Z" fill="#155A9A"/>
<path d="M72.3041 32.5267C71.9043 32.5267 71.5737 32.2032 71.5737 31.8034C71.5737 31.4038 71.8902 31.0801 72.2885 31.0801H72.3041C72.7024 31.0801 73.0274 31.4036 73.0274 31.8034C73.0274 32.2032 72.7024 32.5267 72.3041 32.5267Z" fill="#155A9A"/>
<path d="M75.1967 32.5267C74.7969 32.5267 74.4663 32.2032 74.4663 31.8034C74.4663 31.4038 74.7827 31.0801 75.1811 31.0801H75.1967C75.595 31.0801 75.9199 31.4036 75.9199 31.8034C75.9199 32.2032 75.595 32.5267 75.1967 32.5267Z" fill="#155A9A"/>
<path d="M76.6434 33.973C76.2436 33.973 75.9131 33.6495 75.9131 33.2497C75.9131 32.8499 76.2295 32.5264 76.6279 32.5264H76.6434C77.0418 32.5264 77.3667 32.8499 77.3667 33.2497C77.3667 33.6495 77.0418 33.973 76.6434 33.973Z" fill="#155A9A"/>
<path d="M73.7509 33.973C73.3511 33.973 73.0205 33.6495 73.0205 33.2497C73.0205 32.8499 73.3369 32.5264 73.7353 32.5264H73.7509C74.1492 32.5264 74.4741 32.8499 74.4741 33.2497C74.4741 33.6495 74.1492 33.973 73.7509 33.973Z" fill="#155A9A"/>
<path d="M72.3041 35.4195C71.9043 35.4195 71.5737 35.096 71.5737 34.6962C71.5737 34.2966 71.8902 33.9729 72.2885 33.9729H72.3041C72.7024 33.9729 73.0274 34.2964 73.0274 34.6962C73.0274 35.096 72.7024 35.4195 72.3041 35.4195Z" fill="#155A9A"/>
<path d="M75.1967 29.6334C74.7969 29.6334 74.4663 29.3099 74.4663 28.9101C74.4663 28.5104 74.7827 28.1868 75.1811 28.1868H75.1967C75.595 28.1868 75.9199 28.5103 75.9199 28.9101C75.9199 29.3099 75.595 29.6334 75.1967 29.6334Z" fill="#155A9A"/>
<path d="M93.2784 97.619C92.8786 97.619 92.5481 97.2955 92.5481 96.8959C92.5481 96.4961 92.8645 96.1726 93.2629 96.1726H93.2784C93.6768 96.1726 94.0017 96.4961 94.0017 96.8959C94.0017 97.2955 93.6768 97.619 93.2784 97.619Z" fill="#155A9A"/>
<path d="M75.7466 26.1906C75.3412 25.2067 75.1533 24.1657 75.1533 23.1238C75.1533 9.78686 102.637 24.6572 112.762 10.1055C112.762 10.1055 115.771 19.8983 109.841 26.4655C107.555 29.0109 103.939 31.0656 98.2972 31.8898C84.0498 33.9866 77.6125 30.6459 75.7466 26.1906Z" fill="#7FB5E7"/>
<path d="M112.762 10.1055C112.057 11.1183 111.262 11.975 110.405 12.7223C110.878 16.0829 110.97 22.0116 106.948 26.4655C104.662 29.0109 101.046 31.0656 95.4042 31.8898C92.983 32.2465 90.8035 32.4344 88.8174 32.4979C91.5013 32.6031 94.6374 32.4286 98.2972 31.8898C103.939 31.0656 107.555 29.0109 109.841 26.4655C115.771 19.8981 112.762 10.1055 112.762 10.1055Z" fill="#4487C6"/>
<path d="M78.6396 26.1907C78.2342 25.2068 78.0463 24.1658 78.0463 23.1239C78.0463 18.1927 81.8096 17.1204 87.0573 16.9891C80.3518 16.8598 75.1533 17.3246 75.1533 23.1239C75.1533 24.1658 75.3412 25.2068 75.7466 26.1907C77.2948 29.8889 82.0101 32.8074 91.7104 32.498C83.9453 32.192 80.0269 29.5017 78.6396 26.1907Z" fill="#D7E9FF"/>
<path d="M91.7018 54.875C92.7428 55.8731 93.2345 56.9433 93.2345 57.9841C93.2345 59.1849 92.5974 60.3713 91.398 61.4562C90.833 61.962 90.1395 62.4537 89.3144 62.9028C88.0121 63.6259 86.4073 64.2476 84.5271 64.7391C80.2159 65.8535 73.5329 64.1033 69.8446 60.5295C67.0675 57.8541 65.9967 54.1517 68.8897 49.8843C68.8897 49.8843 69.0776 59.7202 76.6434 57.6365C84.208 55.5543 88.8088 52.0829 91.7018 54.875Z" fill="#7FB5E7"/>
<path d="M72.7377 60.5295C71.1019 58.9531 70.0666 57.0194 70.0763 54.8255C68.952 52.5597 68.8898 49.8843 68.8898 49.8843C65.9968 54.1517 67.0674 57.8541 69.8447 60.5295C73.1516 63.7333 78.8515 65.4524 83.1061 64.9765C79.4124 64.6319 75.3356 63.0468 72.7377 60.5295Z" fill="#D7E9FF"/>
<path d="M117.579 49.8843C120.472 54.1517 119.401 57.8541 116.624 60.5295C112.936 64.1035 106.253 65.8535 101.942 64.7391C100.062 64.2474 98.4567 63.6259 97.1541 62.9028C96.3292 62.4537 95.6357 61.962 95.0706 61.4562C93.8714 60.3713 93.2344 59.1847 93.2344 57.9841C93.2344 56.9431 93.726 55.873 94.767 54.875C97.66 52.0831 102.261 55.5545 109.825 57.6365C117.391 59.7202 117.579 49.8843 117.579 49.8843Z" fill="#7FB5E7"/>
<path d="M117.579 49.8843C117.579 49.8843 117.517 52.5597 116.393 54.8255C116.403 57.0194 115.367 58.9531 113.731 60.5295C111.134 63.0468 107.057 64.6319 103.363 64.9765C107.618 65.4524 113.317 63.7333 116.624 60.5295C119.401 57.8541 120.472 54.1517 117.579 49.8843Z" fill="#4487C6"/>
<path d="M93.2343 62.1796C91.3103 62.1796 91.3978 61.4563 91.3978 61.4563C92.597 60.3714 93.2343 59.1848 93.2343 57.9841C93.2343 59.185 93.8713 60.3714 95.0705 61.4563C95.0705 61.4563 95.1582 62.1796 93.2343 62.1796Z" fill="white"/>
<path d="M91.3983 61.4561C91.3983 61.4561 91.3107 62.1793 93.2347 62.1793C95.1587 62.1793 95.071 61.4561 95.071 61.4561C95.636 61.9618 96.3297 62.4535 97.1544 62.9026C97.1544 62.9026 96.8508 64.349 93.2345 64.349C89.6182 64.349 89.3145 62.9026 89.3145 62.9026C90.1397 62.4535 90.8334 61.9618 91.3983 61.4561Z" fill="#D7E9FF"/>
<g opacity="0.2">
<path opacity="0.2" d="M91.3983 61.4561C90.8333 61.9618 90.1398 62.4535 89.3147 62.9026C89.3147 62.9026 89.4377 63.3827 90.2217 63.791C90.6553 63.5028 91.058 63.2075 91.3983 62.9026C91.6963 62.6329 91.9605 62.356 92.188 62.0748C91.3546 61.8756 91.3983 61.4561 91.3983 61.4561Z" fill="black"/>
</g>
<g opacity="0.2">
<path opacity="0.2" d="M95.0707 61.4561C95.0707 61.4561 95.1145 61.8756 94.2812 62.0748C94.5087 62.356 94.7727 62.6329 95.0707 62.9026C95.4112 63.2077 95.8137 63.5028 96.2475 63.791C97.0314 63.3827 97.1543 62.9026 97.1543 62.9026C96.3294 62.4535 95.6358 61.9618 95.0707 61.4561Z" fill="black"/>
</g>
<path d="M116.625 60.5298C112.936 64.1038 106.253 65.8538 101.942 64.7393C100.062 64.2477 98.4572 63.6262 97.1546 62.9031C97.1546 62.9031 96.851 64.3495 93.2347 64.3495C89.6184 64.3495 89.3146 62.9031 89.3146 62.9031C88.0124 63.6262 86.4075 64.2479 84.5273 64.7393C80.2162 65.8538 73.5331 64.1036 69.8449 60.5298C69.8449 60.5298 67.9068 67.9079 74.82 78.8144C80.2162 87.3338 88.4178 90.4868 91.7444 91.4572C92.6852 91.7312 93.2347 91.8328 93.2347 91.8328C93.2347 91.8328 94.1459 91.6731 95.6064 91.1817C99.3541 89.9526 106.687 86.6542 111.649 78.8143C111.923 78.3806 112.183 77.9454 112.429 77.5259C118.404 67.3287 116.625 60.5298 116.625 60.5298Z" fill="#7FB5E7"/>
<g opacity="0.2">
<path opacity="0.2" d="M89.3144 62.9031C88.0121 63.6262 86.4073 64.2479 84.5271 64.7394C80.2159 65.8538 73.5329 64.1036 69.8446 60.5298C69.8446 60.5298 69.7316 60.9719 69.6567 61.7843C69.7204 61.848 69.7797 61.9144 69.8446 61.9764C73.5329 65.5502 80.2159 67.3004 84.5271 66.1858C86.4071 65.6941 88.0119 65.0726 89.3144 64.3495C89.642 64.1701 89.9346 63.9808 90.2214 63.7915C89.4374 63.3832 89.3144 62.9031 89.3144 62.9031Z" fill="black"/>
</g>
<g opacity="0.2">
<path opacity="0.2" d="M116.811 61.7843C116.737 60.9692 116.624 60.5298 116.624 60.5298C112.936 64.1038 106.253 65.8538 101.942 64.7394C100.062 64.2477 98.457 63.6262 97.1544 62.9031C97.1544 62.9031 97.0314 63.3832 96.2476 63.7915C96.5343 63.9808 96.8267 64.1701 97.1544 64.3495C98.4569 65.0726 100.062 65.6943 101.942 66.1858C106.253 67.3004 112.936 65.55 116.624 61.9764C116.689 61.9142 116.749 61.8478 116.811 61.7843Z" fill="black"/>
</g>
<path d="M94.6372 91.457C91.3104 90.4865 83.109 87.3335 77.7127 78.8142C73.6078 72.3375 72.6274 67.1193 72.5059 63.938C71.5283 63.3616 70.6116 62.7191 69.8445 61.9759C69.7796 61.9137 69.7201 61.8474 69.6566 61.7852C69.4265 64.3236 69.5832 70.5516 74.8197 78.814C80.2158 87.3333 88.4174 90.4863 91.744 91.4568C92.6848 91.7307 93.2344 91.8324 93.2344 91.8324C93.2344 91.8324 93.7754 91.7363 94.6866 91.4709C94.6683 91.4655 94.6554 91.4626 94.6372 91.457Z" fill="#D7E9FF"/>
<path d="M91.8462 91.457C95.1728 90.4865 103.374 87.3335 108.77 78.8142C112.875 72.3375 113.856 67.1193 113.977 63.938C114.955 63.3616 115.872 62.7191 116.639 61.9759C116.704 61.9137 116.763 61.8474 116.827 61.7852C117.057 64.3236 116.9 70.5516 111.664 78.814C106.267 87.3333 98.0658 90.4863 94.7392 91.4568C93.7983 91.7307 93.2488 91.8324 93.2488 91.8324C93.2488 91.8324 92.7078 91.7363 91.7966 91.4709C91.8151 91.4655 91.8277 91.4626 91.8462 91.457Z" fill="#4487C6"/>
<path d="M135.906 101.958H50.5629C50.1631 101.958 49.8396 101.635 49.8396 101.235V92.5558C49.8396 86.339 53.0546 83.9629 58.9891 81.7524C60.0612 81.354 61.2577 81.0065 62.5234 80.6378C64.9503 79.9331 67.7006 79.1321 70.4876 77.7207C70.8437 77.5399 71.2773 77.6826 71.4595 78.0386C71.6404 78.3947 71.4977 78.8297 71.1404 79.0105C68.2347 80.4837 65.4152 81.3032 62.9276 82.0279C61.6873 82.388 60.5163 82.7285 59.4936 83.1085C53.9336 85.1795 51.2864 87.1217 51.2864 92.556V100.512H135.183V92.556C135.183 87.1217 132.536 85.1795 126.974 83.1085C125.977 82.7398 124.829 82.4022 123.612 82.0464C122.761 81.7963 121.868 81.535 120.945 81.2383C118.773 80.5616 116.987 79.8526 115.328 79.0107C114.972 78.8299 114.829 78.3948 115.011 78.0374C115.192 77.6813 115.629 77.5415 115.983 77.7209C117.568 78.5261 119.283 79.2057 121.381 79.8597C122.297 80.1534 123.179 80.4119 124.019 80.6577C125.26 81.0222 126.432 81.3654 127.477 81.7526C133.415 83.9633 136.63 86.3391 136.63 92.556V101.235C136.629 101.635 136.306 101.958 135.906 101.958Z" fill="#155A9A"/>
<path d="M118.389 48.3949C118.363 48.3949 118.337 48.3935 118.312 48.3908C117.915 48.3485 117.627 47.9924 117.669 47.5955C117.773 46.6122 117.824 45.7054 117.824 44.8219C117.824 38.0258 115.876 31.9319 112.191 27.199C111.945 26.884 112.001 26.4298 112.316 26.184C112.631 25.9369 113.085 25.9947 113.332 26.3104C117.217 31.2997 119.271 37.7009 119.271 44.8219C119.271 45.7569 119.217 46.714 119.107 47.7481C119.068 48.1195 118.754 48.3949 118.389 48.3949Z" fill="#155A9A"/>
<path d="M68.079 48.438C67.7145 48.438 67.4009 48.1626 67.3613 47.791C67.2525 46.7717 67.1975 45.7723 67.1975 44.8217C67.1975 37.7092 69.2513 31.3136 73.1361 26.3251C73.3806 26.0094 73.8354 25.9515 74.1518 26.1987C74.4668 26.4444 74.5234 26.8987 74.2775 27.2136C70.5921 31.9458 68.6441 38.0341 68.6441 44.8217C68.6441 45.7214 68.6964 46.6686 68.7994 47.6384C68.8417 48.0353 68.5537 48.3913 68.1568 48.4336C68.1313 48.4367 68.1043 48.438 68.079 48.438Z" fill="#155A9A"/>
<path d="M95.4038 101.958C95.004 101.958 94.6807 101.635 94.6807 101.235V94.0024C94.6807 93.6028 95.004 93.2793 95.4038 93.2793C95.8036 93.2793 96.1271 93.6028 96.1271 94.0024V101.235C96.1271 101.635 95.8036 101.958 95.4038 101.958Z" fill="#155A9A"/>
<path d="M91.0644 101.958C90.6646 101.958 90.3411 101.635 90.3411 101.235V94.0024C90.3411 93.6028 90.6646 93.2793 91.0644 93.2793C91.464 93.2793 91.7877 93.6028 91.7877 94.0024V101.235C91.7875 101.635 91.464 101.958 91.0644 101.958Z" fill="#155A9A"/>
<path d="M81.6713 65.7958C77.2272 65.7958 72.2719 63.8889 69.342 61.0496C65.8728 57.7074 65.4997 53.5975 68.2911 49.4784C68.4676 49.2178 68.7911 49.1004 69.0947 49.1909C69.397 49.2805 69.606 49.5554 69.6131 49.8704C69.6187 50.1698 69.8221 57.2046 74.6675 57.2031C75.2155 57.2031 75.8159 57.1151 76.4517 56.9406C78.7541 56.3062 80.7882 55.5385 82.5823 54.8604C85.1729 53.8821 87.2184 53.1095 89.0053 53.1095C90.2893 53.1095 91.3361 53.517 92.2048 54.3546C93.3505 55.4537 93.9579 56.7102 93.9579 57.9843C93.9579 59.3784 93.2402 60.7643 91.8828 61.9919C91.2484 62.5611 90.5013 63.0808 89.6606 63.5386C88.2905 64.2986 86.6235 64.9386 84.7109 65.44C83.7943 65.6758 82.7731 65.7958 81.6713 65.7958ZM68.4352 52.2321C67.0311 55.7043 68.6034 58.3289 70.3465 60.0099C73.0261 62.6063 77.5776 64.3494 81.6713 64.3494C82.6503 64.3494 83.5501 64.2449 84.3468 64.0401C86.1407 63.5696 87.6947 62.9748 88.9632 62.2702C89.7118 61.8633 90.3673 61.4098 90.9153 60.9169C91.9591 59.9732 92.5115 58.9591 92.5115 57.9843C92.5115 57.1136 92.058 56.2185 91.202 55.3971C89.6015 53.8552 87.0023 54.7374 83.0922 56.2137C81.2699 56.9024 79.202 57.6834 76.8359 58.3345C76.0759 58.5436 75.3456 58.6495 74.6675 58.6495C70.7745 58.651 69.0412 55.1944 68.4352 52.2321Z" fill="#155A9A"/>
<path d="M104.798 65.7957C103.697 65.7957 102.675 65.6757 101.761 65.4397C99.8452 64.9385 98.1782 64.2983 96.8025 63.5342C95.9676 63.0807 95.2203 62.561 94.5876 61.9945C93.2287 60.7641 92.511 59.3783 92.511 57.9842C92.511 56.7101 93.1184 55.4536 94.267 54.3531C95.1327 53.5169 96.1795 53.1094 97.4636 53.1094C99.2506 53.1094 101.296 53.882 103.887 54.8603C105.681 55.5384 107.715 56.3061 110.017 56.9405C110.653 57.115 111.253 57.203 111.801 57.203C116.661 57.203 116.854 49.9437 116.856 49.871C116.861 49.5553 117.072 49.2804 117.373 49.1907C117.682 49.1011 118.002 49.2182 118.178 49.4783C120.969 53.5974 120.596 57.7073 117.125 61.0509C114.197 63.8888 109.242 65.7957 104.798 65.7957ZM97.4636 54.5558C96.5596 54.5558 95.8631 54.8228 95.2698 55.3957C94.4111 56.2186 93.9576 57.1135 93.9576 57.9842C93.9576 58.959 94.51 59.973 95.5551 60.9195C96.1018 61.4097 96.7573 61.8632 97.5003 62.2672C98.7745 62.9747 100.329 63.5694 102.125 64.0399C102.919 64.2448 103.819 64.3493 104.798 64.3493C108.891 64.3493 113.441 62.6062 116.121 60.0112C117.865 58.3288 119.438 55.7044 118.034 52.232C117.428 55.1935 115.694 58.6494 111.801 58.6494C111.123 58.6494 110.393 58.5435 109.633 58.3344C107.267 57.6831 105.199 56.9021 103.376 56.2136C100.923 55.2876 98.9864 54.5558 97.4636 54.5558Z" fill="#155A9A"/>
<path d="M93.2345 62.9032C92.1199 62.9032 91.3811 62.68 90.9758 62.2236C90.6494 61.8549 90.6679 61.4763 90.6805 61.3689C90.7286 60.972 91.0986 60.6993 91.4857 60.7375C91.7937 60.7756 92.0338 61.0031 92.1016 61.2884C92.2076 61.3436 92.5114 61.4566 93.2347 61.4566C93.958 61.4566 94.2617 61.3436 94.3677 61.2884C94.4355 61.0031 94.6756 60.7756 94.9834 60.7375C95.3706 60.6922 95.7407 60.972 95.7886 61.3689C95.8013 61.4763 95.8197 61.8549 95.4933 62.2236C95.0877 62.68 94.3491 62.9032 93.2345 62.9032Z" fill="#155A9A"/>
<path d="M93.2347 65.0724C89.2342 65.0724 88.6776 63.3885 88.6071 63.0509C88.5252 62.6598 88.7753 62.277 89.1664 62.1951C89.5351 62.1132 89.9094 62.3434 90.0112 62.7079C90.0464 62.7828 90.514 63.6259 93.2347 63.6259C96.0669 63.6259 96.4568 62.7121 96.4611 62.7023C96.5431 62.311 96.9327 62.0891 97.3099 62.1698C97.7012 62.2517 97.9443 62.66 97.8623 63.0511C97.7916 63.3887 97.2351 65.0724 93.2347 65.0724Z" fill="#155A9A"/>
<path d="M93.2329 92.556C92.8883 92.556 92.5845 92.3088 92.5223 91.9571C92.4531 91.5643 92.7158 91.1902 93.1085 91.1195C93.1185 91.1181 93.9942 90.9613 95.3743 90.4966C99.1601 89.2549 106.22 86.0384 111.037 78.4273C111.307 78.0008 111.563 77.574 111.804 77.1601C117.532 67.3864 115.94 60.7768 115.923 60.7104C115.826 60.3247 116.057 59.9307 116.443 59.8304C116.826 59.7315 117.223 59.9604 117.323 60.3473C117.399 60.6356 119.11 67.5544 113.053 77.8917C112.803 78.3183 112.539 78.7591 112.26 79.1998C107.2 87.1936 99.7956 90.5684 95.8317 91.8679C94.3416 92.3708 93.3978 92.5375 93.3582 92.5446C93.3163 92.5518 93.2754 92.556 93.2329 92.556Z" fill="#155A9A"/>
<path d="M93.2345 92.5559C93.1907 92.5559 93.147 92.5517 93.103 92.5432C93.103 92.5432 92.528 92.4387 91.5407 92.1505C88.1745 91.1688 79.7456 87.9424 74.2081 79.2014C67.2073 68.1549 69.062 60.6596 69.1452 60.346C69.2456 59.9603 69.6425 59.7316 70.0253 59.8303C70.411 59.9307 70.6441 60.3247 70.5452 60.7118C70.5267 60.7825 68.7964 67.96 75.4299 78.4273C80.7031 86.7516 88.7365 89.8269 91.946 90.7621C92.826 91.0193 93.3459 91.1182 93.3658 91.1209C93.7585 91.1943 94.0171 91.5699 93.945 91.9626C93.8815 92.3116 93.5764 92.5559 93.2345 92.5559Z" fill="#155A9A"/>
<path d="M93.2343 89.663C92.8345 89.663 92.511 89.3395 92.511 88.9397V67.2423C92.511 66.8425 92.8345 66.519 93.2343 66.519C93.6341 66.519 93.9576 66.8425 93.9576 67.2423V88.9397C93.9576 89.3395 93.6341 89.663 93.2343 89.663Z" fill="#155A9A"/>
<path d="M103.2 85.3236C103.117 85.3236 103.031 85.3095 102.949 85.2784C102.575 85.1386 102.384 84.7233 102.522 84.3475C105.866 75.3465 100.611 69.1804 97.1813 66.3071C96.875 66.05 96.8354 65.5938 97.0923 65.2871C97.348 64.9835 97.8057 64.9412 98.1109 65.1981C101.833 68.3173 107.532 75.0172 103.878 84.8516C103.77 85.1428 103.494 85.3236 103.2 85.3236Z" fill="#155A9A"/>
<path d="M112.545 72.3052C112.279 72.3052 112.025 72.1584 111.898 71.9039C111.006 70.1185 109.298 68.7341 108.023 67.888C107.689 67.6662 107.599 67.2185 107.819 66.885C108.041 66.5501 108.493 66.4626 108.822 66.683C110.892 68.0562 112.361 69.5957 113.191 71.2584C113.369 71.6159 113.225 72.0509 112.868 72.2289C112.763 72.2799 112.653 72.3052 112.545 72.3052Z" fill="#155A9A"/>
<path d="M83.2687 85.3234C82.9748 85.3234 82.6995 85.1426 82.5906 84.8517C78.9376 75.0171 84.6361 68.3174 88.3581 65.1982C88.6634 64.9398 89.1194 64.9823 89.3765 65.2871C89.6337 65.5936 89.5941 66.05 89.2876 66.3072C85.8579 69.1804 80.603 75.3463 83.9466 84.3475C84.0851 84.7233 83.8943 85.1386 83.52 85.2784C83.4381 85.3093 83.352 85.3234 83.2687 85.3234Z" fill="#155A9A"/>
<path d="M73.9241 72.3052C73.8153 72.3052 73.7052 72.2797 73.6007 72.2288C73.2432 72.0509 73.0992 71.6157 73.2772 71.2584C74.1077 69.5959 75.5769 68.0562 77.6462 66.683C77.9753 66.4626 78.4259 66.5503 78.6492 66.885C78.8697 67.2184 78.7793 67.6661 78.4458 67.888C77.1703 68.7341 75.4624 70.1184 74.5711 71.9039C74.4438 72.1583 74.1896 72.3052 73.9241 72.3052Z" fill="#155A9A"/>
<path d="M90.3116 33.2553C90.3116 33.2553 90.3116 33.2553 90.3102 33.2553C79.5308 33.2546 76.1405 29.004 75.0796 26.4706C74.6475 25.4233 74.4299 24.2988 74.4299 23.1241C74.4299 16.7789 80.1128 16.2478 85.4397 16.2478C86.7406 16.2478 88.1137 16.2874 89.5305 16.329C91.0252 16.372 92.569 16.4172 94.1257 16.4172C100.734 16.4172 108.045 15.6183 112.169 9.69258C112.325 9.46583 112.602 9.34992 112.873 9.39097C113.148 9.43401 113.372 9.62893 113.453 9.89312C113.581 10.3092 116.512 20.1563 110.377 26.9502C107.699 29.9329 103.67 31.8362 98.4015 32.6054C95.4747 33.0363 92.7526 33.2553 90.3116 33.2553ZM85.4397 17.694C79.3825 17.694 75.8763 18.5826 75.8763 23.124C75.8763 24.1085 76.0572 25.0479 76.4146 25.9153C78.0066 29.7139 82.9422 31.808 90.3104 31.8087H90.3118C92.682 31.8087 95.3335 31.5953 98.1912 31.1746C103.117 30.4549 106.856 28.7081 109.303 25.9826C113.574 21.2512 112.944 14.6359 112.402 11.7536C107.811 17.1053 100.636 17.8638 94.1259 17.8638C92.5549 17.8638 90.997 17.8186 89.4883 17.7748C88.0853 17.7336 86.7265 17.694 85.4397 17.694Z" fill="#155A9A"/>
<path d="M90.107 23.4315C86.9188 23.4315 83.328 23.1469 79.3106 22.4483C78.9179 22.3798 78.6537 22.0055 78.7229 21.612C78.7908 21.2164 79.1721 20.9558 79.5593 21.0229C100.113 24.5969 109.303 16.8719 109.393 16.7929C109.695 16.5316 110.152 16.5627 110.413 16.8636C110.676 17.1638 110.646 17.6193 110.345 17.882C110.032 18.1576 103.818 23.4315 90.107 23.4315Z" fill="#155A9A"/>
<path d="M91.2834 28.6076C87.7123 28.6076 83.685 28.0878 79.2764 26.707C78.895 26.5877 78.6831 26.1823 78.8017 25.8007C78.9218 25.4194 79.3286 25.2074 79.7087 25.3268C96.5468 30.598 107.914 22.6182 108.027 22.5376C108.355 22.3023 108.804 22.3779 109.037 22.7007C109.27 23.0247 109.198 23.4762 108.874 23.71C108.513 23.9715 101.937 28.6076 91.2834 28.6076Z" fill="#155A9A"/>
<path d="M104.343 99.1377C104.158 99.1377 103.973 99.067 103.832 98.9258C103.549 98.6433 103.549 98.1855 103.832 97.903L119.684 82.051C119.963 81.7685 120.421 81.7642 120.706 82.0481C120.989 82.3291 120.992 82.7868 120.709 83.0707L104.854 98.9258C104.713 99.067 104.528 99.1377 104.343 99.1377Z" fill="#155A9A"/>
<path d="M122.758 99.1235C122.573 99.1235 122.386 99.0528 122.245 98.9102C121.964 98.6277 121.964 98.1699 122.248 97.8874L131.475 88.6745C131.757 88.392 132.215 88.392 132.497 88.6745C132.78 88.9569 132.78 89.4148 132.497 89.6972L123.268 98.9116C123.128 99.0528 122.943 99.1235 122.758 99.1235Z" fill="#155A9A"/>
<path d="M113.152 99.1234C112.967 99.1234 112.782 99.0527 112.641 98.9115L103.832 90.1025C103.549 89.82 103.549 89.3622 103.832 89.0798C104.114 88.7973 104.572 88.7973 104.854 89.0798L113.663 97.8887C113.946 98.1712 113.946 98.629 113.663 98.9115C113.522 99.0527 113.337 99.1234 113.152 99.1234Z" fill="#155A9A"/>
<path d="M131.566 99.1234C131.381 99.1234 131.196 99.0527 131.055 98.9115L113.669 81.5239C113.387 81.2414 113.387 80.7836 113.669 80.5011C113.952 80.2187 114.409 80.2187 114.692 80.5011L132.078 97.8887C132.36 98.1712 132.36 98.629 132.078 98.9115C131.937 99.0527 131.752 99.1234 131.566 99.1234Z" fill="#155A9A"/>
<path d="M82.5451 99.1376C82.3602 99.1376 82.175 99.0669 82.0338 98.9257L66.1801 83.072C65.8977 82.7896 65.8977 82.3317 66.1801 82.0495C66.4625 81.767 66.9204 81.767 67.2028 82.0495L83.0563 97.903C83.3388 98.1854 83.3388 98.6433 83.0563 98.9257C82.9151 99.0669 82.7301 99.1376 82.5451 99.1376Z" fill="#155A9A"/>
<path d="M64.1307 99.1235C63.9457 99.1235 63.7606 99.0528 63.6208 98.9116L54.391 89.6972C54.1086 89.4148 54.1086 88.9569 54.391 88.6745C54.6735 88.392 55.1311 88.392 55.4138 88.6745L64.6408 97.8874C64.9247 98.1699 64.9247 98.6277 64.6437 98.9102C64.5023 99.0528 64.3157 99.1235 64.1307 99.1235Z" fill="#155A9A"/>
<path d="M73.7352 99.1234C73.5502 99.1234 73.365 99.0527 73.2238 98.9115C72.9414 98.629 72.9414 98.1712 73.2238 97.8887L82.0342 89.0798C82.3167 88.7973 82.7743 88.7973 83.057 89.0798C83.3394 89.3622 83.3394 89.82 83.057 90.1025L74.2465 98.9115C74.1051 99.0527 73.9203 99.1234 73.7352 99.1234Z" fill="#155A9A"/>
<path d="M55.3216 99.1231C55.1366 99.1231 54.9514 99.0524 54.8102 98.9112C54.5278 98.6287 54.5278 98.1709 54.8102 97.8884L72.1951 80.5023C72.4776 80.2198 72.9354 80.2184 73.2178 80.4994C73.5017 80.7818 73.5017 81.2397 73.2207 81.5236L55.8331 98.9112C55.6917 99.0524 55.5066 99.1231 55.3216 99.1231Z" fill="#155A9A"/>
</svg>
