<svg width="86" height="66" viewBox="0 0 86 66" fill="none" xmlns="http://www.w3.org/2000/svg">
<path d="M85.0111 9.57751H1.64648V65.1319H85.0111V9.57751Z" fill="#E6E9ED"/>
<path d="M85.0111 9.57751H1.64648V65.1319H85.0111V9.57751Z" fill="#E6E9ED"/>
<path d="M17.4817 59.8311L12.1813 65.1314H1.59717V44.0128H1.66342L17.4817 59.8311Z" fill="#FFCE54"/>
<path d="M54.5508 59.8312L49.267 65.1315H43.9667L28.2809 49.4458L22.9971 54.7462L5.55566 37.3212L18.8066 24.0869L54.5508 59.8312Z" fill="#FFCE54"/>
<path d="M6.89335 38.6544L20.1396 25.4081L18.8162 24.0846L5.56988 37.3309L6.89335 38.6544Z" fill="white"/>
<path d="M33.3653 63.8067L32.0402 65.1318H21.4561L28.0649 58.5063L33.3653 63.8067Z" fill="#FC6E51"/>
<path d="M29.39 59.8314L28.0649 58.5063L21.4561 65.1318H24.1062L29.39 59.8314Z" fill="white"/>
<path d="M85.0106 57.1809V65.1314H77.0767L85.0106 57.1809Z" fill="#5D9CEC"/>
<path d="M85.0106 59.8311V57.1809L77.0767 65.1314H79.7103L85.0106 59.8311Z" fill="#3A3847"/>
<path d="M85.0099 47.9219V57.1809L77.0759 65.1315H67.8003L85.0099 47.9219Z" fill="#A0D468"/>
<path d="M85.0099 47.9221L67.8003 65.1317H70.4505L85.0099 50.5723V47.9221Z" fill="white"/>
<path d="M67.8005 65.1316H61.175L65.1503 61.1563L26.7559 22.7619V21.4368H33.3647V22.7619L68.463 57.8436L85.0101 41.2965V47.922L67.8005 65.1316Z" fill="white"/>
<path d="M85.0106 20.1118V30.696L82.3605 33.3461L77.0767 28.0458L85.0106 20.1118Z" fill="#FC6E51"/>
<path d="M85.0106 20.1118L77.0767 28.0458L78.3852 29.3709L85.0106 22.762V20.1118Z" fill="white"/>
<path d="M67.7866 47.9197L77.0508 38.6555L58.5107 20.1155L49.2466 29.3796L67.7866 47.9197Z" fill="#FFCE54"/>
<path d="M50.5888 30.6976L59.853 21.4335L58.5296 20.11L49.2654 29.3742L50.5888 30.6976Z" fill="white"/>
<path d="M1.66293 13.5193L1.59668 32.0208L10.8557 22.7618L1.66293 13.5193Z" fill="#FC6E51"/>
<path d="M85.0111 9.57751H1.64648V65.1319H85.0111V9.57751Z" fill="#D7E9FF"/>
<path d="M44.9762 20.4764V14.3975L43.3364 9.57751H55.8751L44.9762 20.4764Z" fill="#78B0E5"/>
<path d="M17.4817 59.8311L12.1813 65.1314H1.59717V44.0128H1.66342L17.4817 59.8311Z" fill="#FFCE54"/>
<path d="M54.5508 59.8312L49.267 65.1315H43.9667L28.2809 49.4458L22.9971 54.7462L5.55566 37.3212L18.8066 24.0869L54.5508 59.8312Z" fill="#FFCE54"/>
<path d="M6.89335 38.6544L20.1396 25.4081L18.8162 24.0846L5.56988 37.3309L6.89335 38.6544Z" fill="white"/>
<path d="M33.3653 63.8067L32.0402 65.1318H21.4561L28.0649 58.5063L33.3653 63.8067Z" fill="#FC6E51"/>
<path d="M29.39 59.8314L28.0649 58.5063L21.4561 65.1318H24.1062L29.39 59.8314Z" fill="white"/>
<path d="M85.0106 57.1809V65.1314H77.0767L85.0106 57.1809Z" fill="#5D9CEC"/>
<path d="M85.0106 59.8311V57.1809L77.0767 65.1314H79.7103L85.0106 59.8311Z" fill="#3A3847"/>
<path d="M85.0099 47.9219V57.1809L77.0759 65.1315H67.8003L85.0099 47.9219Z" fill="#A0D468"/>
<path d="M85.0099 47.9221L67.8003 65.1317H70.4505L85.0099 50.5723V47.9221Z" fill="white"/>
<path d="M67.8005 65.1316H61.175L65.1503 61.1563L26.7559 22.7619V21.4368H33.3647V22.7619L68.463 57.8436L85.0101 41.2965V47.922L67.8005 65.1316Z" fill="white"/>
<path d="M85.0106 20.1118V30.696L82.3605 33.3461L77.0767 28.0458L85.0106 20.1118Z" fill="#FC6E51"/>
<path d="M85.0106 20.1118L77.0767 28.0458L78.3852 29.3709L85.0106 22.762V20.1118Z" fill="white"/>
<path d="M1.66293 13.5193L1.59668 32.0208L10.8557 22.7618L1.66293 13.5193Z" fill="#FC6E51"/>
<path d="M17.4812 59.8311L12.1808 65.1314H1.59668V44.0128H1.66293L17.4812 59.8311Z" fill="#78B0E5"/>
<path d="M33.3663 63.8066L32.0412 65.1317H21.457L28.0659 58.5062L33.3663 63.8066Z" fill="#94C1FF"/>
<path d="M29.39 59.8314L28.0649 58.5063L21.4561 65.1318H24.1062L29.39 59.8314Z" fill="#D7E9FF"/>
<path d="M85.0106 57.1809V65.1314H77.0767L85.0106 57.1809Z" fill="white"/>
<path d="M85.0099 47.9219V57.1809L77.0759 65.1315H67.8003L85.0099 47.9219Z" fill="#D7E9FF"/>
<path d="M85.0106 20.1118V30.696L82.3605 33.3461L77.0767 28.0458L85.0106 20.1118Z" fill="#78B0E5"/>
<path d="M85.0106 20.1118L77.0767 28.0458L78.3852 29.3709L85.0106 22.762V20.1118Z" fill="#D7E9FF"/>
<path d="M1.66293 13.5193L1.59668 32.0208L10.8557 22.7618L1.66293 13.5193Z" fill="#78B0E5"/>
<path d="M29.3899 1.62683C38.1686 1.62683 45.2744 8.73262 45.2744 17.5113C45.2744 26.2735 32.8351 43.9965 29.3899 43.9965C27.0213 43.9965 20.3958 35.6319 16.4868 27.5323C15.5924 25.6938 14.847 23.8718 14.3336 22.1657C13.8035 20.4597 13.5054 18.8696 13.5054 17.5113C13.5054 8.74918 20.6112 1.62683 29.3899 1.62683Z" fill="#A5CCF2"/>
<path d="M39.9412 5.65198C42.4423 8.45123 43.9662 12.1449 43.9662 16.203C43.9662 24.9651 31.5269 42.6882 28.0817 42.6882C27.4854 42.6882 26.6075 42.1582 25.5806 41.214C27.1872 42.9366 28.562 44.0133 29.4068 44.0133C32.8686 44.0133 45.2913 26.2902 45.2913 17.5281C45.2913 12.7909 43.2208 8.56717 39.9412 5.65198Z" fill="#78B0E5"/>
<path d="M17.8285 28.8739C16.9341 27.0353 16.1887 25.2133 15.6752 23.5073C15.1452 21.8012 14.8471 20.2111 14.8471 18.8529C14.8471 10.0742 21.9528 2.9684 30.7316 2.9684C34.7896 2.9684 38.4668 4.49225 41.2826 6.99336C38.3674 3.71376 34.1437 1.64331 29.4065 1.64331C20.6278 1.64331 13.522 8.7491 13.522 17.5278C13.522 18.886 13.8201 20.4761 14.3502 22.1822C14.8636 23.8882 15.6256 25.7102 16.5034 27.5488C19.4186 33.5945 23.8577 39.7893 26.9054 42.5389C23.9902 39.4083 20.3462 34.0914 17.8285 28.8739Z" fill="#D7E9FF"/>
<path d="M68.4638 57.8434L40.8854 30.265C40.1069 31.6895 39.2622 33.0808 38.4009 34.4059L65.1511 61.1561L61.1758 65.1314H67.8013L85.0109 47.9053V41.2798L68.4638 57.8434Z" fill="white"/>
<path d="M34.4913 39.7728C32.3546 42.3401 30.4498 44.0131 29.3897 44.0131C27.0211 44.0131 20.3957 35.6484 16.4867 27.5488C16.3542 27.2838 16.2382 27.0188 16.1223 26.7538L5.55469 37.3214L22.9796 54.7463L28.28 49.4459L43.9657 65.1317H49.266L54.5664 59.8313L34.4913 39.7728Z" fill="#78B0E5"/>
<path d="M16.5038 27.5488C16.3712 27.2838 16.2553 27.0188 16.1394 26.7538L5.57178 37.3214L6.89687 38.6465L17.0007 28.5427C16.835 28.2114 16.6528 27.8801 16.5038 27.5488Z" fill="#D7E9FF"/>
<path d="M74.4257 22.8283L67.8003 16.2028L74.4257 9.57739H85.0099V12.2276L74.4257 22.8283Z" fill="#78B0E5"/>
<path d="M74.4262 9.57751L67.8008 16.203L69.1259 17.528L77.0764 9.57751H74.4262Z" fill="#D7E9FF"/>
<path d="M37.3073 16.5342L29.3734 9.57751L21.4229 16.5342V26.7871H37.3073V16.5342Z" fill="white"/>
<path d="M21.4229 16.5341V26.787H22.7479V15.3746L21.4229 16.5341Z" fill="white"/>
<path d="M37.3407 16.5341V26.787H36.0156V15.3746L37.3407 16.5341Z" fill="#A5CCF2"/>
<path d="M29.3732 18.8531H24.106V22.8284H29.3732V18.8531Z" fill="#A5CCF2"/>
<path d="M34.6571 21.4869H32.0234V26.7376H34.6571V21.4869Z" fill="#A5CCF2"/>
<path d="M61.1435 65.8601C60.9779 65.8601 60.8122 65.7939 60.6797 65.6614C60.4147 65.3963 60.4147 64.9823 60.6797 64.7172L64.655 60.742C64.92 60.477 65.3341 60.477 65.5991 60.742C65.8641 61.007 65.8641 61.4211 65.5991 61.6861L61.6238 65.6614C61.4913 65.7939 61.3257 65.8601 61.1435 65.8601Z" fill="#155A9A"/>
<path d="M68.4306 58.5724C68.265 58.5724 68.0993 58.5062 67.9668 58.3736C67.7018 58.1086 67.7018 57.6945 67.9668 57.4295L84.5139 40.8825C84.7789 40.6175 85.193 40.6175 85.458 40.8825C85.723 41.1475 85.723 41.5616 85.458 41.8266L68.911 58.3736C68.7619 58.5062 68.5962 58.5724 68.4306 58.5724Z" fill="#155A9A"/>
<path d="M67.768 65.8603C67.6024 65.8603 67.4367 65.7941 67.3042 65.6615C67.0392 65.3965 67.0392 64.9824 67.3042 64.7174L84.5138 47.5078C84.7788 47.2428 85.1929 47.2428 85.458 47.5078C85.723 47.7729 85.723 48.1869 85.458 48.452L68.2318 65.6615C68.0993 65.7941 67.9337 65.8603 67.768 65.8603Z" fill="#155A9A"/>
<path d="M68.4311 58.5723C68.2655 58.5723 68.0998 58.506 67.9673 58.3735L43.4698 33.8759C43.2047 33.6109 43.2047 33.1968 43.4698 32.9318C43.7348 32.6668 44.1489 32.6668 44.4139 32.9318L68.9115 57.4294C69.1765 57.6944 69.1765 58.1085 68.9115 58.3735C68.7624 58.506 68.5968 58.5723 68.4311 58.5723Z" fill="#155A9A"/>
<path d="M65.1177 61.8849C64.9521 61.8849 64.7864 61.8187 64.6539 61.6862L40.8189 37.8511C40.5539 37.5861 40.5539 37.172 40.8189 36.907C41.0839 36.642 41.498 36.642 41.763 36.907L65.598 60.7421C65.8631 61.0071 65.8631 61.4212 65.598 61.6862C65.4655 61.8187 65.2833 61.8849 65.1177 61.8849Z" fill="#155A9A"/>
<path d="M67.7866 47.9197L77.0508 38.6555L58.5107 20.1155L49.2466 29.3796L67.7866 47.9197Z" fill="#78B0E5"/>
<path d="M50.5888 30.6976L59.853 21.4335L58.5296 20.11L49.2654 29.3742L50.5888 30.6976Z" fill="#D7E9FF"/>
<path d="M77.5074 38.2488L58.9727 19.6975C58.774 19.4988 58.4924 19.4491 58.2605 19.5485C58.1777 19.5816 58.1114 19.6313 58.0452 19.6975L48.7696 28.9732C48.5045 29.2382 48.5045 29.6523 48.7696 29.9173L67.3042 48.452C67.4367 48.5845 67.6024 48.6507 67.768 48.6507C67.8177 48.6507 67.8508 48.6507 67.9005 48.6342C68.033 48.6176 68.149 48.5513 68.2484 48.452L77.524 39.1763C77.6565 39.0438 77.7227 38.8782 77.7227 38.7126C77.7227 38.5469 77.6399 38.3647 77.5074 38.2488ZM67.768 47.0441L50.1609 29.4369L58.4924 21.1054L76.0995 38.7126L67.768 47.0441Z" fill="#155A9A"/>
<path d="M82.3271 34.0746C82.1615 34.0746 81.9958 34.0083 81.8633 33.8758C81.5983 33.6108 81.5983 33.1967 81.8633 32.9317L84.5135 30.2815C84.7785 30.0165 85.1926 30.0165 85.4576 30.2815C85.7226 30.5465 85.7226 30.9606 85.4576 31.2257L82.8074 33.8758C82.6749 34.0083 82.5093 34.0746 82.3271 34.0746Z" fill="#155A9A"/>
<path d="M82.3272 34.0748C82.1615 34.0748 81.9959 34.0085 81.8634 33.876L76.563 28.5756C76.298 28.3106 76.298 27.8965 76.563 27.6315C76.828 27.3665 77.2421 27.3665 77.5071 27.6315L82.8075 32.9319C83.0725 33.1969 83.0725 33.611 82.8075 33.876C82.675 34.0085 82.5094 34.0748 82.3272 34.0748Z" fill="#155A9A"/>
<path d="M77.0429 28.7744C76.8773 28.7744 76.7116 28.7081 76.5791 28.5756C76.3141 28.3106 76.3141 27.8965 76.5791 27.6315L84.5297 19.6809C84.7947 19.4159 85.2088 19.4159 85.4738 19.6809C85.7388 19.946 85.7388 20.36 85.4738 20.6251L77.5233 28.5756C77.3742 28.7081 77.2086 28.7744 77.0429 28.7744Z" fill="#155A9A"/>
<path d="M54.5342 60.5599C54.3686 60.5599 54.2029 60.4936 54.0704 60.3611L36.8443 43.1516C36.5793 42.8865 36.5793 42.4724 36.8443 42.2074C37.1093 41.9424 37.5234 41.9424 37.7884 42.2074L54.998 59.417C55.263 59.682 55.263 60.0961 54.998 60.3611C54.8655 60.4936 54.6998 60.5599 54.5342 60.5599Z" fill="#155A9A"/>
<path d="M49.2333 65.8601C49.0677 65.8601 48.9021 65.7939 48.7696 65.6614C48.5045 65.3963 48.5045 64.9823 48.7696 64.7172L54.0699 59.4169C54.3349 59.1519 54.749 59.1519 55.0141 59.4169C55.2791 59.6819 55.2791 60.096 55.0141 60.361L49.7137 65.6614C49.5646 65.7939 49.399 65.8601 49.2333 65.8601Z" fill="#155A9A"/>
<path d="M5.53803 38.0499C5.3724 38.0499 5.20676 37.9836 5.07425 37.8511C4.80923 37.5861 4.80923 37.172 5.07425 36.907L13.0248 28.9565C13.2898 28.6914 13.7039 28.6914 13.9689 28.9565C14.2339 29.2215 14.2339 29.6356 13.9689 29.9006L6.01838 37.8511C5.8693 37.9836 5.70367 38.0499 5.53803 38.0499Z" fill="#155A9A"/>
<path d="M22.9473 55.4748C22.7817 55.4748 22.616 55.4086 22.4835 55.276L5.05863 37.8511C4.79361 37.5861 4.79361 37.172 5.05863 36.907C5.32364 36.642 5.73773 36.642 6.00275 36.907L23.4277 54.3319C23.6927 54.5969 23.6927 55.011 23.4277 55.276C23.2952 55.4086 23.1295 55.4748 22.9473 55.4748Z" fill="#155A9A"/>
<path d="M22.9462 55.475C22.7806 55.475 22.615 55.4088 22.4825 55.2763C22.2174 55.0112 22.2174 54.5971 22.4825 54.3321L27.7828 49.0318C28.0478 48.7668 28.4619 48.7668 28.7269 49.0318C28.9919 49.2968 28.9919 49.7109 28.7269 49.9759L23.4266 55.2763C23.2941 55.4088 23.1284 55.475 22.9462 55.475Z" fill="#155A9A"/>
<path d="M43.9332 65.8604C43.7676 65.8604 43.602 65.7941 43.4695 65.6616L27.7837 49.9759C27.5187 49.7109 27.5187 49.2968 27.7837 49.0318C28.0487 48.7668 28.4628 48.7668 28.7278 49.0318L44.4136 64.7175C44.6786 64.9825 44.6786 65.3966 44.4136 65.6616C44.2645 65.7941 44.0989 65.8604 43.9332 65.8604Z" fill="#155A9A"/>
<path d="M32.0073 65.8603C31.8416 65.8603 31.676 65.7941 31.5435 65.6616C31.2785 65.3966 31.2785 64.9825 31.5435 64.7175L32.8686 63.3924C33.1336 63.1273 33.5477 63.1273 33.8127 63.3924C34.0777 63.6574 34.0777 64.0715 33.8127 64.3365L32.4876 65.6616C32.3551 65.7941 32.1895 65.8603 32.0073 65.8603Z" fill="#155A9A"/>
<path d="M33.332 64.5353C33.1664 64.5353 33.0008 64.4691 32.8683 64.3366L27.5679 59.0362C27.3029 58.7712 27.3029 58.3571 27.5679 58.0921C27.8329 57.8271 28.247 57.8271 28.512 58.0921L33.8124 63.3924C34.0774 63.6575 34.0774 64.0715 33.8124 64.3366C33.6799 64.4691 33.5142 64.5353 33.332 64.5353Z" fill="#155A9A"/>
<path d="M21.4243 65.8604C21.2586 65.8604 21.093 65.7941 20.9605 65.6616C20.6955 65.3966 20.6955 64.9825 20.9605 64.7175L27.5859 58.0921C27.8509 57.8271 28.265 57.8271 28.5301 58.0921C28.7951 58.3571 28.7951 58.7712 28.5301 59.0362L21.9046 65.6616C21.7555 65.7941 21.5899 65.8604 21.4243 65.8604Z" fill="#155A9A"/>
<path d="M17.4485 60.56C17.2829 60.56 17.1172 60.4938 16.9847 60.3613L1.14994 44.543C0.884917 44.278 0.884917 43.8639 1.14994 43.5989C1.41495 43.3339 1.82904 43.3339 2.09406 43.5989L17.9289 59.4337C18.1939 59.6987 18.1939 60.1128 17.9289 60.3778C17.7964 60.4938 17.6142 60.56 17.4485 60.56Z" fill="#155A9A"/>
<path d="M12.1469 65.8601C11.9813 65.8601 11.8156 65.7939 11.6831 65.6614C11.4181 65.3963 11.4181 64.9823 11.6831 64.7172L16.9835 59.4169C17.2485 59.1519 17.6626 59.1519 17.9276 59.4169C18.1926 59.6819 18.1926 60.096 17.9276 60.361L12.6273 65.6614C12.4948 65.7939 12.3126 65.8601 12.1469 65.8601Z" fill="#155A9A"/>
<path d="M10.8396 23.4742C10.674 23.4742 10.5084 23.408 10.3759 23.2755L1.14994 14.0661C0.884917 13.8011 0.884917 13.387 1.14994 13.122C1.41495 12.857 1.82904 12.857 2.09406 13.122L11.3034 22.3479C11.5684 22.6129 11.5684 23.027 11.3034 23.292C11.1709 23.408 11.0053 23.4742 10.8396 23.4742Z" fill="#155A9A"/>
<path d="M1.56342 32.7496C1.39779 32.7496 1.23215 32.6833 1.09964 32.5508C0.834624 32.2858 0.834624 31.8717 1.09964 31.6067L10.3753 22.3311C10.6403 22.0661 11.0544 22.0661 11.3194 22.3311C11.5844 22.5961 11.5844 23.0102 11.3194 23.2752L2.04377 32.5508C1.8947 32.6833 1.72906 32.7496 1.56342 32.7496Z" fill="#155A9A"/>
<path d="M67.7685 16.865C67.6029 16.865 67.4372 16.7988 67.3047 16.6663C67.0397 16.4013 67.0397 15.9872 67.3047 15.7222L73.9302 9.09671C74.1952 8.83169 74.6093 8.83169 74.8743 9.09671C75.1393 9.36173 75.1393 9.77582 74.8743 10.0408L68.2488 16.6663C68.0998 16.7988 67.9341 16.865 67.7685 16.865Z" fill="#155A9A"/>
<path d="M49.2333 16.865C49.0677 16.865 48.9021 16.7988 48.7696 16.6663C48.5045 16.4013 48.5045 15.9872 48.7696 15.7222L55.395 9.09671C55.66 8.83169 56.0741 8.83169 56.3391 9.09671C56.6041 9.36173 56.6041 9.77582 56.3391 10.0408L49.7137 16.6663C49.5646 16.7988 49.399 16.865 49.2333 16.865Z" fill="#155A9A"/>
<path d="M77.0429 65.8603C76.8773 65.8603 76.7116 65.794 76.5791 65.6615C76.3141 65.3965 76.3141 64.9824 76.5791 64.7174L84.5297 56.7669C84.7947 56.5019 85.2088 56.5019 85.4738 56.7669C85.7388 57.0319 85.7388 57.446 85.4738 57.711L77.5233 65.6615C77.3742 65.794 77.2086 65.8603 77.0429 65.8603Z" fill="#155A9A"/>
<path d="M74.3939 23.4741C74.2283 23.4741 74.0627 23.4078 73.9302 23.2753L67.3047 16.6498C67.0397 16.3848 67.0397 15.9707 67.3047 15.7057C67.5697 15.4407 67.9838 15.4407 68.2488 15.7057L74.8743 22.3312C75.1393 22.5962 75.1393 23.0103 74.8743 23.2753C74.7252 23.4078 74.5596 23.4741 74.3939 23.4741Z" fill="#155A9A"/>
<path d="M74.394 23.4739C74.2284 23.4739 74.0627 23.4076 73.9302 23.2751C73.6652 23.0101 73.6652 22.596 73.9302 22.331L84.5309 11.7303C84.7959 11.4652 85.21 11.4652 85.475 11.7303C85.74 11.9953 85.74 12.4094 85.475 12.6744L74.8743 23.2751C74.7253 23.4076 74.5596 23.4739 74.394 23.4739Z" fill="#155A9A"/>
<path d="M84.9783 65.8603H1.61372C1.24932 65.8603 0.951172 65.5622 0.951172 65.1978V9.57722C0.951172 9.21282 1.24932 8.91467 1.61372 8.91467C1.97812 8.91467 2.27626 9.21282 2.27626 9.57722V64.5353H84.3158V9.57722C84.3158 9.21282 84.6139 8.91467 84.9783 8.91467C85.3427 8.91467 85.6409 9.21282 85.6409 9.57722V65.1978C85.6409 65.5622 85.3427 65.8603 84.9783 65.8603Z" fill="#155A9A"/>
<path d="M29.3732 44.6754C25.4642 44.6754 12.8262 26.7204 12.8262 17.5276C12.8262 8.40109 20.2467 0.980591 29.3732 0.980591C38.4998 0.980591 45.9203 8.40109 45.9203 17.5276C45.9203 26.7204 33.2822 44.6754 29.3732 44.6754ZM29.3732 2.28912C20.9755 2.28912 14.1513 9.11332 14.1513 17.5111C14.1513 26.3892 26.5243 43.3337 29.3732 43.3337C32.2222 43.3337 44.5952 26.3892 44.5952 17.5276C44.5952 9.12989 37.771 2.28912 29.3732 2.28912Z" fill="#155A9A"/>
<path d="M10.8231 10.2398H1.61372C1.24932 10.2398 0.951172 9.94162 0.951172 9.57722C0.951172 9.21282 1.24932 8.91467 1.61372 8.91467H10.8231C11.1875 8.91467 11.4856 9.21282 11.4856 9.57722C11.4856 9.94162 11.1875 10.2398 10.8231 10.2398Z" fill="#155A9A"/>
<path d="M84.9775 10.2398H47.9081C47.5438 10.2398 47.2456 9.94162 47.2456 9.57722C47.2456 9.21282 47.5438 8.91467 47.9081 8.91467H84.9941C85.3585 8.91467 85.6566 9.21282 85.6566 9.57722C85.6566 9.94162 85.3419 10.2398 84.9775 10.2398Z" fill="#155A9A"/>
<path d="M18.7727 19.5157C18.5905 19.5157 18.4083 19.4328 18.2758 19.2838C18.0273 19.0022 18.0605 18.5881 18.342 18.3562L28.9427 9.08059C29.2243 8.83213 29.6384 8.86526 29.8703 9.14684C30.1187 9.42842 30.0856 9.84251 29.804 10.0744L19.2033 19.35C19.0874 19.4494 18.9218 19.5157 18.7727 19.5157Z" fill="#155A9A"/>
<path d="M39.958 19.5153C39.8089 19.5153 39.6433 19.4656 39.5274 19.3497L28.9266 10.0741C28.6451 9.8256 28.6285 9.41151 28.8604 9.14649C29.1088 8.86491 29.5229 8.84834 29.7879 9.08023L40.3887 18.3559C40.6702 18.6043 40.6868 19.0184 40.4549 19.2834C40.3224 19.4325 40.1402 19.5153 39.958 19.5153Z" fill="#155A9A"/>
<path d="M21.4243 27.4492C21.0599 27.4492 20.7617 27.1511 20.7617 26.7867V18.8361C20.7617 18.4717 21.0599 18.1736 21.4243 18.1736C21.7887 18.1736 22.0868 18.4717 22.0868 18.8361V26.7867C22.0868 27.1511 21.7887 27.4492 21.4243 27.4492Z" fill="#155A9A"/>
<path d="M37.3088 27.4495H21.4243C21.0599 27.4495 20.7617 27.1513 20.7617 26.7869C20.7617 26.4225 21.0599 26.1244 21.4243 26.1244H37.3088C37.6732 26.1244 37.9713 26.4225 37.9713 26.7869C37.9713 27.1513 37.6732 27.4495 37.3088 27.4495Z" fill="#155A9A"/>
<path d="M37.3081 27.4492C36.9437 27.4492 36.6455 27.1511 36.6455 26.7867V18.8361C36.6455 18.4717 36.9437 18.1736 37.3081 18.1736C37.6725 18.1736 37.9706 18.4717 37.9706 18.8361V26.7867C37.9706 27.1511 37.6725 27.4492 37.3081 27.4492Z" fill="#155A9A"/>
<path d="M32.0073 27.4497C31.6429 27.4497 31.3447 27.1515 31.3447 26.7871V21.4868C31.3447 21.1224 31.6429 20.8242 32.0073 20.8242C32.3717 20.8242 32.6698 21.1224 32.6698 21.4868V26.7871C32.6698 27.1515 32.3882 27.4497 32.0073 27.4497Z" fill="#155A9A"/>
<path d="M34.6572 27.4497C34.2928 27.4497 33.9946 27.1515 33.9946 26.7871V21.4868C33.9946 21.1224 34.2928 20.8242 34.6572 20.8242C35.0216 20.8242 35.3197 21.1224 35.3197 21.4868V26.7871C35.3197 27.1515 35.0216 27.4497 34.6572 27.4497Z" fill="#155A9A"/>
<path d="M29.3731 23.4739H24.0727C23.7083 23.4739 23.4102 23.1758 23.4102 22.8114V18.8361C23.4102 18.4717 23.7083 18.1736 24.0727 18.1736H29.3731C29.7375 18.1736 30.0356 18.4717 30.0356 18.8361V22.8114C30.0356 23.1924 29.7375 23.4739 29.3731 23.4739ZM24.7352 22.1488H28.7105V19.4987H24.7352V22.1488Z" fill="#155A9A"/>
<path d="M34.6574 22.1493H32.0073C31.6429 22.1493 31.3447 21.8512 31.3447 21.4868C31.3447 21.1224 31.6429 20.8242 32.0073 20.8242H34.6574C35.0218 20.8242 35.32 21.1224 35.32 21.4868C35.32 21.8512 35.0218 22.1493 34.6574 22.1493Z" fill="#155A9A"/>
</svg>
