<svg width="186" height="120" viewBox="0 0 186 120" fill="none" xmlns="http://www.w3.org/2000/svg">
<path d="M93 17C41.6375 17 0 58.6375 0 110H186C186 58.6375 144.362 17 93 17Z" fill="#F6F6F6"/>
<path d="M139.788 37.6526H46.3052V99.9498H139.788V37.6526Z" fill="#E6E9ED"/>
<path d="M139.788 37.6526H46.3052V99.9498H139.788V37.6526Z" fill="#E6E9ED"/>
<path d="M64.062 94.006L58.1183 99.9497H46.2495V76.2678H46.3238L64.062 94.006Z" fill="#FFCE54"/>
<path d="M105.63 94.006L99.7052 99.9497H93.7616L76.172 82.3601L70.2469 88.3038L50.6885 68.764L65.5477 53.9233L105.63 94.006Z" fill="#FFCE54"/>
<path d="M52.1884 70.2588L67.0425 55.4048L65.5584 53.9207L50.7043 68.7747L52.1884 70.2588Z" fill="white"/>
<path d="M81.8737 98.4637L80.3878 99.9496H68.519L75.9301 92.52L81.8737 98.4637Z" fill="#FC6E51"/>
<path d="M77.416 94.0059L75.9301 92.52L68.519 99.9496H71.4909L77.416 94.0059Z" fill="white"/>
<path d="M139.788 91.0339V99.9495H130.891L139.788 91.0339Z" fill="#5D9CEC"/>
<path d="M139.788 94.0058V91.0339L130.891 99.9495H133.844L139.788 94.0058Z" fill="#3A3847"/>
<path d="M139.788 80.6511V91.034L130.891 99.9495H120.489L139.788 80.6511Z" fill="#A0D468"/>
<path d="M139.788 80.6514L120.489 99.9497H123.461L139.788 83.6232V80.6514Z" fill="white"/>
<path d="M120.489 99.9496H113.06L117.518 95.4919L74.4631 52.4373V50.9514H81.8742V52.4373L121.232 91.7771L139.788 73.2216V80.6512L120.489 99.9496Z" fill="white"/>
<path d="M139.788 49.4653V61.3341L136.816 64.306L130.891 58.3623L139.788 49.4653Z" fill="#FC6E51"/>
<path d="M139.788 49.4653L130.891 58.3623L132.358 59.8482L139.788 52.4372V49.4653Z" fill="white"/>
<path d="M120.474 80.6484L130.863 70.2598L110.072 49.4694L99.6839 59.858L120.474 80.6484Z" fill="#FFCE54"/>
<path d="M101.188 61.3364L111.577 50.9478L110.093 49.4636L99.7039 59.8523L101.188 61.3364Z" fill="white"/>
<path d="M46.3238 42.073L46.2495 62.8201L56.6324 52.4373L46.3238 42.073Z" fill="#FC6E51"/>
<path d="M139.788 37.6526H46.3052V99.9498H139.788V37.6526Z" fill="#D7E9FF"/>
<path d="M94.8945 49.8743V43.0576L93.0557 37.6526H107.116L94.8945 49.8743Z" fill="#78B0E5"/>
<path d="M64.062 94.006L58.1183 99.9497H46.2495V76.2678H46.3238L64.062 94.006Z" fill="#FFCE54"/>
<path d="M105.63 94.006L99.7052 99.9497H93.7616L76.172 82.3601L70.2469 88.3038L50.6885 68.764L65.5477 53.9233L105.63 94.006Z" fill="#FFCE54"/>
<path d="M52.1884 70.2588L67.0425 55.4048L65.5584 53.9207L50.7043 68.7747L52.1884 70.2588Z" fill="white"/>
<path d="M81.8737 98.4637L80.3878 99.9496H68.519L75.9301 92.52L81.8737 98.4637Z" fill="#FC6E51"/>
<path d="M77.416 94.0059L75.9301 92.52L68.519 99.9496H71.4909L77.416 94.0059Z" fill="white"/>
<path d="M139.788 91.0339V99.9495H130.891L139.788 91.0339Z" fill="#5D9CEC"/>
<path d="M139.788 94.0058V91.0339L130.891 99.9495H133.844L139.788 94.0058Z" fill="#3A3847"/>
<path d="M139.788 80.6511V91.034L130.891 99.9495H120.489L139.788 80.6511Z" fill="#A0D468"/>
<path d="M139.788 80.6514L120.489 99.9497H123.461L139.788 83.6232V80.6514Z" fill="white"/>
<path d="M120.489 99.9496H113.06L117.518 95.4919L74.4631 52.4373V50.9514H81.8742V52.4373L121.232 91.7771L139.788 73.2216V80.6512L120.489 99.9496Z" fill="white"/>
<path d="M139.788 49.4653V61.3341L136.816 64.306L130.891 58.3623L139.788 49.4653Z" fill="#FC6E51"/>
<path d="M139.788 49.4653L130.891 58.3623L132.358 59.8482L139.788 52.4372V49.4653Z" fill="white"/>
<path d="M46.3238 42.073L46.2495 62.8201L56.6324 52.4373L46.3238 42.073Z" fill="#FC6E51"/>
<path d="M64.062 94.0055L58.1183 99.9492H46.2495V76.2673H46.3238L64.062 94.0055Z" fill="#78B0E5"/>
<path d="M81.8745 98.4635L80.3886 99.9494H68.5198L75.9308 92.5198L81.8745 98.4635Z" fill="#94C1FF"/>
<path d="M77.416 94.0059L75.9301 92.52L68.519 99.9496H71.4909L77.416 94.0059Z" fill="#D7E9FF"/>
<path d="M139.788 91.0339V99.9495H130.891L139.788 91.0339Z" fill="white"/>
<path d="M139.788 80.6511V91.034L130.891 99.9495H120.489L139.788 80.6511Z" fill="#D7E9FF"/>
<path d="M139.788 49.4653V61.3341L136.816 64.306L130.891 58.3623L139.788 49.4653Z" fill="#78B0E5"/>
<path d="M139.788 49.4653L130.891 58.3623L132.358 59.8482L139.788 52.4372V49.4653Z" fill="#D7E9FF"/>
<path d="M46.3238 42.073L46.2495 62.8201L56.6324 52.4373L46.3238 42.073Z" fill="#78B0E5"/>
<path d="M77.4165 28.7368C87.2607 28.7368 95.2289 36.7051 95.2289 46.5493C95.2289 56.3749 81.2799 76.2491 77.4165 76.2491C74.7604 76.2491 67.3308 66.8692 62.9473 57.7866C61.9443 55.7248 61.1085 53.6817 60.5327 51.7686C59.9383 49.8555 59.604 48.0723 59.604 46.5493C59.604 36.7236 67.5722 28.7368 77.4165 28.7368Z" fill="#A5CCF2"/>
<path d="M89.2479 33.2505C92.0526 36.3895 93.7614 40.5315 93.7614 45.0821C93.7614 54.9078 79.8124 74.7819 75.949 74.7819C75.2803 74.7819 74.2959 74.1876 73.1443 73.1288C74.946 75.0605 76.4876 76.2679 77.4349 76.2679C81.3168 76.2679 95.2473 56.3937 95.2473 46.568C95.2473 41.2559 92.9256 36.5195 89.2479 33.2505Z" fill="#78B0E5"/>
<path d="M64.4518 59.291C63.4488 57.2293 62.613 55.1862 62.0372 53.273C61.4428 51.3599 61.1085 49.5768 61.1085 48.0538C61.1085 38.2095 69.0767 30.2413 78.9209 30.2413C83.4716 30.2413 87.595 31.9501 90.7526 34.7548C87.4835 31.0771 82.7472 28.7554 77.435 28.7554C67.5908 28.7554 59.6226 36.7236 59.6226 46.5678C59.6226 48.0909 59.9569 49.874 60.5513 51.7871C61.1271 53.7002 61.9815 55.7434 62.9659 57.8051C66.2349 64.5846 71.2127 71.5313 74.6303 74.6146C71.3613 71.1041 67.275 65.1418 64.4518 59.291Z" fill="#D7E9FF"/>
<path d="M121.232 91.777L90.3066 60.8513C89.4336 62.4487 88.4864 64.0089 87.5205 65.4948L117.518 95.4918L113.06 99.9496H120.489L139.788 80.6326V73.203L121.232 91.777Z" fill="white"/>
<path d="M83.137 71.5127C80.741 74.3917 78.6049 76.2677 77.4162 76.2677C74.7601 76.2677 67.3305 66.8878 62.9471 57.8051C62.7985 57.5079 62.6685 57.2108 62.5384 56.9136L50.6882 68.7638L70.2281 88.3036L76.1717 82.3599L93.7613 99.9495H99.705L105.649 94.0058L83.137 71.5127Z" fill="#78B0E5"/>
<path d="M62.9659 57.8051C62.8173 57.5079 62.6873 57.2108 62.5572 56.9136L50.707 68.7638L52.193 70.2497L63.5231 58.9196C63.3373 58.5481 63.133 58.1766 62.9659 57.8051Z" fill="#D7E9FF"/>
<path d="M127.919 52.5115L120.489 45.0819L127.919 37.6523H139.788V40.6242L127.919 52.5115Z" fill="#78B0E5"/>
<path d="M127.919 37.6526L120.489 45.0822L121.975 46.5681L130.891 37.6526H127.919Z" fill="#D7E9FF"/>
<path d="M86.2946 45.4537L77.3977 37.6526L68.4822 45.4537V56.951H86.2946V45.4537Z" fill="white"/>
<path d="M68.4822 45.4537V56.951H69.9681V44.1536L68.4822 45.4537Z" fill="white"/>
<path d="M86.3319 45.4537V56.951H84.8459V44.1536L86.3319 45.4537Z" fill="#A5CCF2"/>
<path d="M77.3977 48.0542H71.4912V52.512H77.3977V48.0542Z" fill="#A5CCF2"/>
<path d="M83.3229 51.0076H80.3696V56.8955H83.3229V51.0076Z" fill="#A5CCF2"/>
<path d="M113.023 100.766C112.837 100.766 112.652 100.692 112.503 100.544C112.206 100.246 112.206 99.782 112.503 99.4848L116.961 95.0271C117.258 94.7299 117.722 94.7299 118.02 95.0271C118.317 95.3243 118.317 95.7886 118.02 96.0858L113.562 100.544C113.413 100.692 113.228 100.766 113.023 100.766Z" fill="#155A9A"/>
<path d="M121.196 92.5941C121.01 92.5941 120.824 92.5198 120.676 92.3712C120.378 92.074 120.378 91.6097 120.676 91.3125L139.231 72.7571C139.528 72.4599 139.992 72.4599 140.29 72.7571C140.587 73.0543 140.587 73.5186 140.29 73.8158L121.734 92.3712C121.567 92.5198 121.381 92.5941 121.196 92.5941Z" fill="#155A9A"/>
<path d="M120.452 100.767C120.267 100.767 120.081 100.692 119.932 100.544C119.635 100.247 119.635 99.7823 119.932 99.4851L139.231 80.1868C139.528 79.8896 139.992 79.8896 140.289 80.1868C140.587 80.4839 140.587 80.9483 140.289 81.2455L120.973 100.544C120.824 100.692 120.638 100.767 120.452 100.767Z" fill="#155A9A"/>
<path d="M121.195 92.5941C121.01 92.5941 120.824 92.5198 120.675 92.3712L93.2043 64.9003C92.9071 64.6031 92.9071 64.1387 93.2043 63.8415C93.5015 63.5444 93.9659 63.5444 94.2631 63.8415L121.734 91.3125C122.031 91.6097 122.031 92.074 121.734 92.3712C121.567 92.5198 121.381 92.5941 121.195 92.5941Z" fill="#155A9A"/>
<path d="M117.481 96.3089C117.295 96.3089 117.109 96.2346 116.961 96.086L90.2327 69.358C89.9355 69.0608 89.9355 68.5965 90.2327 68.2993C90.5298 68.0021 90.9942 68.0021 91.2914 68.2993L118.019 95.0273C118.317 95.3245 118.317 95.7888 118.019 96.086C117.871 96.2346 117.666 96.3089 117.481 96.3089Z" fill="#155A9A"/>
<path d="M120.474 80.6484L130.863 70.2598L110.072 49.4694L99.6839 59.858L120.474 80.6484Z" fill="#78B0E5"/>
<path d="M101.188 61.3364L111.577 50.9478L110.093 49.4636L99.7039 59.8523L101.188 61.3364Z" fill="#D7E9FF"/>
<path d="M131.374 69.8038L110.59 49.001C110.367 48.7781 110.051 48.7224 109.791 48.8338C109.698 48.8709 109.624 48.9267 109.55 49.001L99.1482 59.4024C98.851 59.6996 98.851 60.1639 99.1482 60.4611L119.932 81.2454C120.081 81.394 120.267 81.4683 120.453 81.4683C120.508 81.4683 120.545 81.4683 120.601 81.4497C120.75 81.4311 120.88 81.3568 120.991 81.2454L131.393 70.844C131.541 70.6954 131.616 70.5096 131.616 70.3239C131.616 70.1382 131.523 69.9338 131.374 69.8038ZM120.453 79.6666L100.708 59.9225L110.051 50.5798L129.795 70.3239L120.453 79.6666Z" fill="#155A9A"/>
<path d="M136.779 65.1233C136.593 65.1233 136.407 65.049 136.259 64.9004C135.961 64.6032 135.961 64.1389 136.259 63.8417L139.23 60.8699C139.528 60.5727 139.992 60.5727 140.289 60.8699C140.586 61.167 140.586 61.6314 140.289 61.9286L137.317 64.9004C137.169 65.049 136.983 65.1233 136.779 65.1233Z" fill="#155A9A"/>
<path d="M136.779 65.1232C136.593 65.1232 136.407 65.0489 136.259 64.9003L130.315 58.9567C130.018 58.6595 130.018 58.1951 130.315 57.8979C130.612 57.6008 131.077 57.6008 131.374 57.8979L137.318 63.8416C137.615 64.1388 137.615 64.6032 137.318 64.9003C137.169 65.0489 136.983 65.1232 136.779 65.1232Z" fill="#155A9A"/>
<path d="M130.854 59.1795C130.668 59.1795 130.482 59.1052 130.334 58.9566C130.037 58.6595 130.037 58.1951 130.334 57.8979L139.249 48.9824C139.546 48.6852 140.011 48.6852 140.308 48.9824C140.605 49.2796 140.605 49.7439 140.308 50.0411L131.392 58.9566C131.225 59.1052 131.04 59.1795 130.854 59.1795Z" fill="#155A9A"/>
<path d="M105.612 94.8231C105.426 94.8231 105.24 94.7488 105.092 94.6002L85.7749 75.3019C85.4777 75.0047 85.4777 74.5403 85.7749 74.2432C86.0721 73.946 86.5364 73.946 86.8336 74.2432L106.132 93.5415C106.429 93.8387 106.429 94.303 106.132 94.6002C105.983 94.7488 105.798 94.8231 105.612 94.8231Z" fill="#155A9A"/>
<path d="M99.6683 100.767C99.4825 100.767 99.2968 100.692 99.1482 100.544C98.851 100.246 98.851 99.7821 99.1482 99.4849L105.092 93.5412C105.389 93.2441 105.853 93.2441 106.151 93.5412C106.448 93.8384 106.448 94.3028 106.151 94.6L100.207 100.544C100.04 100.692 99.854 100.767 99.6683 100.767Z" fill="#155A9A"/>
<path d="M50.67 69.5809C50.4842 69.5809 50.2985 69.5066 50.1499 69.358C49.8527 69.0608 49.8527 68.5965 50.1499 68.2993L59.0654 59.3838C59.3626 59.0866 59.8269 59.0866 60.1241 59.3838C60.4213 59.681 60.4213 60.1453 60.1241 60.4425L51.2086 69.358C51.0414 69.5066 50.8557 69.5809 50.67 69.5809Z" fill="#155A9A"/>
<path d="M70.1915 89.1207C70.0058 89.1207 69.82 89.0464 69.6714 88.8979L50.1316 69.358C49.8344 69.0608 49.8344 68.5965 50.1316 68.2993C50.4288 68.0021 50.8931 68.0021 51.1903 68.2993L70.7301 87.8391C71.0273 88.1363 71.0273 88.6007 70.7301 88.8979C70.5815 89.0464 70.3958 89.1207 70.1915 89.1207Z" fill="#155A9A"/>
<path d="M70.1914 89.121C70.0057 89.121 69.82 89.0467 69.6714 88.8981C69.3742 88.601 69.3742 88.1366 69.6714 87.8394L75.615 81.8957C75.9122 81.5986 76.3766 81.5986 76.6738 81.8957C76.9709 82.1929 76.9709 82.6573 76.6738 82.9545L70.7301 88.8981C70.5815 89.0467 70.3958 89.121 70.1914 89.121Z" fill="#155A9A"/>
<path d="M93.7244 100.767C93.5386 100.767 93.3529 100.693 93.2043 100.544L75.6147 82.9545C75.3175 82.6573 75.3175 82.1929 75.6147 81.8957C75.9119 81.5986 76.3763 81.5986 76.6735 81.8957L94.263 99.4853C94.5602 99.7825 94.5602 100.247 94.263 100.544C94.0959 100.693 93.9101 100.767 93.7244 100.767Z" fill="#155A9A"/>
<path d="M80.3514 100.767C80.1656 100.767 79.9799 100.692 79.8313 100.544C79.5341 100.247 79.5341 99.7824 79.8313 99.4852L81.3172 97.9993C81.6144 97.7021 82.0787 97.7021 82.3759 97.9993C82.6731 98.2964 82.6731 98.7608 82.3759 99.058L80.89 100.544C80.7414 100.692 80.5557 100.767 80.3514 100.767Z" fill="#155A9A"/>
<path d="M81.837 99.2807C81.6513 99.2807 81.4656 99.2064 81.317 99.0578L75.3733 93.1141C75.0761 92.8169 75.0761 92.3526 75.3733 92.0554C75.6705 91.7582 76.1348 91.7582 76.432 92.0554L82.3757 97.9991C82.6729 98.2963 82.6729 98.7606 82.3757 99.0578C82.2271 99.2064 82.0413 99.2807 81.837 99.2807Z" fill="#155A9A"/>
<path d="M68.4825 100.767C68.2967 100.767 68.111 100.692 67.9624 100.544C67.6652 100.247 67.6652 99.7822 67.9624 99.485L75.392 92.0554C75.6892 91.7582 76.1535 91.7582 76.4507 92.0554C76.7479 92.3526 76.7479 92.8169 76.4507 93.1141L69.0211 100.544C68.8539 100.692 68.6682 100.767 68.4825 100.767Z" fill="#155A9A"/>
<path d="M64.0246 94.8232C63.8389 94.8232 63.6531 94.7489 63.5045 94.6003L45.7478 76.8622C45.4506 76.565 45.4506 76.1006 45.7478 75.8035C46.045 75.5063 46.5093 75.5063 46.8065 75.8035L64.5632 93.5602C64.8604 93.8574 64.8604 94.3217 64.5632 94.6189C64.4146 94.7489 64.2103 94.8232 64.0246 94.8232Z" fill="#155A9A"/>
<path d="M58.0811 100.767C57.8954 100.767 57.7096 100.692 57.561 100.544C57.2638 100.246 57.2638 99.7821 57.561 99.4849L63.5047 93.5412C63.8019 93.2441 64.2662 93.2441 64.5634 93.5412C64.8606 93.8384 64.8606 94.3028 64.5634 94.6L58.6197 100.544C58.4711 100.692 58.2668 100.767 58.0811 100.767Z" fill="#155A9A"/>
<path d="M56.6136 53.2359C56.4278 53.2359 56.2421 53.1616 56.0935 53.013L45.7478 42.6859C45.4506 42.3887 45.4506 41.9244 45.7478 41.6272C46.045 41.33 46.5093 41.33 46.8065 41.6272L57.1336 51.9729C57.4308 52.2701 57.4308 52.7344 57.1336 53.0316C56.9851 53.1616 56.7993 53.2359 56.6136 53.2359Z" fill="#155A9A"/>
<path d="M46.2122 63.6374C46.0265 63.6374 45.8407 63.5631 45.6921 63.4145C45.3949 63.1173 45.3949 62.653 45.6921 62.3558L56.0936 51.9543C56.3907 51.6571 56.8551 51.6571 57.1523 51.9543C57.4495 52.2515 57.4495 52.7159 57.1523 53.013L46.7508 63.4145C46.5837 63.5631 46.3979 63.6374 46.2122 63.6374Z" fill="#155A9A"/>
<path d="M120.452 45.8247C120.267 45.8247 120.081 45.7504 119.932 45.6018C119.635 45.3046 119.635 44.8403 119.932 44.5431L127.362 37.1135C127.659 36.8163 128.123 36.8163 128.421 37.1135C128.718 37.4107 128.718 37.875 128.421 38.1722L120.991 45.6018C120.824 45.7504 120.638 45.8247 120.452 45.8247Z" fill="#155A9A"/>
<path d="M99.6682 45.8247C99.4825 45.8247 99.2968 45.7504 99.1482 45.6018C98.851 45.3046 98.851 44.8403 99.1482 44.5431L106.578 37.1135C106.875 36.8163 107.339 36.8163 107.636 37.1135C107.934 37.4107 107.934 37.875 107.636 38.1722L100.207 45.6018C100.04 45.7504 99.854 45.8247 99.6682 45.8247Z" fill="#155A9A"/>
<path d="M130.854 100.767C130.668 100.767 130.482 100.692 130.334 100.544C130.037 100.247 130.037 99.7823 130.334 99.4851L139.249 90.5696C139.546 90.2724 140.011 90.2724 140.308 90.5696C140.605 90.8668 140.605 91.3311 140.308 91.6283L131.392 100.544C131.225 100.692 131.04 100.767 130.854 100.767Z" fill="#155A9A"/>
<path d="M127.882 53.2361C127.696 53.2361 127.511 53.1618 127.362 53.0132L119.932 45.5836C119.635 45.2864 119.635 44.8221 119.932 44.5249C120.23 44.2277 120.694 44.2277 120.991 44.5249L128.421 51.9545C128.718 52.2517 128.718 52.716 128.421 53.0132C128.254 53.1618 128.068 53.2361 127.882 53.2361Z" fill="#155A9A"/>
<path d="M127.882 53.2358C127.696 53.2358 127.511 53.1615 127.362 53.013C127.065 52.7158 127.065 52.2514 127.362 51.9542L139.249 40.0669C139.547 39.7697 140.011 39.7697 140.308 40.0669C140.605 40.3641 140.605 40.8284 140.308 41.1256L128.421 53.013C128.254 53.1615 128.068 53.2358 127.882 53.2358Z" fill="#155A9A"/>
<path d="M139.751 100.767H46.2679C45.8592 100.767 45.5249 100.432 45.5249 100.024V37.6524C45.5249 37.2438 45.8592 36.9094 46.2679 36.9094C46.6765 36.9094 47.0108 37.2438 47.0108 37.6524V99.2809H139.008V37.6524C139.008 37.2438 139.342 36.9094 139.751 36.9094C140.159 36.9094 140.494 37.2438 140.494 37.6524V100.024C140.494 100.432 140.159 100.767 139.751 100.767Z" fill="#155A9A"/>
<path d="M77.3977 77.0107C73.0142 77.0107 58.8423 56.8764 58.8423 46.5679C58.8423 36.3336 67.1634 28.0125 77.3977 28.0125C87.632 28.0125 95.9531 36.3336 95.9531 46.5679C95.9531 56.8764 81.7812 77.0107 77.3977 77.0107ZM77.3977 29.4798C67.9807 29.4798 60.3282 37.1323 60.3282 46.5493C60.3282 56.505 74.203 75.5062 77.3977 75.5062C80.5924 75.5062 94.4672 56.505 94.4672 46.5679C94.4672 37.1509 86.8147 29.4798 77.3977 29.4798Z" fill="#155A9A"/>
<path d="M56.595 38.3953H46.2679C45.8592 38.3953 45.5249 38.061 45.5249 37.6524C45.5249 37.2438 45.8592 36.9094 46.2679 36.9094H56.595C57.0036 36.9094 57.338 37.2438 57.338 37.6524C57.338 38.061 57.0036 38.3953 56.595 38.3953Z" fill="#155A9A"/>
<path d="M139.751 38.3953H98.1824C97.7738 38.3953 97.4395 38.061 97.4395 37.6524C97.4395 37.2438 97.7738 36.9094 98.1824 36.9094H139.77C140.178 36.9094 140.513 37.2438 140.513 37.6524C140.513 38.061 140.16 38.3953 139.751 38.3953Z" fill="#155A9A"/>
<path d="M65.5108 48.7968C65.3065 48.7968 65.1022 48.7039 64.9536 48.5367C64.675 48.221 64.7121 47.7566 65.0279 47.4966L76.9152 37.0952C77.231 36.8166 77.6953 36.8537 77.9553 37.1695C78.234 37.4852 78.1968 37.9496 77.8811 38.2096L65.9937 48.611C65.8637 48.7225 65.6779 48.7968 65.5108 48.7968Z" fill="#155A9A"/>
<path d="M89.2669 48.7968C89.0997 48.7968 88.9139 48.7411 88.7839 48.6111L76.8966 38.2097C76.5808 37.931 76.5622 37.4667 76.8223 37.1695C77.1009 36.8538 77.5652 36.8352 77.8624 37.0952L89.7498 47.4967C90.0655 47.7753 90.0841 48.2396 89.8241 48.5368C89.6755 48.704 89.4712 48.7968 89.2669 48.7968Z" fill="#155A9A"/>
<path d="M68.4827 57.6937C68.0741 57.6937 67.7397 57.3593 67.7397 56.9507V48.0352C67.7397 47.6266 68.0741 47.2922 68.4827 47.2922C68.8913 47.2922 69.2257 47.6266 69.2257 48.0352V56.9507C69.2257 57.3593 68.8913 57.6937 68.4827 57.6937Z" fill="#155A9A"/>
<path d="M86.2949 57.6939H68.4825C68.0738 57.6939 67.7395 57.3596 67.7395 56.951C67.7395 56.5423 68.0738 56.208 68.4825 56.208H86.2949C86.7036 56.208 87.0379 56.5423 87.0379 56.951C87.0379 57.3596 86.7036 57.6939 86.2949 57.6939Z" fill="#155A9A"/>
<path d="M86.295 57.6937C85.8863 57.6937 85.552 57.3593 85.552 56.9507V48.0352C85.552 47.6266 85.8863 47.2922 86.295 47.2922C86.7036 47.2922 87.0379 47.6266 87.0379 48.0352V56.9507C87.0379 57.3593 86.7036 57.6937 86.295 57.6937Z" fill="#155A9A"/>
<path d="M80.3514 57.6938C79.9427 57.6938 79.6084 57.3594 79.6084 56.9508V51.0071C79.6084 50.5985 79.9427 50.2642 80.3514 50.2642C80.76 50.2642 81.0943 50.5985 81.0943 51.0071V56.9508C81.0943 57.3594 80.7786 57.6938 80.3514 57.6938Z" fill="#155A9A"/>
<path d="M83.3233 57.6938C82.9147 57.6938 82.5803 57.3594 82.5803 56.9508V51.0071C82.5803 50.5985 82.9147 50.2642 83.3233 50.2642C83.7319 50.2642 84.0662 50.5985 84.0662 51.0071V56.9508C84.0662 57.3594 83.7319 57.6938 83.3233 57.6938Z" fill="#155A9A"/>
<path d="M77.3978 53.2359H71.4541C71.0455 53.2359 70.7112 52.9016 70.7112 52.493V48.0352C70.7112 47.6266 71.0455 47.2922 71.4541 47.2922H77.3978C77.8064 47.2922 78.1408 47.6266 78.1408 48.0352V52.493C78.1408 52.9202 77.8064 53.2359 77.3978 53.2359ZM72.1971 51.75H76.6549V48.7782H72.1971V51.75Z" fill="#155A9A"/>
<path d="M83.3232 51.7501H80.3514C79.9427 51.7501 79.6084 51.4157 79.6084 51.0071C79.6084 50.5985 79.9427 50.2642 80.3514 50.2642H83.3232C83.7318 50.2642 84.0662 50.5985 84.0662 51.0071C84.0662 51.4157 83.7318 51.7501 83.3232 51.7501Z" fill="#155A9A"/>
</svg>
