<svg width="83" height="75" viewBox="0 0 83 75" fill="none" xmlns="http://www.w3.org/2000/svg">
<path d="M5.28028 56.0766V56.0519V50.9744H1.47217V56.0519V56.0766C1.47217 58.1716 3.18593 59.8847 5.28028 59.8847H9.0884C6.99405 59.8847 5.28028 58.1716 5.28028 56.0766Z" fill="white"/>
<path d="M81.4424 50.9736V56.0759C81.4424 58.1709 79.7294 59.884 77.6343 59.884H41.457V57.3205C42.5107 57.3205 43.3609 56.4701 43.3609 55.4164C43.3609 54.3627 42.5107 53.5124 41.457 53.5124V50.9736H81.4424Z" fill="white"/>
<path d="M41.4568 53.5123C42.5105 53.5123 43.3607 54.3627 43.3607 55.4164C43.3607 56.4701 42.5105 57.3204 41.4568 57.3204C40.4031 57.3204 39.5527 56.4701 39.5527 55.4164C39.5527 54.3627 40.4031 53.5123 41.4568 53.5123Z" fill="#78B0E5"/>
<path d="M81.4428 56.0762V58.5902C81.4428 60.7348 79.7795 62.3983 77.6347 62.3983C76.7335 62.3983 64.1413 62.3983 49.6959 62.3983C44.289 62.3983 38.6268 62.3983 33.219 62.3983C18.7736 62.3983 6.18145 62.3983 5.28028 62.3983C3.13514 62.3983 1.47217 60.7348 1.47217 58.5902V56.0762C1.47217 58.1712 3.18593 59.8843 5.28028 59.8843H41.4574H77.6345C79.7298 59.8843 81.4428 58.1712 81.4428 56.0762Z" fill="#D7E9FF"/>
<path d="M49.6948 62.3983L52.2336 73.8227H30.6792L33.2179 62.3983C38.6259 62.3983 44.2879 62.3983 49.6948 62.3983Z" fill="#D7E9FF"/>
<path d="M2.77312 58.9157C1.9829 58.2167 1.47217 57.2075 1.47217 56.0757V58.5897C1.47217 60.7343 3.13514 62.3978 5.28028 62.3978C5.42233 62.3978 5.86291 62.3978 6.54965 62.3978C4.51672 62.3979 2.93564 60.898 2.77312 58.9157Z" fill="white"/>
<path d="M80.1411 58.9157C79.9799 60.8978 78.3985 62.3978 76.3652 62.3978C77.0521 62.3978 77.4932 62.3978 77.6346 62.3978C79.7794 62.3978 81.4427 60.7343 81.4427 58.5897V56.0757C81.4429 57.2076 80.9323 58.2167 80.1411 58.9157Z" fill="#3D7BB6"/>
<path d="M41.4575 57.3205V59.884H5.28028C3.18593 59.884 1.47217 58.1709 1.47217 56.0759V56.0511V50.9736H41.4575V53.5124C40.4039 53.5124 39.5535 54.3628 39.5535 55.4164C39.5535 56.4701 40.4039 57.3205 41.4575 57.3205Z" fill="white"/>
<path d="M81.4429 5.30079V50.9736H41.4575H1.47217V5.30079C1.47217 3.20723 3.18593 1.49268 5.28028 1.49268H77.6346C79.7299 1.49268 81.4429 3.20723 81.4429 5.30079ZM77.6346 47.1655V7.81478V5.27603H75.0959H72.5571H68.749H66.2103H63.6715H61.1328H58.5941H30.6679H25.5904H20.5129H15.4354H10.3578H5.28028V7.81478V47.1655H77.6346Z" fill="#78B0E5"/>
<path d="M6.54965 1.49268H5.28028C3.18593 1.49268 1.47217 3.20723 1.47217 5.30079V50.9736H2.74154V5.30079C2.74154 3.20723 4.4553 1.49268 6.54965 1.49268Z" fill="#D7E9FF"/>
<path d="M77.6346 1.49268H76.3652C78.4604 1.49268 80.1734 3.20723 80.1734 5.30079V50.9736H81.4427V5.30079C81.4429 3.20723 79.7299 1.49268 77.6346 1.49268Z" fill="#78B0E5"/>
<path d="M49.9776 63.6674L49.695 62.3981C44.288 62.3981 38.6258 62.3981 33.2181 62.3981L32.936 63.6674C38.5931 63.6674 44.3202 63.6674 49.9776 63.6674Z" fill="#78B0E5"/>
<path d="M48.7075 63.6676L50.9649 73.8226H52.2342L49.9769 63.6676C49.5544 63.6676 49.1303 63.6676 48.7075 63.6676Z" fill="#78B0E5"/>
<path d="M34.2074 63.6672L31.95 73.8222H30.6807L32.938 63.6672C33.3613 63.6672 33.7841 63.6672 34.2074 63.6672Z" fill="white"/>
<path d="M5.86279 47.7596H77.0528V5.88318H5.86279V47.7596Z" fill="#D7E9FF"/>
<path d="M28.4766 47.7596H40.202L48.5773 5.88318H36.8519L28.4766 47.7596Z" fill="white"/>
<path d="M43.5513 47.7596H46.9014L55.2767 5.88318H51.9266L43.5513 47.7596Z" fill="white"/>
<path d="M81.4423 51.6081H1.4716C1.12085 51.6081 0.836914 51.3242 0.836914 50.9734C0.836914 50.6227 1.12085 50.3387 1.4716 50.3387H81.4422C81.7931 50.3387 82.077 50.6227 82.077 50.9734C82.077 51.3242 81.7931 51.6081 81.4423 51.6081Z" fill="#155A9A"/>
<path d="M41.4572 57.9552C40.0571 57.9552 38.9185 56.8159 38.9185 55.4164C38.9185 54.0156 40.0571 52.8777 41.4572 52.8777C42.858 52.8777 43.996 54.0156 43.996 55.4164C43.996 56.8159 42.858 57.9552 41.4572 57.9552ZM41.4572 54.1469C40.7574 54.1469 40.1878 54.7159 40.1878 55.4163C40.1878 56.1154 40.7574 56.6856 41.4572 56.6856C42.1568 56.6856 42.7266 56.1154 42.7266 55.4163C42.7266 54.7159 42.1568 54.1469 41.4572 54.1469Z" fill="#155A9A"/>
<path d="M30.6814 74.4571C30.6356 74.4571 30.5897 74.4521 30.5432 74.4421C30.201 74.3653 29.9853 74.0268 30.061 73.6848L32.5998 62.2604C32.676 61.9184 33.0194 61.7064 33.3571 61.7783C33.6993 61.854 33.915 62.1935 33.8395 62.5355L31.3006 73.9598C31.2349 74.255 30.972 74.4571 30.6814 74.4571Z" fill="#155A9A"/>
<path d="M52.234 74.4571C51.943 74.4571 51.6801 74.255 51.6144 73.9598L49.0757 62.5355C49 62.1935 49.2158 61.8538 49.558 61.7783C49.8986 61.7051 50.2397 61.9184 50.3152 62.2604L52.854 73.6848C52.9297 74.0268 52.7138 74.3653 52.3716 74.4422C52.3258 74.4522 52.2788 74.4571 52.234 74.4571Z" fill="#155A9A"/>
<path d="M54.1515 74.457H28.7641C28.4132 74.457 28.1294 74.1731 28.1294 73.8223C28.1294 73.4714 28.4132 73.1876 28.7641 73.1876H54.1515C54.5024 73.1876 54.7861 73.4714 54.7861 73.8223C54.7862 74.1731 54.5024 74.457 54.1515 74.457Z" fill="#155A9A"/>
<path d="M77.6345 47.8002H5.28019C4.92944 47.8002 4.64551 47.5162 4.64551 47.1655V5.27604C4.64551 4.92529 4.92944 4.64136 5.28019 4.64136H77.6345C77.9854 4.64136 78.2694 4.92529 78.2694 5.27604V47.1656C78.2694 47.5162 77.9854 47.8002 77.6345 47.8002ZM5.91488 46.5308H77V5.91073H5.91488V46.5308Z" fill="#155A9A"/>
<path d="M77.6341 60.5188H5.27972C2.83017 60.5188 0.836914 58.5254 0.836914 56.076C0.836914 56.0724 0.836914 56.0673 0.836914 56.0636C0.836914 56.06 0.836914 56.0549 0.836914 56.0513V5.30083C0.836914 2.85129 2.83033 0.858032 5.27972 0.858032H77.6341C80.0836 0.858032 82.077 2.85144 82.077 5.30083V56.076C82.0772 58.5254 80.0836 60.5188 77.6341 60.5188ZM2.10629 56.0636C2.10629 56.0673 2.10629 56.0724 2.10629 56.076C2.10629 57.8263 3.53008 59.2495 5.27972 59.2495H77.6341C79.3845 59.2495 80.8076 57.8263 80.8076 56.076V5.30083C80.8076 3.55168 79.3845 2.1274 77.6341 2.1274H5.27972C3.53008 2.1274 2.10629 3.55184 2.10629 5.30083V56.0513C2.10629 56.0549 2.10629 56.0598 2.10629 56.0636Z" fill="#155A9A"/>
<path d="M77.6341 63.0328H5.27972C2.78874 63.0328 0.836914 61.0803 0.836914 58.59V56.076C0.836914 55.7253 1.12085 55.429 1.4716 55.429C1.82235 55.429 2.10629 55.7005 2.10629 56.0513V58.59C2.10629 60.3987 3.47057 61.7634 5.27972 61.7634H77.6341C79.444 61.7634 80.8076 60.3985 80.8076 58.59V56.076C80.8076 55.7253 81.0916 55.4413 81.4422 55.4413C81.7931 55.4413 82.077 55.7253 82.077 56.076V58.59C82.0772 61.0803 80.1258 63.0328 77.6341 63.0328Z" fill="#155A9A"/>
<path d="M40.6832 14.0594C46.0282 14.0594 50.3546 18.3415 50.3546 23.6317C50.3546 28.9119 42.7808 39.5921 40.6832 39.5921C39.241 39.5921 35.207 34.5514 32.827 29.6705C32.2824 28.5625 31.8286 27.4646 31.516 26.4365C31.1932 25.4084 31.0117 24.4502 31.0117 23.6317C31.0117 18.3515 35.3382 14.0594 40.6832 14.0594Z" fill="#78B0E5"/>
<path d="M47.7678 16.3804C49.3387 18.0741 50.2957 20.3091 50.2957 22.7645C50.2957 28.0663 42.4832 38.7901 40.3194 38.7901C39.9449 38.7901 39.3935 38.4693 38.7485 37.8981C39.7576 38.9404 40.6211 39.5918 41.1516 39.5918C43.3258 39.5918 51.128 28.8681 51.128 23.5663C51.128 20.6999 49.8276 18.1443 47.7678 16.3804Z" fill="#3D7BB6"/>
<path d="M33.6523 30.5453C33.1039 29.4322 32.6469 28.3292 32.332 27.2963C32.007 26.2634 31.8242 25.3007 31.8242 24.4784C31.8242 19.1636 36.1812 14.8617 41.564 14.8617C44.0522 14.8617 46.3069 15.7842 48.0335 17.2985C46.246 15.3129 43.6561 14.0594 40.7515 14.0594C35.3687 14.0594 31.0117 18.3614 31.0117 23.6762C31.0117 24.4985 31.1945 25.4612 31.5195 26.494C31.8344 27.5269 32.3016 28.63 32.8398 29.7431C34.6273 33.4033 37.3492 37.1537 39.2179 38.8183C37.4304 36.9231 35.1961 33.7041 33.6523 30.5453Z" fill="#3A79B5"/>
<path d="M41.071 40.3656C38.6949 40.3656 31.0127 29.2379 31.0127 23.5406C31.0127 17.8844 35.5233 13.2855 41.071 13.2855C46.6187 13.2855 51.1293 17.8844 51.1293 23.5406C51.1293 29.2379 43.4471 40.3656 41.071 40.3656ZM41.071 14.0965C35.9663 14.0965 31.8182 18.3258 31.8182 23.5304C31.8182 29.0326 39.3392 39.5341 41.071 39.5341C42.8028 39.5341 50.3238 29.0326 50.3238 23.5406C50.3238 18.3361 46.1757 14.0965 41.071 14.0965Z" fill="#155A9A"/>
<path d="M36.3169 19.9861H38.3286V30.3074H36.3169V19.9861Z" fill="white"/>
<path d="M40.6842 19.9861H43.6862C44.3258 19.9861 44.8467 20.0428 45.2491 20.1563C45.6617 20.2595 46.0486 20.4658 46.4096 20.7753C47.1111 21.3942 47.4619 22.2247 47.4619 23.2666C47.4619 24.2364 47.1782 25.0049 46.6108 25.5723C46.0022 26.181 45.1304 26.4853 43.9957 26.4853H42.6958V30.3074H40.6842V19.9861ZM42.6958 21.7192V24.7522H43.516C44.104 24.7522 44.5424 24.6439 44.8313 24.4272C45.2027 24.1384 45.3883 23.736 45.3883 23.2202C45.3883 22.7147 45.1975 22.3227 44.8158 22.0442C44.5063 21.8275 44.0318 21.7192 43.3922 21.7192H42.6958Z" fill="white"/>
</svg>
