<svg width="186" height="114" viewBox="0 0 186 114" fill="none" xmlns="http://www.w3.org/2000/svg">
<path d="M93 15C41.6375 15 0 56.6375 0 108H186C186 56.6375 144.362 15 93 15Z" fill="#F6F6F6"/>
<path d="M52.8666 85.5896V85.5621V79.9294H48.6421V85.5621V85.5896C48.6421 87.9137 50.5432 89.8141 52.8666 89.8141H57.0911C54.7678 89.8141 52.8666 87.9137 52.8666 85.5896Z" fill="white"/>
<path d="M137.357 79.9287V85.5889C137.357 87.9129 135.456 89.8134 133.132 89.8134H92.999V86.9696C94.1679 86.9696 95.1111 86.0262 95.1111 84.8573C95.1111 83.6884 94.1679 82.7451 92.999 82.7451V79.9287H137.357Z" fill="white"/>
<path d="M92.9995 82.7449C94.1684 82.7449 95.1115 83.6882 95.1115 84.8571C95.1115 86.026 94.1684 86.9694 92.9995 86.9694C91.8306 86.9694 90.8872 86.026 90.8872 84.8571C90.8872 83.6882 91.8306 82.7449 92.9995 82.7449Z" fill="#78B0E5"/>
<path d="M137.357 85.5889V88.3777C137.357 90.7569 135.512 92.6023 133.132 92.6023C132.133 92.6023 118.164 92.6023 102.139 92.6023C96.1406 92.6023 89.8593 92.6023 83.8603 92.6023C67.8353 92.6023 53.8663 92.6023 52.8666 92.6023C50.4869 92.6023 48.6421 90.7569 48.6421 88.3777V85.5889C48.6421 87.9129 50.5432 89.8134 52.8666 89.8134H92.9994H133.132C135.457 89.8134 137.357 87.9129 137.357 85.5889Z" fill="#D7E9FF"/>
<path d="M102.138 92.6023L104.954 105.276H81.043L83.8593 92.6023C89.8586 92.6023 96.1397 92.6023 102.138 92.6023Z" fill="#D7E9FF"/>
<path d="M50.0853 88.7391C49.2087 87.9637 48.6421 86.8441 48.6421 85.5886V88.3775C48.6421 90.7567 50.4869 92.602 52.8666 92.602C53.0242 92.602 53.5129 92.602 54.2748 92.602C52.0196 92.6022 50.2656 90.9382 50.0853 88.7391Z" fill="white"/>
<path d="M135.913 88.7391C135.734 90.938 133.98 92.602 131.724 92.602C132.486 92.602 132.975 92.602 133.132 92.602C135.512 92.602 137.357 90.7567 137.357 88.3775V85.5886C137.357 86.8443 136.791 87.9637 135.913 88.7391Z" fill="#3D7BB6"/>
<path d="M92.9996 86.9696V89.8134H52.8666C50.5432 89.8134 48.6421 87.9129 48.6421 85.5889V85.5614V79.9287H92.9996V82.7451C91.8307 82.7451 90.8874 83.6884 90.8874 84.8573C90.8874 86.0262 91.8307 86.9696 92.9996 86.9696Z" fill="white"/>
<path d="M137.357 29.2619V79.9287H92.9996H48.6421V29.2619C48.6421 26.9394 50.5432 25.0374 52.8666 25.0374H133.132C135.457 25.0374 137.357 26.9394 137.357 29.2619ZM133.132 75.7042V32.0507V29.2344H130.316H127.5H123.275H120.459H117.643H114.826H112.01H81.0302H75.3975H69.7648H64.1321H58.4993H52.8666V32.0507V75.7042H133.132Z" fill="#78B0E5"/>
<path d="M54.2748 25.0374H52.8666C50.5432 25.0374 48.6421 26.9394 48.6421 29.2619V79.9287H50.0503V29.2619C50.0503 26.9394 51.9514 25.0374 54.2748 25.0374Z" fill="#D7E9FF"/>
<path d="M133.132 25.0374H131.724C134.048 25.0374 135.949 26.9394 135.949 29.2619V79.9287H137.357V29.2619C137.357 26.9394 135.457 25.0374 133.132 25.0374Z" fill="#78B0E5"/>
<path d="M102.452 94.0105L102.138 92.6023C96.1401 92.6023 89.8588 92.6023 83.8597 92.6023L83.5469 94.0105C89.8225 94.0105 96.1759 94.0105 102.452 94.0105Z" fill="#78B0E5"/>
<path d="M101.043 94.0105L103.547 105.276H104.955L102.451 94.0105C101.982 94.0105 101.512 94.0105 101.043 94.0105Z" fill="#78B0E5"/>
<path d="M84.9563 94.0103L82.4521 105.276H81.0439L83.5481 94.0103C84.0177 94.0103 84.4867 94.0103 84.9563 94.0103Z" fill="white"/>
<path d="M53.5127 76.3633H132.487V29.9079H53.5127V76.3633Z" fill="#D7E9FF"/>
<path d="M78.5986 76.3633H91.6061L100.897 29.9079H87.8897L78.5986 76.3633Z" fill="white"/>
<path d="M95.3223 76.3633H99.0387L108.33 29.9079H104.613L95.3223 76.3633Z" fill="white"/>
<path d="M137.357 80.6325H48.6421C48.253 80.6325 47.938 80.3176 47.938 79.9285C47.938 79.5394 48.253 79.2244 48.6421 79.2244H137.357C137.746 79.2244 138.061 79.5394 138.061 79.9285C138.061 80.3176 137.746 80.6325 137.357 80.6325Z" fill="#155A9A"/>
<path d="M92.9999 87.6737C91.4467 87.6737 90.1836 86.4099 90.1836 84.8574C90.1836 83.3034 91.4467 82.041 92.9999 82.041C94.5539 82.041 95.8163 83.3034 95.8163 84.8574C95.8163 86.4099 94.5539 87.6737 92.9999 87.6737ZM92.9999 83.449C92.2237 83.449 91.5918 84.0802 91.5918 84.8572C91.5918 85.6327 92.2237 86.2654 92.9999 86.2654C93.776 86.2654 94.4081 85.6327 94.4081 84.8572C94.4081 84.0802 93.776 83.449 92.9999 83.449Z" fill="#155A9A"/>
<path d="M81.0454 105.98C80.9945 105.98 80.9436 105.974 80.892 105.963C80.5124 105.878 80.2731 105.503 80.3571 105.123L83.1735 92.4496C83.258 92.0702 83.639 91.8349 84.0136 91.9147C84.3932 91.9987 84.6325 92.3753 84.5487 92.7547L81.7322 105.428C81.6593 105.756 81.3677 105.98 81.0454 105.98Z" fill="#155A9A"/>
<path d="M104.955 105.98C104.632 105.98 104.34 105.756 104.267 105.428L101.451 92.7546C101.367 92.3752 101.606 91.9984 101.986 91.9146C102.364 91.8334 102.742 92.0701 102.826 92.4495L105.642 105.123C105.726 105.502 105.487 105.878 105.107 105.963C105.056 105.974 105.004 105.98 104.955 105.98Z" fill="#155A9A"/>
<path d="M107.081 105.98H78.918C78.5287 105.98 78.2139 105.665 78.2139 105.276C78.2139 104.886 78.5287 104.572 78.918 104.572H107.081C107.471 104.572 107.785 104.886 107.785 105.276C107.785 105.665 107.471 105.98 107.081 105.98Z" fill="#155A9A"/>
<path d="M133.133 76.4082H52.8667C52.4776 76.4082 52.1626 76.0932 52.1626 75.7041V29.2344C52.1626 28.8453 52.4776 28.5303 52.8667 28.5303H133.133C133.522 28.5303 133.837 28.8453 133.837 29.2344V75.7043C133.837 76.0932 133.522 76.4082 133.133 76.4082ZM53.5708 75.0001H132.429V29.9384H53.5708V75.0001Z" fill="#155A9A"/>
<path d="M133.132 90.5176H52.8666C50.1492 90.5176 47.938 88.3062 47.938 85.589C47.938 85.5849 47.938 85.5793 47.938 85.5753C47.938 85.5712 47.938 85.5656 47.938 85.5615V29.2618C47.938 26.5445 50.1494 24.3333 52.8666 24.3333H133.132C135.85 24.3333 138.061 26.5446 138.061 29.2618V85.589C138.061 88.3062 135.85 90.5176 133.132 90.5176ZM49.3462 85.5753C49.3462 85.5793 49.3462 85.5849 49.3462 85.589C49.3462 87.5306 50.9256 89.1094 52.8666 89.1094H133.132C135.074 89.1094 136.653 87.5306 136.653 85.589V29.2618C136.653 27.3214 135.074 25.7414 133.132 25.7414H52.8666C50.9256 25.7414 49.3462 27.3216 49.3462 29.2618V85.5615C49.3462 85.5656 49.3462 85.571 49.3462 85.5753Z" fill="#155A9A"/>
<path d="M133.132 93.3064H52.8666C50.1032 93.3064 47.938 91.1404 47.938 88.3778V85.5889C47.938 85.1998 48.253 84.8711 48.6421 84.8711C49.0312 84.8711 49.3462 85.1723 49.3462 85.5614V88.3778C49.3462 90.3842 50.8596 91.8982 52.8666 91.8982H133.132C135.14 91.8982 136.653 90.384 136.653 88.3778V85.5889C136.653 85.1998 136.968 84.8848 137.357 84.8848C137.746 84.8848 138.061 85.1998 138.061 85.5889V88.3778C138.061 91.1404 135.897 93.3064 133.132 93.3064Z" fill="#155A9A"/>
<path d="M92.1411 38.9783C98.0705 38.9783 102.87 43.7285 102.87 49.5972C102.87 55.4547 94.4681 67.3027 92.1411 67.3027C90.5412 67.3027 86.0662 61.7109 83.4259 56.2963C82.8218 55.0672 82.3183 53.8492 81.9715 52.7087C81.6135 51.5681 81.4121 50.5051 81.4121 49.5972C81.4121 43.7396 86.2116 38.9783 92.1411 38.9783Z" fill="#78B0E5"/>
<path d="M100.001 41.553C101.744 43.4319 102.805 45.9113 102.805 48.6352C102.805 54.5167 94.1386 66.413 91.7382 66.413C91.3228 66.413 90.7111 66.0572 89.9956 65.4235C91.115 66.5798 92.0729 67.3025 92.6614 67.3025C95.0734 67.3025 103.729 55.4061 103.729 49.5246C103.729 46.3449 102.286 43.5098 100.001 41.553Z" fill="#3D7BB6"/>
<path d="M84.3414 57.2668C83.733 56.032 83.226 54.8083 82.8768 53.6625C82.5162 52.5167 82.3134 51.4487 82.3134 50.5365C82.3134 44.6406 87.1469 39.8682 93.1182 39.8682C95.8785 39.8682 98.3797 40.8917 100.295 42.5714C98.3121 40.3688 95.4391 38.9783 92.2169 38.9783C86.2455 38.9783 81.4121 43.7506 81.4121 49.6466C81.4121 50.5588 81.6149 51.6267 81.9754 52.7725C82.3247 53.9183 82.843 55.142 83.4401 56.3768C85.423 60.4372 88.4425 64.5977 90.5156 66.4444C88.5327 64.3419 86.054 60.771 84.3414 57.2668Z" fill="#3A79B5"/>
<path d="M92.5707 68.1607C89.9348 68.1607 81.4126 55.8163 81.4126 49.4961C81.4126 43.2214 86.4164 38.1196 92.5707 38.1196C98.725 38.1196 103.729 43.2214 103.729 49.4961C103.729 55.8163 95.2067 68.1607 92.5707 68.1607ZM92.5707 39.0193C86.9079 39.0193 82.3061 43.711 82.3061 49.4847C82.3061 55.5885 90.6496 67.2383 92.5707 67.2383C94.4918 67.2383 102.835 55.5885 102.835 49.4961C102.835 43.7224 98.2335 39.0193 92.5707 39.0193Z" fill="#155A9A"/>
<path d="M87.2969 45.5527H89.5285V57.0027H87.2969V45.5527Z" fill="white"/>
<path d="M92.1417 45.5527H95.4719C96.1815 45.5527 96.7594 45.6157 97.2057 45.7416C97.6635 45.856 98.0927 46.0849 98.4932 46.4282C99.2714 47.1149 99.6605 48.0361 99.6605 49.192C99.6605 50.2678 99.3458 51.1203 98.7164 51.7498C98.0412 52.425 97.0741 52.7626 95.8153 52.7626H94.3733V57.0027H92.1417V45.5527ZM94.3733 47.4754V50.84H95.2831C95.9354 50.84 96.4218 50.7198 96.7422 50.4795C97.1542 50.159 97.3602 49.7127 97.3602 49.1405C97.3602 48.5797 97.1485 48.1449 96.7251 47.8359C96.3818 47.5955 95.8553 47.4754 95.1458 47.4754H94.3733Z" fill="white"/>
</svg>
