<svg width="197" height="168" viewBox="0 0 197 168" fill="none" xmlns="http://www.w3.org/2000/svg">
<path d="M137.718 141.468C144.813 131.772 148.923 119.815 148.99 106.938C149.162 74.1475 122.625 47.3556 89.8027 47.1834C68.5209 47.0718 49.7281 58.2032 39.149 74.9179L48.4081 81.2553C57.023 67.525 72.3587 58.3219 89.594 58.4124C116.271 58.5523 137.74 80.2266 137.6 106.879C137.544 117.509 134.046 127.224 128.309 135.129L137.718 141.468Z" fill="url(#paint0_linear)"/>
<path d="M89.9884 11.8473C142.294 12.1217 184.634 54.8682 184.36 107.124C184.254 127.337 177.862 145.871 166.99 161.236L176.399 167.575C188.479 150.419 195.633 129.643 195.75 107.184C196.058 48.6393 148.648 0.775247 90.0481 0.467821C52.5801 0.271258 19.5062 19.5631 0.618192 48.8119L9.87728 55.1493C26.8004 29.0346 56.4171 11.6712 89.9884 11.8473Z" fill="url(#paint1_linear)"/>
<defs>
<linearGradient id="paint0_linear" x1="39.0452" y1="94.7044" x2="149.051" y2="95.2815" gradientUnits="userSpaceOnUse">
<stop stop-color="#FD8F10"/>
<stop offset="1" stop-color="#FFE922"/>
</linearGradient>
<linearGradient id="paint1_linear" x1="0.429965" y1="84.6906" x2="195.863" y2="85.7159" gradientUnits="userSpaceOnUse">
<stop stop-color="#FD8F10"/>
<stop offset="1" stop-color="#FFE922"/>
</linearGradient>
</defs>
</svg>
